<svg xmlns="http://www.w3.org/2000/svg" width="751.591" height="768.318"><defs><style>.b{fill:none;stroke:#000;stroke-linecap:round;stroke-linejoin:round;stroke-width:4px}</style></defs><path d="M488.255 416.732a142.088 142.088 0 00-25.453-16.837c-49.641-25.94-99.584-29.519-152.327-6-10.72 4.78-19.007 8.214-26.384 14.773l-1-1c-6.089-10.579-12.833-23.088-13.407-35.219-2.559-54.115-5-108.249-8.888-162.275-.543-7.55-5.831-23.171-5.831-23.171l.126.665s34.211-6.122 47.392-18.3c1.249-1.154 5.652-1.344 8.406 1.4 4.85 4.833 10.186 9.175 15.3 13.747 15.871 14.2 26.367 14.061 40.928-1.781q28.658-31.176 56.345-63.237c9-10.449 10.835-22.194 1.822-34.076-14.249-18.784-28.924-37.267-42.552-56.492-8.609-12.145-16.457-13.612-21.638-28.262l-.5-.666c-33.574 11.7-70.24 28.568-102.668 42.876-30.522 13.467-59.49 31.167-90.935 41.6-23.1 7.663-25.192 26.229-29.765 42.145-15.185 52.842-29.677 105.893-44.745 158.791-18.537 65.077-35.714 130.6-50.974 196.517-5.623 24.285-11.736 49.263-9.4 75.048.849 9.383 2.128 16.87 12.167 20.552 41.588 15.252 72.949 46.584 109.443 69.855 40.016 25.517 80.223 50.585 127.995 60.226 20.448 4.127 40.694 9.193 61.57 9.828 44.008 1.338 87.968.107 131.523-6.868 19.5-3.123 38.694-8.133 58.149-11.6 4.87-.868 10.875-.433 15.238 1.7 59.521 29.073 122.183 40.142 188.035 34.026 5.081-.472 10.245-.062 15.37-.062v-355.36c-11.259 1.836-17.417-7.5-25.523-12.141-39.991-22.886-81.679-35.106-128.272-25.614-34.321 6.992-61.783 24.818-85.375 49.725-7.482 7.9-15.63 16.745-23.033 24.718z" fill="#f7e143"/><path class="b" d="M328.232 30c-33.574 11.7-64.881 28.568-97.309 42.876-30.522 13.467-59.49 31.167-90.935 41.6-23.1 7.663-25.192 26.229-29.765 42.145-15.185 52.842-44.745 158.791-44.745 158.791S20.361 447.381 5.101 513.294c-5.623 24.285-2.333 47.9 0 73.683.849 9.383 2.128 16.87 12.167 20.552 41.588 15.252 72.949 46.584 109.443 69.855 40.016 25.517 80.223 50.585 127.995 60.226 20.448 4.127 40.694 9.193 61.57 9.828 44.008 1.338 87.968.107 131.523-6.868 19.5-3.123 38.694-8.133 58.149-11.6 4.87-.868 10.875-.433 15.238 1.7 59.521 29.073 122.183 40.142 188.035 34.026 5.081-.472 10.245-.062 15.37-.062"/><path class="b" d="M157.391 587.807c30.286 41.733 69.739 69.609 119.438 85.061 41.6 12.935 83.069 11.078 124.766 5.559 7.311-.968 14.942-1.29 22.314-2.635m300.682-266.517c-11.259 1.836-17.417-7.5-25.523-12.141-39.991-22.886-81.679-35.106-128.272-25.614-34.321 6.992-61.783 24.818-85.375 49.725-7.482 7.9-14.819 15.934-22.222 23.907M329.086 23.166c5.181 14.65 18.034 23.617 26.643 35.762 13.628 19.225 28.3 37.708 42.552 56.492 9.013 11.882 7.178 23.627-1.822 34.076q-27.636 32.082-56.345 63.237c-14.561 15.842-25.057 15.979-40.928 1.781-5.111-4.572-10.447-8.914-15.3-13.747-2.754-2.745-7.157-2.555-8.406-1.4-13.181 12.178-31.775 8.973-46.341 16.854m-13.665-4.272c18.523 1.224 17.523 17.115 18.322 28.223 3.89 54.026 6.329 108.16 8.888 162.275.574 12.131 5.017 27.906 11.106 38.485"/><path class="b" d="M500.785 513.49c-8.019-38.468-30.843-65.754-64.983-83.595-49.641-25.94-99.584-29.519-152.327-6-25.7 11.459-41.905 25.876-48.078 53.591-2.645 11.877-9.843 24.537-26.756 22.338M632.335 600.62c2.846.575 6.312-1.531 8.527 1.719 20.289 29.77 52.9 30.739 83.729 35.867"/></svg>