<svg xmlns="http://www.w3.org/2000/svg" width="2762.212" height="384.828"><defs><style>.a{fill:none;stroke:#000;stroke-miterlimit:10}</style></defs><path class="a" d="M.379 314.824c3.861-4.473 117.99-145.7 253-119.9 88.561 16.93 72.55 146.912 147.473 160.052 116.255 20.39 167.7-178.444 320.157-189.234 122.828-8.693 154.2 115.78 301.455 111.67 111.955-3.124 123-75.889 229.942-89.666 181.976-23.443 235.97 176.175 431.828 195.285 211.373 20.625 250.948-201.873 475.286-189.234 193.821 10.92 281.968 183.633 462.634 143.026 65.553-14.734 112.877-50.717 139.725-74.814"/><path class="a" d="M5.614 309.645c4.157-4.559 117.762-143.169 251.11-118.392 89.269 16.586 74.323 144.024 150.293 157.828 115.8 20.658 169.373-174.923 321.29-186.036 123.067-9.1 154.47 114.351 301.35 110.154 111.237-3.163 122.217-75.026 228.61-88.555 180.444-23.013 233.812 173.588 427.527 192.261 209.335 20.143 248.845-199.426 470.391-186.888 191.056 10.8 277.4 180.213 455.881 141.114 66.086-14.477 113.826-50.294 140.2-73.949"/><path class="a" d="M10.85 304.47c4.452-4.645 117.541-140.654 249.219-116.888 89.982 16.24 76.052 141.376 153.114 155.6 115.279 21.283 171.046-171.4 322.421-182.837 123.306-9.507 154.738 112.922 301.245 108.636 110.521-3.2 121.437-74.161 227.28-87.443 178.91-22.583 231.653 171 423.225 189.238 207.3 19.66 246.742-196.981 465.495-184.543 188.291 10.681 272.852 176.824 449.129 139.2 66.622-14.218 114.774-49.87 140.676-73.085"/><path class="a" d="M16.085 299.296c4.747-4.731 117.327-138.162 247.329-115.386 90.7 15.891 77.8 138.6 155.934 153.381 114.794 21.711 172.72-167.881 323.554-179.639 123.545-9.914 155.006 111.494 301.14 107.12 109.8-3.239 120.655-73.3 225.948-86.332 177.377-22.153 229.495 168.415 418.924 186.214 205.259 19.177 244.639-194.534 460.6-182.2 185.526 10.562 268.309 173.464 442.376 137.29 67.162-13.957 115.723-49.446 141.152-72.221"/><path class="a" d="M21.32 294.124c5.043-4.817 117.121-135.691 245.438-113.882 91.42 15.538 79.553 135.825 158.756 151.156 114.308 22.128 174.394-164.359 324.685-176.439 123.785-10.322 155.274 110.065 301.036 105.6 109.085-3.277 119.873-72.434 224.617-85.22 175.843-21.723 227.336 165.829 414.622 183.19 203.221 18.695 242.536-192.087 455.705-179.851 182.761 10.443 263.777 170.135 435.622 135.379 67.707-13.694 116.673-49.023 141.629-71.358"/><path class="a" d="M26.555 288.947c5.338-4.9 116.92-133.241 243.548-112.379 92.146 15.181 81.3 133.042 161.576 148.932 113.825 22.532 176.068-160.838 325.818-173.241 124.023-10.729 155.541 108.637 300.93 104.085 108.368-3.314 119.093-71.569 223.286-84.108 174.31-21.293 225.178 163.242 410.321 180.166 201.183 18.213 240.433-189.64 450.81-177.505 179.995 10.323 259.255 166.835 428.869 133.467 68.254-13.428 117.622-48.6 142.1-70.494"/><path class="a" d="M31.791 283.773c5.633-4.989 116.724-130.812 241.657-110.876 92.875 14.821 83.053 130.255 164.4 146.708 113.341 22.925 177.769-157 326.949-170.042 124.287-10.869 155.81 107.208 300.826 102.568 107.651-3.353 118.311-70.706 221.955-83 172.776-20.863 223.019 160.656 406.018 177.142 199.146 17.731 238.331-187.193 445.915-175.159 177.231 10.2 254.744 163.563 422.117 131.555 68.8-13.158 118.57-48.175 142.58-69.63"/><path class="a" d="M37.026 278.598c5.929-5.075 116.536-128.4 239.767-109.372 93.608 14.456 84.8 127.463 167.217 144.484 112.86 23.308 179.448-153.431 328.081-166.844 124.531-11.237 156.078 105.78 300.722 101.051 106.933-3.391 117.529-69.841 220.623-81.885 171.243-20.433 220.861 158.07 401.717 174.118 197.109 17.249 236.228-184.747 441.02-172.813 174.465 10.085 250.241 160.32 415.364 129.643 69.357-12.885 119.519-47.751 143.056-68.766"/><path class="a" d="M42.261 273.424c6.224-5.161 116.353-126.014 237.877-107.869 94.341 14.086 86.553 124.669 170.041 142.259 112.379 23.682 181.126-149.868 329.213-163.644 124.774-11.608 156.345 104.351 300.617 99.534 106.215-3.429 116.748-68.978 219.292-80.774 169.709-20 218.7 155.483 397.415 171.094 195.071 16.767 234.125-182.3 436.125-170.467 171.7 9.965 245.746 157.1 408.611 127.731 69.914-12.609 120.468-47.327 143.532-67.9"/><path class="a" d="M47.497 268.249c6.519-5.247 116.174-123.644 235.986-106.366 95.085 13.713 88.3 121.867 172.858 140.036 111.9 24.045 182.8-146.308 330.345-160.446 125.018-11.98 156.614 102.923 300.512 98.017 105.5-3.467 115.967-68.114 217.961-79.662 168.177-19.573 216.544 152.9 393.114 168.071 193.033 16.284 232.022-179.854 431.229-168.122 168.936 9.846 241.261 153.917 401.859 125.819 70.474-12.33 121.417-46.9 144.007-67.038"/><path class="a" d="M52.732 263.075c6.814-5.333 116-121.294 234.1-104.863 95.825 13.334 90.047 119.062 175.675 137.812 111.422 24.4 184.483-142.75 331.477-157.247 125.261-12.354 156.881 101.494 300.407 96.5 104.781-3.506 115.185-67.25 216.63-78.551 166.643-19.143 214.384 150.31 388.812 165.047 190.995 15.8 229.919-177.407 426.334-165.776 166.17 9.727 236.783 150.756 395.106 123.907 71.037-12.046 122.366-46.48 144.483-66.174"/><path class="a" d="M57.967 257.9c7.11-5.419 115.832-118.962 232.205-103.359 96.578 12.949 91.8 116.252 178.5 135.588 110.946 24.744 186.162-139.195 332.609-154.049 125.506-12.729 157.149 100.066 300.3 94.983 104.063-3.543 114.4-66.386 215.3-77.439 165.11-18.713 212.226 147.724 384.511 162.023 188.957 15.32 227.816-174.96 421.439-163.43 163.405 9.607 232.313 147.622 388.353 121.995 71.6-11.759 123.314-46.056 144.959-65.309"/><path class="a" d="M63.203 252.724c7.4-5.505 115.668-116.65 230.314-101.856 97.329 12.559 93.557 113.438 181.321 133.363 110.47 25.083 187.841-135.64 333.741-150.847 125.75-13.108 157.418 98.637 300.2 93.465 103.346-3.581 113.645-65.319 213.967-76.327 163.614-17.953 210.068 145.137 380.21 159 186.919 14.838 225.713-172.514 416.544-161.084 160.64 9.488 227.85 144.513 381.6 120.084 72.172-11.468 124.263-45.633 145.434-64.446"/><path class="a" d="M68.438 247.552c7.7-5.592 115.508-114.356 228.424-100.353 98.084 12.163 95.309 110.619 184.141 131.139 110 25.409 189.518-132.092 334.873-147.651 125.993-13.487 157.685 97.208 300.093 91.949 102.629-3.62 112.864-64.442 212.636-75.216 162.081-17.5 207.909 142.551 375.908 155.975 184.881 14.356 223.61-170.067 411.648-158.738 157.875 9.369 223.4 141.431 374.848 118.172 72.743-11.172 125.212-45.209 145.91-63.582"/><path class="a" d="M73.673 242.377c8-5.677 115.353-112.079 226.534-98.849 98.841 11.761 97.061 107.8 186.962 128.915 109.524 25.73 191.2-128.544 336-144.452 126.241-13.867 157.957 95.779 299.993 90.433 101.911-3.657 112.084-63.565 211.3-74.1 160.55-17.053 205.751 139.964 371.607 152.951 182.843 13.874 221.507-167.62 406.753-156.392 155.11 9.249 218.946 138.373 368.095 116.26 73.318-10.871 126.161-44.785 146.386-62.718"/><path class="a" d="M78.908 237.203c8.291-5.764 115.2-109.82 224.644-97.347 99.6 11.353 98.815 104.967 189.783 126.692 109.052 26.043 192.873-125 337.136-141.254 126.48-14.251 158.221 94.351 299.883 88.915 101.194-3.7 111.3-62.69 209.974-72.993 159.017-16.6 203.592 137.378 367.305 149.927 180.806 13.392 219.4-165.173 401.858-154.046 152.344 9.13 214.5 135.341 361.342 114.348 73.9-10.564 127.109-44.361 146.862-61.854"/><path class="a" d="M84.144 232.024c8.586-5.849 115.052-107.578 222.752-95.843 100.367 10.937 100.57 102.134 192.6 124.467 108.583 26.349 194.552-121.456 338.268-138.055 126.724-14.636 158.489 92.923 299.779 87.4 100.476-3.734 110.523-61.814 208.642-71.881 157.485-16.158 201.434 134.791 363 146.9 178.768 12.909 217.3-162.727 396.962-151.7 149.58 9.011 210.066 132.332 354.59 112.436 74.474-10.253 128.058-43.937 147.337-60.99"/><path class="a" d="M89.379 226.854c8.881-5.936 114.908-105.354 220.862-94.34 101.133 10.513 102.325 99.3 195.425 122.243 108.114 26.648 196.229-117.916 339.4-134.856 126.968-15.023 158.757 91.494 299.675 85.881 99.759-3.772 109.742-60.94 207.311-70.77 155.952-15.713 199.275 132.2 358.7 143.88 176.73 12.427 215.2-160.281 392.067-149.355 146.815 8.891 205.635 129.348 347.837 110.524 75.057-9.935 129.007-43.513 147.813-60.126"/><path class="a" d="M94.614 221.68c9.177-6.022 114.767-103.147 218.972-92.837 101.9 10.082 104.081 96.453 198.245 120.019 107.648 26.94 197.907-114.378 340.532-131.658 127.21-15.412 159.025 90.066 299.569 84.364 99.042-3.81 108.962-60.065 205.98-69.658 154.42-15.269 197.117 129.619 354.4 140.856 174.692 11.945 213.1-157.834 387.172-147.009 144.049 8.772 201.208 126.387 341.084 108.612 75.641-9.611 129.956-43.09 148.289-59.262"/><path class="a" d="M99.85 216.505c9.472-6.108 114.627-100.955 217.081-91.333 102.674 9.642 105.838 93.6 201.066 117.795 107.182 27.226 199.582-110.843 341.663-128.459 127.454-15.8 159.293 88.637 299.465 82.846 98.324-3.848 108.18-59.192 204.649-68.546 152.887-14.826 194.958 127.032 350.1 137.832 172.654 11.462 210.992-155.387 382.277-144.663 141.284 8.653 196.787 123.449 334.331 106.7 76.228-9.282 130.905-42.667 148.764-58.4"/><path class="a" d="M105.085 211.331c9.767-6.194 114.492-98.78 215.191-89.83 103.449 9.193 107.6 90.753 203.886 115.57 106.718 27.506 201.262-107.309 342.8-125.26 127.7-16.195 159.56 87.209 299.36 81.33 97.607-3.886 107.4-58.32 203.317-67.435 151.354-14.384 192.8 124.446 345.8 134.808 170.617 10.98 208.89-152.94 377.382-142.317 138.52 8.533 192.371 120.533 327.579 104.789 76.817-8.946 131.853-42.243 149.24-57.535"/><path class="a" d="M110.32 206.156c10.063-6.28 114.359-96.619 213.3-88.327 104.226 8.736 109.355 87.9 206.707 113.347 106.255 27.779 202.938-103.778 343.927-122.061 127.94-16.591 159.828 85.78 299.255 79.812 96.89-3.924 106.618-57.447 201.987-66.323 149.82-13.944 190.641 121.859 341.495 131.784 168.579 10.5 206.787-150.493 372.487-139.971 135.754 8.414 187.959 117.64 320.826 102.877 77.408-8.6 132.8-41.819 149.716-56.67"/><path class="a" d="M115.555 200.982c10.358-6.366 114.228-94.476 211.411-86.824 105 8.268 111.116 85.033 209.527 111.123 105.794 28.047 204.615-100.25 345.059-118.863 128.183-16.987 160.1 84.352 299.151 78.3 96.172-3.962 105.837-56.577 200.655-65.212 148.288-13.505 188.483 119.273 337.194 128.76 166.541 10.016 204.684-148.046 367.592-137.625 132.989 8.3 183.55 114.769 314.073 100.965 78-8.249 133.751-41.4 150.192-55.806"/><path class="a" d="M120.791 195.808c10.653-6.453 114.1-92.347 209.519-85.321 105.787 7.789 112.879 82.166 212.349 108.9 105.333 28.309 206.291-96.724 346.191-115.664 128.424-17.387 160.364 82.923 299.046 76.778 95.454-4 105.055-55.706 199.324-64.1 146.753-13.067 186.324 116.686 332.892 125.737 164.5 9.533 202.581-145.6 362.7-135.28 130.224 8.175 179.146 111.919 307.32 99.053 78.6-7.889 134.7-40.971 150.668-54.942"/><path class="a" d="M126.026 190.633c10.948-6.538 113.972-90.232 207.629-83.817 106.57 7.3 114.642 79.293 215.169 106.674 104.875 28.566 207.968-93.2 347.323-112.465 128.667-17.787 160.632 81.494 298.941 75.262 94.738-4.039 104.274-54.838 197.993-62.989 145.22-12.631 184.166 114.1 328.591 122.713 162.466 9.051 200.478-143.154 357.8-132.933 127.459 8.055 174.745 109.089 300.567 97.14 79.194-7.52 135.65-40.547 151.144-54.078"/><path class="a" d="M131.261 185.459c11.244-6.625 113.847-88.133 205.739-82.314 107.355 6.8 116.406 76.415 217.99 104.45 104.418 28.818 209.643-89.679 348.455-109.266 128.908-18.191 160.9 80.065 298.836 73.744 94.02-4.076 103.492-53.969 196.662-61.877 143.686-12.2 181.991 111.8 324.289 119.689 160.41 8.893 198.375-140.707 352.906-130.587 124.694 7.936 170.347 106.28 293.814 95.228 79.793-7.142 136.6-40.123 151.62-53.214"/><path class="a" d="M136.497 180.284c11.539-6.71 113.723-86.048 203.848-80.81 108.142 6.284 118.172 73.532 220.81 102.226 103.963 29.064 211.319-86.16 349.587-106.068 129.15-18.595 161.168 78.637 298.732 72.227 93.3-4.114 102.71-53.1 195.33-60.765 142.152-11.763 179.834 109.218 319.988 116.665 158.373 8.416 196.272-138.26 348.011-128.241 121.928 7.816 165.951 103.492 287.061 93.316 80.393-6.754 137.547-39.7 152.095-52.35"/><path class="a" d="M141.732 175.11c11.834-6.8 113.6-83.977 201.958-79.308 108.93 5.757 119.94 70.645 223.631 100 103.508 29.306 212.994-82.643 350.718-102.869 129.392-19 161.436 77.208 298.627 70.71 92.586-4.153 101.929-52.235 194-59.654 140.617-11.332 177.675 106.634 315.686 113.641 156.336 7.938 194.169-135.813 343.115-125.9 119.164 7.7 161.559 100.724 280.309 91.405 81-6.357 138.5-39.277 152.571-51.487"/><path class="a" d="M146.967 169.935c12.13-6.882 113.527-72.8 200.068-77.8 109.66-6.341 121.709 67.752 226.451 97.778 103.056 29.544 214.669-79.128 351.851-99.67 129.632-19.412 161.7 75.78 298.522 69.193 91.868-4.19 101.147-51.369 192.668-58.542 139.083-10.9 175.518 104.05 311.385 110.617 154.3 7.459 192.067-133.367 338.22-123.549 116.4 7.578 157.168 97.975 273.556 89.493 81.6-5.947 139.445-38.853 153.047-50.623"/><path class="a" d="M152.203 164.761c12.424-6.968 113.456-70.9 198.176-76.3 110.385-7.032 123.481 64.853 229.273 95.554 102.6 29.777 216.343-75.615 352.982-96.471 129.873-19.824 161.972 74.351 298.418 67.676 91.15-4.229 100.364-50.505 191.337-57.431 137.548-10.473 173.359 101.465 307.083 107.593 152.261 6.979 189.964-130.92 333.325-121.2 113.633 7.458 152.779 95.245 266.8 87.581 82.2-5.526 140.393-38.429 153.522-49.759"/><path class="a" d="M157.438 159.587c12.72-7.055 113.384-69.048 196.286-74.8 111.11-7.707 125.254 61.949 232.094 93.33 102.154 30.005 218.017-72.1 354.114-93.273 130.113-20.237 162.239 72.923 298.312 66.159 90.433-4.267 99.583-49.641 190.006-56.319 136.014-10.046 171.2 98.878 302.782 104.57 150.224 6.5 187.861-128.474 328.429-118.858 110.869 7.339 148.392 92.534 260.051 85.669 82.807-5.092 141.342-38.005 154-48.895"/><path class="a" d="M162.673 154.412c13.016-7.14 113.309-67.23 194.4-73.294 111.837-8.364 127.029 59.04 234.914 91.106 101.706 30.229 219.691-68.6 355.246-90.074 130.353-20.653 162.508 71.494 298.208 64.642 89.716-4.305 98.8-48.779 188.675-55.208 134.478-9.621 169.044 96.291 298.48 101.546 148.187 6.015 185.758-126.027 323.534-116.512 108.1 7.22 144.006 89.842 253.3 83.757 83.413-4.644 142.291-37.581 154.474-48.03"/><path class="a" d="M167.908 149.238c13.311-7.227 113.231-65.451 192.506-71.792 112.564-9 128.8 56.126 237.735 88.883 101.259 30.45 221.364-65.092 356.378-86.876 130.592-21.071 162.775 70.066 298.1 63.125 89-4.343 98.018-47.917 187.343-54.1 132.944-9.2 166.887 93.7 294.179 98.522 146.15 5.532 183.655-123.58 318.639-114.166 105.338 7.1 139.685 75.338 246.545 81.845 83.968 5.114 143.24-37.157 154.95-47.166"/><path class="a" d="M173.144 144.063c13.606-7.312 113.148-63.708 190.615-70.288 113.294-9.622 130.583 53.206 240.555 86.658 100.814 30.667 223.037-61.587 357.51-83.677 130.832-21.491 163.043 68.638 298 61.608 88.28-4.381 97.235-47.056 186.012-52.984 131.408-8.775 164.729 91.114 289.877 95.5 144.113 5.048 181.552-121.134 313.744-111.82 102.573 6.981 135.362 73.033 239.792 79.933 84.524 5.585 144.189-36.733 155.425-46.3"/><path class="a" d="M178.379 138.889c13.9-7.4 113.062-62 188.725-68.785 114.026-10.22 132.363 50.28 243.376 84.434 100.37 30.88 224.709-58.086 358.641-80.478 131.071-21.914 163.312 67.209 297.894 60.091 87.564-4.419 96.453-46.2 184.681-51.873 129.874-8.355 162.572 88.524 285.575 92.474 142.078 4.563 179.45-118.687 308.849-109.474 99.808 6.862 131.035 70.781 233.04 78.021 85.081 6.04 145.137-36.309 155.9-45.438"/><path class="a" d="M183.614 133.715c14.2-7.485 112.97-60.333 186.834-67.282 114.762-10.8 134.147 47.349 246.2 82.21 99.928 31.089 226.382-54.587 359.774-77.28 131.308-22.338 163.579 65.78 297.789 58.574 86.846-4.457 95.671-45.339 183.35-50.761 128.338-7.937 160.414 85.933 281.273 89.45 140.041 4.076 177.347-116.24 303.954-107.128 97.043 6.742 126.7 68.579 226.287 76.11 85.639 6.476 146.086-35.887 156.377-44.575"/><path class="a" d="M188.85 128.54c14.491-7.571 112.873-58.7 184.943-65.778 115.5-11.348 135.931 44.413 249.018 79.986 99.487 31.294 228.053-51.089 360.9-74.081 131.546-22.766 163.847 64.351 297.685 57.057 86.128-4.5 94.888-44.483 182.018-49.65 126.8-7.52 158.257 83.34 276.972 86.426 138 3.588 175.244-113.793 299.059-104.782 94.277 6.623 122.358 66.426 219.534 74.2 86.2 6.894 147.035-35.463 156.852-43.711"/><path class="a" d="M194.085 123.366c14.787-7.657 112.77-57.1 183.053-64.275 116.242-11.874 137.718 41.471 251.838 77.761 99.048 31.5 229.725-47.593 362.038-70.882 131.782-23.2 164.115 62.923 297.579 55.54 85.411-4.533 94.106-43.628 180.688-48.538 125.267-7.1 156.1 80.746 272.67 83.4 135.967 3.1 173.141-111.347 294.163-102.437 91.513 6.5 118.01 64.321 212.782 72.286 86.764 7.292 147.984-35.039 157.328-42.847"/><path class="a" d="M199.32 118.191c15.083-7.743 112.661-55.528 181.163-62.772 116.988-12.371 139.507 38.524 254.659 75.538 98.609 31.7 231.4-44.1 363.169-67.683 132.019-23.627 164.383 61.494 297.475 54.023 84.694-4.572 93.323-42.774 179.356-47.427 123.732-6.692 153.942 78.151 268.369 80.379 133.931 2.607 171.038-108.9 289.268-100.091 88.748 6.384 113.652 62.263 206.029 70.374 87.331 7.668 148.932-34.615 157.8-41.983"/><path class="a" d="M204.555 113.017c15.378-7.829 112.545-53.992 179.273-61.269 117.738-12.839 141.3 35.57 257.479 73.314 98.173 31.893 233.065-40.609 364.3-64.485 132.256-24.061 164.651 60.066 297.371 52.506 83.976-4.61 92.54-41.921 178.024-46.315 122.2-6.281 151.785 75.555 264.068 77.355 131.894 2.114 168.935-106.454 284.373-97.745 85.982 6.265 109.285 60.251 199.276 68.462 87.9 8.02 149.881-34.191 158.279-41.119"/><path class="a" d="M209.791 107.843c15.673-7.916 112.421-52.488 177.382-59.766 118.494-13.275 143.091 32.611 260.3 71.09 97.738 32.086 234.734-37.12 365.433-61.286 132.49-24.5 164.919 58.637 297.265 50.988 83.259-4.647 91.758-41.07 176.694-45.2 120.661-5.872 149.627 72.957 259.766 74.331 129.857 1.62 166.832-104.007 279.478-95.4 83.217 6.146 104.908 58.284 192.523 66.55 88.474 8.348 150.83-33.767 158.755-40.254"/><path class="a" d="M215.026 102.668c15.968-8 112.289-51.014 175.491-58.262 119.256-13.676 144.888 29.646 263.121 68.865 97.3 32.277 236.4-33.632 366.565-58.087 132.725-24.936 165.187 57.209 297.161 49.472 82.541-4.686 90.975-40.221 175.362-44.092 119.126-5.465 147.47 70.358 255.465 71.307 127.821 1.124 164.729-101.56 274.582-93.053 80.453 6.026 100.521 56.361 185.771 64.638 89.051 8.647 151.779-33.343 159.231-39.39"/><path class="a" d="M220.261 97.494c16.264-8.088 112.149-49.572 173.6-56.759 120.024-14.039 146.686 26.675 265.942 66.641 96.873 32.465 238.071-30.147 367.7-54.888 132.959-25.378 165.454 55.78 297.056 47.954 81.824-4.724 90.192-39.373 174.031-42.98 117.59-5.06 145.312 67.757 251.163 68.283 125.784.626 162.626-99.113 269.687-90.707 77.687 5.907 96.121 54.48 179.018 62.727 89.634 8.917 152.728-32.92 159.707-38.527"/><path class="a" d="M225.497 92.324c16.559-8.173 111.64-52.538 171.71-55.255 121.525-5.5 148.487 23.7 268.762 64.417 96.443 32.649 239.739-26.664 368.829-51.69 133.193-25.821 165.723 54.352 296.951 46.438 81.107-4.762 89.41-38.527 172.7-41.869 116.055-4.657 143.155 64.957 246.862 65.259 123.747-.11 160.523-96.666 264.792-88.361 74.922 5.787 91.708 52.64 172.264 60.815 90.222 9.155 153.677-32.5 160.183-37.663"/><path class="a" d="M230.732 87.145c16.854-8.26 111.5-50.667 169.82-53.753 122.288-6.471 150.291 20.717 271.583 62.194 96.013 32.832 241.406-23.183 369.96-48.491 133.426-26.268 165.991 52.923 296.847 44.92 80.389-4.8 88.627-37.683 171.369-40.757 114.519-4.256 141 62.371 242.56 62.236 121.709-.593 158.42-94.221 259.9-86.016 72.157 5.668 87.283 50.842 165.512 58.9 90.814 9.358 154.626-32.073 160.659-36.8"/><path class="a" d="M235.967 81.97c17.15-8.345 111.361-48.8 167.93-52.249 123.043-7.493 152.1 17.729 274.4 59.969 95.585 33.012 243.072-19.7 371.092-45.292 133.657-26.716 166.258 51.495 296.742 43.4 79.672-4.839 87.844-36.841 170.037-39.646 112.984-3.857 138.838 59.784 238.259 59.212 119.671-1.075 156.317-91.774 255-83.67 69.392 5.549 82.494 53.873 158.759 56.991 91.83 3.754 155.575-31.649 161.135-35.935"/><path class="a" d="M241.203 76.796c17.444-8.431 111.214-46.951 166.039-50.746 123.79-8.569 153.906 14.735 277.224 57.745 95.16 33.189 244.689-16.471 372.224-42.093 133.836-27.426 166.527 50.065 296.637 41.886 78.955-4.876 87.058-36.147 168.707-38.534 111.442-3.662 136.679 57.2 233.957 56.188 117.633-1.557 154.214-89.327 250.106-81.324 66.627 5.429 78.073 51.413 152.006 55.079 92.407 4.582 156.524-31.225 161.61-35.071"/><path class="a" d="M246.438 71.624c17.74-8.518 111.063-45.107 164.149-49.243 124.526-9.7 155.717 11.734 280.045 55.521 94.735 33.364 246.362-12.95 373.356-38.895 134.075-27.833 166.794 48.637 296.532 40.37 78.237-4.915 86.276-35.284 167.375-37.423 109.909-3.232 134.521 54.611 229.656 53.164 115.6-2.039 152.111-86.88 245.211-78.978 63.861 5.31 73.643 48.966 145.253 53.167 92.977 5.455 157.472-30.8 162.086-34.207"/><path class="a" d="M251.673 66.447c18.035-8.6 110.9-43.27 162.258-47.739 125.25-10.9 157.532 8.728 282.866 53.3 94.312 33.537 248.036-9.429 374.488-35.7 134.315-28.24 167.062 47.209 296.428 38.853 77.519-4.953 85.494-34.419 166.044-36.311 108.376-2.8 132.362 52.025 225.353 50.14 113.559-2.521 150.009-84.433 240.316-76.632 61.1 5.191 69.206 46.531 138.5 51.255 93.538 6.378 158.421-30.377 162.562-33.343"/><path class="a" d="M256.908 61.273c18.331-8.69 110.741-41.443 160.368-46.236 125.959-12.166 159.35 5.716 285.687 51.072 93.89 33.709 249.709-5.907 375.619-32.5 134.554-28.647 167.331 45.78 296.323 37.335 76.8-4.99 84.714-33.555 164.713-35.2 106.843-2.372 130.2 49.438 221.052 47.116 111.521-3 147.906-81.987 235.421-74.286 58.331 5.071 64.758 44.107 131.748 49.343 94.088 7.355 159.37-29.953 163.038-32.479"/><path class="a" d="M262.144 56.098c18.626-8.775 110.569-39.623 158.477-44.733 126.651-13.508 161.22 2.56 288.507 48.849 93.508 33.776 251.384-2.386 376.752-29.3 134.793-29.054 167.6 44.352 296.218 35.819 76.085-5.029 83.932-32.692 163.382-34.088 105.309-1.942 128.045 46.852 216.75 44.092 109.483-3.486 145.8-79.54 230.526-71.94 55.566 4.952 60.3 41.695 124.995 47.432 94.625 8.39 160.319-29.53 163.513-31.615"/><path class="a" d="M2271.652 15.787c-2.721 1.645-68.841 40.243-163.989 30.751-62.413-6.227-65.441-40.687-118.243-45.52-81.93-7.5-118.185 65.626-225.63 69.595-86.562 3.2-108.673-42.581-212.449-41.069-78.9 1.149-86.683 27.909-162.05 32.976-128.248 8.622-161.081-63.763-296.114-34.3-124.826 27.235-284.831 60.143-377.883 26.1C586.959 7.368 551.289-7.239 423.966 7.695c-46.2 5.419-137.666 34.368-156.587 43.23"/></svg>