<svg xmlns="http://www.w3.org/2000/svg" width="2081.82" height="162.699"><defs><style>.a{fill:#fff}</style></defs><path class="a" d="M2030.59 52.469c4.71-.6 8.84 2.48 7.08 3.89 9.57-3.84 9.81.44 11-6.86 6.13-3.63 12.74 1.28 5.75 4.29l17.73-4.6-10.63-1c2.85-6.09 17 1.69 20.3-5.41l-19.22.73.94-2c-4.36 2.2-12.87 1.36-15.84.54.46-1 .15-2.63 3.54-2.83-23.22-.29-6.17 10.65-25.42 12.81a11.779 11.779 0 014.77.44zm-19.83-14.7l-8 7.66-13.6-1.86c-.13 2.63-10 4.82-3.29 7.08a16.141 16.141 0 016-1c-1.47 5.68-18 3-14 8.68 10.73-1.59 12.39-.35 19-5 9.85.46 17 1.71 21.65 3.74 2.92-.88 3.3-4.36 7-5.08-.82.09-1.57.18-2.52.23l-.57-8.58c-3.09 1.83-6 1-9.46 1.2l15.83-10.08c-5.19-7.95-20.78-3.15-27.05-6.42 7.82 7.18-6.11 3.67 9.01 9.43z"/><path class="a" d="M2025.43 51.989h.39a1.276 1.276 0 00-.39 0zm-1188 54.3a5.07 5.07 0 00-4.88 3.17l38.09-.06c-1.19-2.25-12.15-5-4.82-6.37-3.26-2.49-13.22-.39-14.68 2.63l2.77-3.41c-8.78 4.36-14.75-4.26-9-6.83l-.73.05-24.35 16.78c8.94 1.01 6.91-5.78 17.6-5.96zM55.67 92.499c4.94-.74 5.55-1.55 5-2.38a20.259 20.259 0 00-5 2.38zm758.48 23.69l-7.63 5.25a25.94 25.94 0 007.63-5.25zm52.93-80.06a1.34 1.34 0 00-.1-.9l-3.42 2.69h.09c1.25-.6 2.39-1.19 3.43-1.79zm-225.8 98.93c-.82.14-1.53.19-2.5.36a11.939 11.939 0 002.5-.36zm328.87-128.9l-16.91 5.05c2.25-2.4-5.9-1.69-2.34-4.49-1.29.38-7.33 1.33-5.68 2.56l3.45-.14c-8.92 7-3.53 9.67-18.32 15 9.18 4.17 13.21.37 18.07-2.81a42.182 42.182 0 014.43-1l14.06-9.76zm-678.44 48.33l.19-.54a.69.69 0 00-.19.54zm.94-2.78l-.75 2.24c.92-1.11 4.41-2.16.75-2.24zm524.31 59.93a9.639 9.639 0 01-2.81 4.52l5.7-3.94a27.3 27.3 0 01-2.89-.58z"/><path class="a" d="M829.93 96.419l14.27-.95 5.26-3.62c-5.46 1.36-11.84 2.28-19.53 4.57zm-166.15 42.92c-29.54.86 7.29-8.18-6.27-10.26-8.21.91-11.12 4.79-16.23 6 23.44-3.17-3.24 12.86 20.39 10.95-3.39 7.05-17.07 7.58-25.08 5.61-9-6.87 7.95-4.93 10-11.59-9.48 1-7.82 2.29-11.86 6.06-14.88-1.69-30.84 8.15-39.68-1.36-10.79 1.43-10.09 4.69-16.31 8.24-1.27 7.28 16 3.94 20 9.71-.82-.62-2.43-1.87-2-2.89l9.3 1.61c-8.83-2.61 1.27-7.28 6-7.82 3.44-.13 10.27-.4 9.32 1.61l-5.21 1.53c6.69 2.35 14.81-5.21 21.86-1.21.37 1.64-2.32 2.39-2.73 3.4 8-4.93 15.6-4.57 27.35-8l-6.83 7.18c9.42-7.94 30.67-5.51 45.38-1.18-1.63-1.24-4.57-2.12-2.8-3.5 8.67-1.67 15.18 3.34 11.15 7.12 8.47-5.91 32.22 5.2 43.78-2.54l53.15-36.54a22.3 22.3 0 01-6.3 2c-4.8-6.36-7.4-5.6 1.07-11.55-8.3 3.32-5.15 8.43-17.61 8.65 4.9-3.18 6.16-10.46-5.76-11.26-14.92 3.11-27.34 9.16-39.52 15.57s-24.12 13.17-38 17.67c-1-4.89-22.87-3.68-33.48-4.91 4.08-5.22 12-6.66 20.15-7.66-5.13-.37-14-.58-20.52-.85z"/><path class="a" d="M733.06 123.359a9.615 9.615 0 00-2.3-.92 4.19 4.19 0 002.3.92zm-43.55 6.72a1.4 1.4 0 00.11-.53l-2.6.36c.88.04 1.87.11 2.49.17zm120.5-29.44c1.78-1.4 3.09-1.78 4.86-3.19-1.09.48-2.46.85-3.78 1.27-1.25.63-1.85 1.29-1.08 1.92zm5.94 8.58l-1 2c.76.23 1.29.28 2 .44a2 2 0 00-1-2.44zm-264.81-14.92l-2.84 1c1.71-.03 2.44-.46 2.84-1zm79.78 36.5c10.27-.4 1.26-7.29 15.79-7.22l-4.26-.48c10.44-3 28.75-1.48 41.14-1.65-1.41 2.9 7.5 3.6 6 8.1 8.47-1 16.86-1.94 21.25-6.57 5.23 1.57 13.22-2.49 19.89-.54-2.81-2.75 9.54-9.2-6.71-5.93 1.31-.37.49-1 1.79-1.37-10.45-3.85-14.67 2.55-23.68 2.59-5.37-2.74 8.83-4.29 3.76-5.41-11.26 2.43-35.28-3.5-34.59 6.65-8.18.66-9.3-1.59-11.74-3.46-13 10.71-48-5-48 8.83 4.73-.51 12.43-.16 19.38-3.07zm161.84-29.54a15.227 15.227 0 01-2-.15c.59.07 1.32.12 2 .15zm129.59 40.38l-4.31 9c-24.49 2.13-33.34-.42-54.74-.13-1.64-1.24 1-2 2.28-2.41-15.05 1-37.56-.94-48.53 3.18-4.79-.08-17.35-3-12.59-5.63a18 18 0 01-7.67 1.25c-.7-3.25 6-.9 6.16-3.56-2.12-.23-3-.86-3.44.16 3.58-2.79-3.67-11 13-10.77 6.43 7.6-11.56.85-7.78 9.23 5.53.07 4.9-3.17 5.38-4.19 7 .21 6.85 2.31 6.47 4.22 2.71-2.59 11.56 1 15.3-2.89 13.7-.61-.77 6.29 8.18 6.21l5.18-8.46 14.88 1.64c21.54-2.93-3-14.66 21.57-19.39-3.24 4.41 6.62 11.88 18.07 13.66-6.86.31-19.54 5.8-28.38 3.26 12.46 6.67-17.17.75-10.72 8.37 6.18-3.58 16.46-4 24.47-2.08l-2.63.77c8.53.93 15-7.93 26.76-4.53 5.84-.27 4.75 2.13 3.72 4.11 4.93-1.28 9.36-2.93 9.37-1.02zm-12.74 1.76l-7.82-.85c1.85 1.36 4.77 1.32 7.82.81zm991.82-103.76c.78.22 1.68.43 2.38.67a5.259 5.259 0 00-2.38-.67zm-693.38.53l4.53.27a21.918 21.918 0 00-4.53-.27zm101.45-28.3l6.6-2a14.709 14.709 0 00-6.6 2zm538.01 27.61l-.22-.06c-.37.15-.65.34-1 .46zm-334.27-8.7a13 13 0 003.69 1.86c-.19-.85-1.57-1.45-3.69-1.86zm-204.95-18.54c.16.08.26.1.4.16a9.439 9.439 0 01.81-.53zm-145.01 3.31c-1 .27-1.85.48-2.89.84a7.87 7.87 0 002.89-.84zm6.42 24.01a13.137 13.137 0 00-2.81.85zm-156.44-16.32l-6.08 1.22a15.739 15.739 0 006.08-1.22zm140.31 10.81a8.7 8.7 0 00-.94 1.16c.8-.27 1.24-.77.94-1.16zm786.86 30.59h-.37l-.15 1zm14.69-12.44c1.74-.27 3.56-.5 5.34-.74a16.1 16.1 0 00-5.34.74zm-353.31-8.29c1.62 1.22 5.41 2.66 3.65 4.07 3.08-1.79 2.85-6.08-3.65-4.07zm309.26 74.02a17.629 17.629 0 013.36-2.91c-2.24 1.25-4.21 2.28-3.36 2.91zm3.36-2.91c1.11-.62 2.3-1.27 3.29-1.94a21.539 21.539 0 00-3.29 1.94zm-353.26-.52a2.82 2.82 0 00-1.87-1.2 1.38 1.38 0 001.87 1.2zm403.63-61.71c.94-2 24.19-6.59 4.6-7.48.71-6.29 12.54-3 17.75-4.6-3.8-1.44 1.86-4.05.69-6.29-2.58.79-5.65 2.61-9.93 2.2-2-2.86 4.49-4.86 9.57-3.82-6.27-3.28 7.89-5-1-7.53-18.89 2.36-32.23 4.75-45.45 14 10.76-1.59 22.8-3.56 31.66-1.1l-3.65 5.47c-10-4.72-16.16-1.1-26-1.53l22.09 2.72c10.37 4.45 3.46 5.55-4.68 6.59 1.98.1 3.83.41 4.35 1.37zm-14.52 47.85l.37.15a3.872 3.872 0 00.93-.55zm-935.9 32.69l-1.89 2.06c1.58-.93 2.07-1.57 1.89-2.06zm922.55-58.95c-.14.06-.17.06 0 0zm-875.35 59.37a2.647 2.647 0 01-.25.46c.17-.16.17-.32.25-.46zm12.52-117.32a1.92 1.92 0 00-.31-.73c-1.01.3-.52.56.31.73zm-12.48 116.81a1.291 1.291 0 010 .51c0-.18.08-.35 0-.51zm229.4-20.45a11.79 11.79 0 00-1.87-1.83c-.44.5 0 1.09 1.87 1.83zm-45.31-7.91a9.256 9.256 0 00-.82-.6zm345.25-85.4a26.341 26.341 0 00-5.34.32 18.368 18.368 0 005.34-.32zm-529.63 114.73a10.093 10.093 0 01-2.26 1.91 8.371 8.371 0 002.26-1.91zm298.62-49.16c-.48.21-.93.42-1.38.6.27.11.55.15.82.27zm23.65 3.91a8.619 8.619 0 00-1.62 1.82c8.42-2.3 23.92.1 25.73-5.7-2.86.16-17.71-3.18-15.2-6.58-5.87 1.47-14.57-2.55-17.74-1.59 9.67 3.13 1.07 4.88-5.44 6.86-5.93-1.67 1.1-4.66-4-5.71l-13.7.69 11.94.72-3.61 5.58c.45-.19.75-.31 1.22-.54 20.18-2.67 1.74 8.13 22.42 4.45zm-1.62 1.82a11.251 11.251 0 00-3.24 1.38 3.83 3.83 0 003.24-1.38zm82.58 8.8a31.556 31.556 0 003.57-.9c-.7.22-2.23.49-3.57.9zm-604.97-6.78c.35 1.64 12.12 5 11.92.76l-10.55-1.37zm829.67-19.39a27.3 27.3 0 00-3.94-.09 8.809 8.809 0 00-.76.67c.8.65 3.39-.17 4.7-.58zm-293.12 3.06c-2.15.67-3.11 1.35-3.63 2a6.57 6.57 0 003.63-2zm293.93 7.1c1.67 1.22 4.15 3.06 4.51 4.69 3.41 0 5.8-2.24 9.27-3.07a27.54 27.54 0 01-13.78-1.62zm14.06 1.55l-.28.07a1.28 1.28 0 00.28-.07z"/><path class="a" d="M852.59 90.959c-1 .33-2.06.62-3.13.89l1.63-1.14c-2.71-.42-5.4-.85-8.09-1.32a20.276 20.276 0 01-3.34.67 2 2 0 001.18-1.06l-2.59-.51c-6.46 4.41-22.52 7.61-27.16 10.2-6.13 1.89-13.63 2.93-18.33 2.57 4.36.1 10.15-.77 8.42-3.22-8.85-2.59-13.12-10-28.41-3.7l9-.06-20.18 9.43c-7-4 10.08-4.71 12.89-8.12-15.69 4.62-28.66-8-36 .25-1-4.88-2.68-13-13-12.59 7.38 5.6-6.17 3.55-.12 9.53-3.57 2.79-11.46-1.82-12.07 1.83l1-2c-17.51-7.85-23.31 4.22-30.83 8.15-21 1.84-30.66-1.39-47.8-.69-.65-3.28-5.27-12.31-12.15-12-3.22 4.4-18.73 6.34-20.34 12 12.27 2.46 10.07-4.68 17.44-6 6.09 6 .53 5.89 8.87 9.5-6.74-2.36-30.52 2.88-37.88-2.75l2.61-.76c-11.78-3.47-14-17.52-33.67-9.17l-9.4 3.41a7.092 7.092 0 00.75-1.74c-15.36-.7-11.13-7.11-28.11-2.15 1.31-.38.49-1 1.82-1.39-9.64-3.25-19.42 3.08-26.73 4.36-4.44-4.75 1.08-4.64 3.85-8-17-2-35.38 6-46 11.72l-10.95-2.86c6.51-1.9 14.48-6.83 12.51-9.7-6 .9-4.88 3.15-13.4 2.17 1.47-3 5.06-5.81 9.09-9.58-17.6-5.18-4 10.7-16.28 1.33a9.45 9.45 0 00-9.4 7.94l-10-4.85c-1.14 4.64-13.53 4.82-21.65 5.46-1 2 6.51 5 9.59 3.23-.62 3.65-9.27 5.31-14.82 5.2-2-9.77-36.37 1.14-29.75-10.3-25 3-60 3.73-76.51 7.68-5.41-2.74-16.48-2.95-9.82-7.48-20.09-.19-30.5 9.75-50.42 6.94-1.64-1.24 9 0 8.32-3.28-13 3.81-23.68-4.31-43.91-1.84a5.05 5.05 0 004.88-3.17c.35 1.62-8.3 3.3-13.54 4.83-2.93-.86 3.92-1.15 2.28-2.4-39-5-68.85 8-107.69 7.3 11.09.22 15.32-6.21 15.45-8.86l-10.87-.19c-4.2 3.19-12.36 3.12-19.2 5.49-.83-1.22-4.14-2.55-.74-4.05-21.44-6.7-33.6 11.55-59.89 8l31.93-12.81-7.86-4.59 14-5.83c-8.34-3.63-15.66 4.58-16.64-.33 1.77-1.37 6-.89 6.18-3.54-8-2-8.67 1.67-14.72 2.58 16-9.85 47.15-9.47 64-11.79 2.64-.76-2.27 2.39-2.75 3.4 6.85-.28 10.94 2.85 19.58 1.19 5.37-4.17-4.07-3.13-8.32-3.6.61-3.66 2.74-3.42 7.48-3.94 1 4.89 26 1.92 32 7.92 25.29-1.35-4-12.67 20.7-10.37l7.34 5.64c14.35-4.22 32.9-7.91 49.11-6.6l-3.42.16c-2.29 2.37 1.47 3.87 3.13 5.1 12.24 2.48 23.28-4.22 30.68 1.42 14-5.83 37.32-10.06 53.32-13 4.27 7.4-20.88 6.1-27.55 10.65l14.54.08c-9 0-12.55 2.8-18 7 12.74 1.46 17-5 29.06-6.74-1 2 .65 3.24 6.23 3.34l1.6-4.88c.11.4.72.77 2.44 1.1l21.52-2.83c-4.56-2.13-4.75-6.39-10.31-6.49 2 2.87-2.74 3.4-8.3 3.28 4.88-3.15-5.41-2.73-5.28-5.37 11.15.22 24.84-.34 32.15-1.63l2.35 4.52c10.62 1.22 21.85-1.21 29 .15l-2.28 2.38c12.73 1.46 25.29-1.34 36.58 3.13 11.39-5.06 25.73-9.25 35-14.56 5-5.78 33.31 7.53 46.17-.55.86.63-8.83 4.3-13.21 6.47 8.52 1 15.33-6.21 18-.08-19.11-2.19 1 4.89-7.62 6.56 9 0 18.41-1.08 22.81-3.23-14.49-.06 5.19-8.42-9.5-5.86 11.4-5.06 26.92-7 40.46-4.92-.15 2.64 1.52 3.88 6.56 5l4.1-3.8c6.33.75-12.28 4.44.47 5.9 13.16-6.45 39.52 4 45.33-8.07 10 4.86-19.06 4.71-4 10.68-8.8 4.31-20.88-.79-23.8 5.24 8.61-1.66 3.11 5.13 8.66 5.23l9.61-3.66-2.12-.24c16.13-5.6 41.62-2.67 62.18-3.5 17.44-6 29.47-14.67 50.35-13.86-6.19 3.53 17.32 3.56 4.15 10 9.65 3.22 19.2-.45 19.41-3.08-8.5-1-3-.87-10.14-2.22 4.84-3.17 16-3 20.55-.82-2.12-.25-1.31.37-1.78 1.37 10.14 2.22 4.88-3.14 12.22-4.44 2.3 4.49 16.18 1.26 22.86 3.61l9.74-6.35c-5.35 4.18 9.29 1.57 10.81 5.44 7-2.93 12.83-8.11 23.42-6.94-4.38 2.18 9.66 3.21 9.84 7.47 18.14 4.14 30.1-11.54 47.27-5.39-.54 1-4 3.78 1 4.87 4-1.18 10.89-.66 15.13-1.11l-.14.11.23-.11c2.07-.23 3.38-.76 3.43-1.79 7.26-4.15 11-8.41 25.28-11.91-1-4.88-13.09-3-18.31-1.46l-4.51 4.8c-4.29-7.37-12.87 1.25-16.14-1.24 8.57-8.62 33.21-6.41 48-11.71-9-6.8-28.6-7.92-45.7-7.14l7.52 2.95-9 .07 8.65 5.21c-8.47-.93-15.81.38-23.47.07 9-.08 12.45 6.66 7.38 5.58-10-4.81-10.43 3.1-18.07 2.79 4.25.46 9.79.55 6.21 3.34-15-5.9-19.14-2.09-32.82-8.4 1.67 8.15-17.12.75-19.2 7.4l6.35.71-13.5 4.86c-12.42-6.68 11-6.71-7.88-11.47-17.47-.89-17.06 7.66-30.8 8.23 4.55-4.79 15.46-8.89 26.55-8.71l-6.71-2.35c3.57-2.77 18.9-2.13 26.55-1.81-12.67 5.48 5.91 1.72 11.65 6.07 1.07-4.66-7-4 2.55-7.66-9 0-10.3.44-21.71-1.36 24.68 2.2 22.26-16.08 43.79-12.11-9.94 2.08 3.45 6.73 4.64 9 4.67-.56 14.16-1.64 18.06-2.79l-3.51-6.75c12.56-2.88 16.89 11.4 31.4 4.49 1.89-4-12.75-1.4-10.14-2.17 19.84-4.19 27 6.7 44.56 11.78 1-2 .8-6.28 7-9.84-1.94 4 2.62 6.11-4.32 9.07 5.89 1.71 12.87-1.25 18.07-2.82-12.26-2.38 5-5.8 7.28-8.22 6.34.69-1.94 4-5.85 5.2 5.09 1.09 11.14 7 14 1 .19 4.26-14.26 11.19-23.72 12.28l6.37.69c-4.39 2.17-5.21 1.56-11.53.88 6.18 3.31 5.57 7 4.12 10-.81-.62.45-1-.32-1.61-5.09-1.09-9 .07-7.82 2.33-4.59 5.71 7 3.59 10.5 6.44l7.78-1.13 26.48-18.34c11.3-2.12 16.38 2.28 24.87 5.06l2.33-4.91c9.84.5 19.12 2.06 12.81 8.28-.35-1.64-1.65-1.25-3.79-1.49a3.319 3.319 0 01-1.39 1.53c-.21.29-.32.57-.49.85 10.53-1.58 17.11-2.61 17.72-2.8-17.89 7.13-.9 8.92-3.89 17.63l18.27-2.93c-11-2.76-.2-4.26 3.68-5.44 1.08 4.9 14.56 0 20.9.64l-.47 1c5.87 1.7 16.15 1.22 23.47-.12-.33-1.64 9-9.66 13.55-14.49-12.55-1.82-5.11-3.79-6.12-6.83 1.3.28 3.64.33 3.91-.29 1.8-1.4-2.44-1.85-2.79-3.48-13.35 2.31-27.07 3-32.51 9.79 4.1 3.09 7-3 11.57-.89-6.61 4.6-15.14 3.69-26.23 3.56l-3.63-4.1-11.16 2.22c4.66-2.17 1.86-6.46 13.56-7.28-1.49-3.86-11.6.88-18.77-.42l-3.67 5.45c1.42-3-13.92-3.62-3-7.76l17.73-4.45-4.93-3.72 15-1-3.53 2.82c24.08-3.78 7.1 10.84 31.34 4.4 7.58-6.59 15.73-7.32 30.59-5.73-10.75 1.49-1.1 4.65-5.14 8.47 11 2.74 14.66-2.7 20.34-5.28 2.8 3.49 4.79 6.33-5 5.84-1.22 7.29 12.88-1.28 13.78 6.23 32.46-.27 26-24.28 63.91-15l-1.41 3c24.07-3.83 38-.24 60.28-2.68l17.58 7.65c-3.92 1.2-14.47 7-9.53 10.68-8.57-7.75-17.62-5-26.84-9.17-.93 2 2.82 3.48 4.45 4.72-5.55 0-8.35-3.54-15.68-2.17.36 1.6 8.37 3.52 2.33 4.48l-10-4.77c-13.35 2.31-6.55 11.49-22.24 9.33 2.91-4.29 8.85-10.49 14.92-11.54-7.17-.9 9.55-2.6 3-5.15-10.31 6.37-15.3 1.36-29 5.36 1.61-.89 2-2.13 5.41-2.53l-19.92-2.63c4.93 3.7-16.45 4.1-14.59 9.6 21.23 2.26 15-1.07 39.19 2-6.85 1.26-15.67 6.88-19.8 12a2.08 2.08 0 00-1.3-.49c-3.69 5.46.08 6.92 0 16.45 11-6.8 18.43-1.25 31.45-5.17 2.44-5.23-7.58-6.64-14.05-5.28l11.47-3.48-2.25 2.4 29.13 1.69c-5.51.29-7.38 3.32-10.26 5.61 3.76.2 7.49 1.56 11.45 3.07-.84-5-.33-8.5 3.34-8.41 18.75 1.14 29.18 5.58 36.11 11.25l2.19-.36c-3.16-5.1 13.28-9.22 19.07-14.45-.27 5.27 9.67 3.13 15.09 5.81 2.85-6.06-1-14.41-7.61-19.34-12.65 5.57-7.08 5.6-13 13.48l-20.32 5.3 4.53-4.84c-10.15-2.1-19.88 4.31-19.15-2 5.35-4.2 14.21-1.69 19.51-5.91l-6.71-2.28c11.82-6.21 6.08 5.93 20.41 1.58-5.29-5.32 1.29-.39 7.43-4-4.95-3.71-25.24 1.6-21-7.49 7.44-4 25.11 10.56 34.95 1.5l-.48 1c14.55 1.13 19.65-4.07 25.09-7.35 6.2 2.92 14.73-1.25 21.44-1.61l-.15 2.65 9.43-1c-4.49 4.83-11.1-.08-19.23.65l1 4.9c-9.39-5.78-15.61 3.08-22.87 7.34 10.57-4.28 29.89 1.1 32.34-8.51l6.6 4.97 3.13-1.8c4.89 3.7-.07 9.55-9.52 10.7-1.65-1.23-2.47-1.85-2-2.87-4.38 2.2-8.4 6-19 4.94l5.66-2.62c-13.23-.31-25.25 1.63-29.76 6.47a463.447 463.447 0 0055.82 2.05c5.25-11.11 11.5-17.35 14.15-27.67 12-1.95 28.35-3.44 38.81.29l-1 2a27.821 27.821 0 0013.72-.73c5.39 2.68-3.67 5.47.09 6.92l17.22-3.54c-1 4.67-15.54 4.76-22.43 5.12 1.3-.4 3.92-1.19 3.08-1.81-8-1.88-22.91 6.12-26.44-.61-3.9 1.19 7.9-5-5.31-5.31-8.85-2.51-11.71 3.56-12.63 5.59-.13 2.64 13.9 3.56 9 6.77 6.88-.37 9.61-3.78 18.43-1.27-6.82.35-16.07 5.75-19.72 1.66-13.48 5-11.49 17.37-5.13 18-1.53-3.88 24.6-4.89 6.89-9.89 7.92-5 22.45-5.12 32.83-8.28l-.47 1 12.91-1.31c-1.81 1.39-5.71 2.59-5.83 5.22l17.85-7.17c-10 4.81 6.26 3.28 10.85 5.35 1.89-4.05 8.86-7 2.15-9.32-7.55-2.9-4.37 2.2-11.22 2.55l9.76-6.43.83.63 5.82-5.25c13.21.3-5.72 12.15 11.19 7l-2.24-7.1c19.6 1 44.82 8.82 58.65 5.47-3.8 4.06-5.45 10.58-.17 14.4-6-1.19-18-.87-26.55-.16-1.65-1.24 10.66-8.46 20-7-4.57-11.62-23.38 7.16-24.53-4.64-23.73-4-17.63 11.45-37.79 4.62-.25 5.28-5.71 2.61-6.74 7.26 6 8.57 26.9-.43 40 2.52-1.28.39-3.85 1.19-4.35 2.19 9.35 1.5 13.2.31 19.71-1.69l-.82-.61c11.37-5.21 7.07 3.89 13.79 6.18 2.59-.8 11.93.67 10.41-3.19l12.17 4.94-.61-5.88c6.84-.38 8.37 3.5 14.55-.12l.26-5.27-17-1.73c8.61-1.77 2.37-5.06 11.84-6.21-10.55 5.81 7.51 2.87 8.58 7.76l6.95-3-1.77 1.42c5.48 2.68 6.5-2 12.89-1.34-7.55-2.9-12.5-6.58-22.07-2.78 7-3 20.8-6.35 24.2-6.55 7.31-2.24 12.46 1.74 19.32 2.29-13.15 2.19 4.71 16-21.7 12.31.48-1 2.62-.8 3.45-.18-3.56-6.71-15.82.5-21.52 3.11 1.49 3.87-4.49 4.86 5.67 6.94-3.34-2.46 8.5-8.68 18.17-5.55l-1.66 8.3 14 .91-1.31.4c5.32 5.31 15-1.12 24.68 2 7-3 33.79-.81 22.2-9.41 8.72 5.13 16.31-1.53 25.77-2.69l-11.83-3.32c13.93-6 9.93-2.16 21.05-11.67 1.14 2.26 3.64 4.11 1.39 6.51 18.76.31 45.58 2.49 56.54-4.37 13.23.26 15.37 10 33.9 6.06 3.9-1.2-3.1-7.73 9.21-5.43.83.61-11.79 6.23 1.89 5.48 9.7-6.45 22.91 3.36 35.55-2.26 6.71 2.26 18.32 1.31 15.94 6.37-10.61-1.07-25.61.08-27.88 2.52 1.44-3.06-7.56-2.9.23-5.3-16.05-3.71-10.38 3.2-24.77.69-1 2 7.43 5.54 10.5 3.71.11 6.89-28.33 3.53-15.49 11.71 15.37.49 19.83-13.92 33.19-6.76-5.3 4.24-13.68.74-20.41 8l11 2.7 7.91-5-.46 1c19.37 6.18 17.82-7.22 35.09-10.8-10-4.71 2.23-12-5.33-14.85 11.56-1 20.06-.1 20.19 6.79-21.6 5.78-1.18 7.31-21.13 14.32 3.3 2.45-4.69 10.13 7.23 10.81 13.4-5-4.06-5.72 9.32-8.09.8.61 1.62 1.23 1.16 2.24 6.14-3.63 7.2 1.24 14.62-2.77l-1.75 1.39c9.22 4.12 10-4.81 18-.31-3.2-5.1 5.28-4.24 10.17-7.46-8-1.88-12.43-9.2-28.25-8.67-1.88 4.06-.71 6.3-7.19 8.3l10.28-.56c-2.22.68-3.9 1.73-5.93 2.55l-9.89-2c12.5-3 6.73-7.27 12-11.52 11.47 1.69 9.45-1.18 16.66.09-.68 5.94 22.18 10 35.4 13.71-2-.22-4.69 0-6.12-.19-9.56 3.82 6.63 4.9 7 6.53l7-3c-1.31.42-3.12 1.82-.13 2.64 9.45-1.18 8.85-7.06 18.29-8.24.73 3.26-7.22 8.29-1.33 10 2 2.83 8.55 10.37 21.07 7.4.88-1.27 4.13-2 7.9-2.56a5.062 5.062 0 00-1.42.55l8.36 3.5c-7.06 5.63-14.38-2.52-21.47 3.13l-.57 5.31c-5.55.06-13.08 2.41-16.53 5.18 8.48.84 10.25-.57 19.71-1.74 1.35 3.34-5.3 5.88-6.26 6.25l1.39-3c-11.42-4.47-16.94 5.05-31 4.13-2.12-.2-.83-.6-.36-1.61-11.35 5.22-22.56-1.74-33.57 5.12l3.58-2.82c-7.51 2.31-22.2 7.63-36.88 12.78l-.1 2.07c1.64 1.23-3.88 1.2-6.85.38-7.36 2.57-14.43 4.94-20.22 6.72a15.17 15.17 0 007 2.59c2.29-2.44 15.83-.55 13.93-6 6.27 3.27 16.3-1.56 20.91.49-8.39-3.48 5.78-5.24 7.22-8.28 2.84 3.45 12.39-.36 11.33 4.32 1.66 1.21-4.13-3.07-7.66-.24-8.73 4.41 16 3.71 5.18 7.93 13.85-3.38 32.14-2.09 46.41-6.5l-8-1.85c6.37.64 21.41-.51 22.55 1.74-4.72.58-10.24.56-16.28 1.54-.26 5.28 14.53-.14 15.22 3.11l17.5-8.86-7.69-.23c4.78-3.27 20.88.48 32.78 1.13-6.78 7.27-18 .32-30.5 3.31-9.09 2.8 5.68 6.92-2.93 8.71 2.25 1.67 7.87 1.43 10.63-.41l3.42 1.29c-7.65 6.61-24.9 5.28-36.34 11a6.19 6.19 0 002.19-2.22 55.459 55.459 0 00-26.44-.52c4.58 2 6.37.62 9-.16.34 1.62-7.79 2.38-10.86 4.2 8 1.86 1.52 3.86 6.6 4.91-5.21 1.6-9.44 1.17-15.8.53-3.32-2.46 2.7-3.44 2-6.67-6.53 2-9.59-5.76-19.15-1.94 12.77 1.28-3.31 7.1-7.68 9.31l2.14.21q-6 5.76-10.27.56c5.21-1.6 10.27-.56 8.75-4.42a42.53 42.53 0 00-10.76 1.59l3.5-2.81-17.13.94c-2.69 3.43-7.18 8.29-9.52 13.35-4.13-3.07-9.84-.45-13.73.76l1.8-1.43c-7.58-2.87-24.38-.31-25.78 2.72-5.42-2.66 38-19.51-.11-16.44-14.51.13-9 9.71-17.24 13.1a1.35 1.35 0 00-.36-1.61c-6.36-.66-7 3-12.18 4.61 3.82 1.43 9.34 1.46 11.11 0-1.89 4.05-13.24-.26-18.08 3 6.27-6.26-12.29-2.29-7.41-5.52-12.66-3.92-26.13 1.1-32.74 5.72-8.62-7.75-15 1.14-29-2.38 2.14.22 6-1 9-.16 7.9-5-14.43-2.5-2.26-7.11-2.6.79-.16 2.63 2.51 1.83 4.68-.58 9.07-2.79 7.88-5l-11.36-4.3 3.95-1.23-17.25-6c-.46 1 1.16 2.23 2 2.85-20-2.54-42.76 1-60.25.27-3.2 14-43 6.25-57.08 14.9 3.76-4 5.79-11.11 3.43-14 3.15-.61 9.57-6.29 16.72-5.16 1.15 2.24 10 4.73 4.32 7.33 19.74-1.72-2.7-6.11 3.09-11.35-21.86 1.5-34.65 9.74-48.44 13.11l-.36-1.65-10.41 3.18c8.53.88 8.15 8.8-2.85 6.09l1.33-.4c-6.28-3.29-19.29.69-29.08.23l-6.61 4.62c-9.8-.47-10.27-9-13.48-14.09-15.37-.52-24.2 6.51-35.09 10.72-5-3.7-28-4.47-15.8-9-13.84 3.34-11 23.27-34.77 12.32l6.15-3.61c-22.72.84-55.1 8.11-65.59 4.37 8.34-12.91-28.43-13-32.51-25.63 1.13 2.88-7.4 3.87-8.64 5.42-1.88-1.48-5-2.91-8.29-.29 8.87 2.51-6.19 13.14 10.74 8-8.55 8.69-19.57 15.5-38.36 15.13l.27-5.28 14.87 1.56c-1.52-3.89 6.13-3.62 9.26-5.42-27.65-2.88 3.58-12.35-24.68-11.58-2.72 3.43-.95 2-8.29 3.39 3.45-.19 4.06-3.82-1.5-3.87l-5.34 4.22c-9.89-8.75 16.32-5.77 7.88-11.92 10.9-4.17 29.79-6.45 26.25-13.16-17.82-2.39-16 12.65-34.63 9.65l-2-2.86c-6.54 2-7.59 6.62-11.17 9.42-.33-1.62-2-2.84-6.21-3.3-11 6.8-18.39 8.14-28.58 15.56 27.16-5.62 23.24 5.11 51.28.08-4.39 2.21-24.13 3.86-25.33 11.14l.25-5.28c-9.11 2.76-18.22 5.5-29.68 3.79l7-3c-15.18 3.71-25.25-8-37.22.86a26.259 26.259 0 0010.28-.52c-7.81 2.37-17.61 1.87-26.11 1l-17.56 8.73c.15-2.61-11-2.76-5.62-6.94-12.65-4-18.61 3.86-25.92 5.18-13-5.58 11.22-2.51 12.49-9.79-17.86-2.43-36.77-.19-46.84 4.55 3.64 1.07 5.41 2 5.23 3.26-.55-1.66-7.74-1.23-11.75-1.28l-2.75 3.42c-6.68-2.31-5.74-4.33-.06-6.92-6.39-.66-14 5.93-20.57 1 10.9-4.13 24.79-.53 30.47-3.1-22.78 3.38-22.93-10.43-51.8-6.09-.36-1.64 4.53-4.83-1-4.87-12.89 1.26-3.37 7.06-7.39 10.87 9.92-2.13 14.53 0 20.29 4.28l-2.65 2.79c-.4-1.45-6.63-1.53-8.46-2.92l-1.61 5.67c.74-6.28-9.22-11.06-17.06-8.71 7.92 4.55 5.78 4.31 7.93 11.46-11 6.77-12.43-6.64-24.79.51.93-2 11.72-3.51 2.4-5.06-7.71-.28-6.69 4.6-11.86 6.16 5.83-5.22 4.33-9.1 10.65-15.3 13.7-.64 5.53.08 18.92-2.2l-11.33-4.42c11.61-.85 8.44-6 9.4-8-19.82-5.32-14.94 7.93-27.7 6.54-6.15 3.58 12 .77 2.33 4.51-11.93-.77-2.72 3.41-16.11 5.67l2.24-2.4c-4.09-3.11-8.14.71-12.88 1.23-5.21 1.58 5.88 18.18-15.54 18.5a6 6 0 001.44-3l20.94-43.88a594.652 594.652 0 01-71.78-4.17c-5.9-8.6 17.94-7 16.41-10.9l11.45 1.77c-.65 3.65-24 1.08-13.67 7.54 20.23-2.58 29.4 1.6 48.6-5.87-5.95-8.61-25.27 1.5-37.74-5.17a35 35 0 0014-1.6q-17.58-1.65-37.59-3.68l-3 2.07c9 1 15.2 1.74 16 2-11.91-.78-22 4-22.78 10.25l2.12.23-4.31 1.95zm-772.4-6.56a6.33 6.33 0 001.73-2.17c-.49.91.05 1.5-1.73 2.17zm1005.76-14.37c-15.89-.9-31.92-2.6-47.18-3.37 27.55 12.43 46.94 21.84.94 21.61l-3 .9c6 1.52 16.38 1.71 26.14.8 7.89-4.41 33.34-20.64 33.05-22.08-2.79-3.47-6.86.33-11.94-.73zm11.31 20.81c9 1.38 7-1.38 8.36-3.85l-9.47.95c1.2.62 1.79 1.5 1.11 2.9zm7.81-6.34a4.869 4.869 0 01-2.32-.5zm-175.18-3.15c.41-.05.55-.11.93-.15l-6.48-.59c.86.41 2.5.71 5.55.74zm18.28 6.11l2.14-4.55-6.08-.52c.69 2.05 1.4 3.85 3.94 5.07zm58.76 15c3.71-5.45 16.12-5.69 16.87-12 .8-1.61-1.81-2.23-4.74-2.75l-10.46-.52a4.14 4.14 0 01-2.09 2.59c3.65.79 6.09 2.35 4.61 6.21-9.39-8.42-8.41 6-18.57 3.85-3.23 4.4 11.3 4.36 14.38 2.58zm780.43-19.6a32 32 0 002.7 3.7l-7.13 3.16c-12.77-1.28-23.05-10.25-34.48-2.4-5.39-1.91-8.29-6-11.06-9.41a49.223 49.223 0 017.14 1.06c32.12-11.61 16.9 11.89 42.83 3.89zm-146.74-10.11a2.91 2.91 0 001.77-1.43c-28.43 11.72-51.88 15.21-67.25 14.85 3 4.57 16.81 8 23.37 9.88l-5.77 5.25-3.64-4.08-10.05 4.8c2.84 3.49 11 2.72 16.42 5.38.47-1 17.84-7.19 22.69-10.43l-13.93-3.52c3.76 1.43 22.2.12 29.51-1.26.13-2.62-12.5-6.57-14.05-.89-1.53-3.87 13-4 3.79-8.1 10.87-4.2 28.22-.85 36.27 1l1.4 6.51c8.84 2.48 5.91-7.89 16.42-4.19-12.88 1.35 2.22 7.13-8 7.69 3.3 2.44.12 6.89 10.39 6.33 8.49-8.68 10.86 5.35 18.89-2.32 5.42 2.66-5.78 5.23 4.86 6.31 12.16-4.61 11.43-7.86 12.14-14.15-11.41-1.68-12.75 8.26-22.08 6.79l18.47-10.88c-3.43-1.5-6-1.64-8.08-1.19a20.421 20.421 0 009.57-4.48c1.54-1.25 3-2.31 4.26-3.23-10.51 0-19.84-.07-21.5-2.74l1.43-3c-3.74-2.78-9.79-.55-12.57 1.7-9.41.4-18.78 4.7-20.86.77l3.56-2.81c-11.62.92-12.88 1.33-27.43 1.44zm-379.19-5.11c7 11.14 14.8 21 47.5 18.93l-2.57.78c16.51 7 32.1-9.39 52.19-1.69-9.72 4.25-9.2 3.86-19.9 13.53l10.43-3.19c-2.87 6.09 7.53 2.9 15.19 3.16l-6.73 7.26c-4.61-2.06-16.53-2.77-16.18-1.12 2.61-.81-15.77-9.06-25.73-6.92 1 4.89 22.08 2.82 12.71 10.87 8.28-3.39 9.32 1.49 18-.27-8.29 3.39-2 6.69-8.19 10.29l14.19-1.73c.38 1.63-20.67 3.71-9 9.69 5.68-2.59 20.89.57 21.14-4.71l.36 1.62c10.59 1.09 4.59-7.5 17.71-4.5.14-2.65-2.36-4.48-7-3.91-4 1.19-4.54 4.82-12.69 5.59-3.67-4.1 9.83.48 4.15-6.48-2.83-3.46-21.51 3.09-15.58-4.77l10.63 1.09c.25-5.29 7.94-5 7.71-9.28 6.49-2 12.64 4 19.26-.66 2.74-3.43-2.1-9.75 8.89-7 8.61 7.78 33.87 6.13 43.33 5l8.18-3.52c-.72-3.23-15.82.52-10.52-3.71l12.96-1.35-1 2c4.28.43 8.65-1.77 12.55-2.95-4 3.82-13.32 2.34-11.45 7.83 6.07 1.06 7 3.09 12.58 2-1.21.39-2.26.94-2.1 1.71 12.29 2.32 11.82-6.21 14.89-8 12.31-7.21-12.47-6.58-10.92-12.25l36-3.21c-3.06 1.81-6.15 3.6-5 5.85 8.85 2.49.22 4.27 12.63 3.93-.92-7.51 15.6-4.77 24.34-9.16 4.11 3.06 5 3.67-4 3.81 1.06 4.88 13.07 2.93 17.35 3.36 2.47-1.23 6.69-2 9.36-3.06-3.6-2.42-2.09-5.48 5.66-7.61l.45-1c-12.74-1.27-32.54-6.5-40.49-1.45l2.24-2.43c-14.75-4.15-32 8.94-38.85-.25.61-3.65-3-.82-2.73-6.1l-10.83 4.18 2.25-2.4-18.37 1.3.48-1c-8.75 4.83-15.6 8.76-21.07 12 0 2.3.56 3-2.35 4.71a13.52 13.52 0 01-7.14 1c-4.53-.65-7.56-3.94-13.15-5.25l17.16-.65c1.38-3.91-.1-8-8.52-10.65 3.44-.17 4.86-3.22.61-3.65-.47 1-11.23 2.55-7.11 5.64-16.29 1.51-42.72-8.65-67.43-1.13 17.76-4.54-14.26-5.17 5.46-6.85-13.79-6.2-11.82 6.19-25.87 5.27-1.2-2.23 7.65.27 10.86-4.17-23.35-2.41-39.35 10.23-61.94 8.41l-1-4.87zm-44.66 6.2l-13.23 1.71c.44.07.84.07 1.3.14l-13 4c8 1.89 13.33 7.23 2.1 9.75.94-2-2.35-4.48 1.55-5.66-7.53-2.91-24-5.71-19.73 1.65 14.45-7 3.4 9.37 14.75 4.18-6.09 4.81-12.14 2.66-17.89 4.82 6-4-1.42-9.1-10.43-11-3.92 1.19-14.53.09-21 2 2.33 4.5-3.34 7.08 7.28 8.2a27 27 0 01-16.68-.17c2.68-.78 7.36-1.34 7-3-4.36-4.13-9.46-4-12.28-5.71l-6.72.73a4.839 4.839 0 011.64 1.56l-7.46 4c9.94-2.14 4.6 2.07 4.48 4.71.26-5.27-6.4-.68-9.8-.5l7.39 5.56c-3.57 2.8-12.61-4-10.74 1.5 15.68 2.2 21.71 1.24 35.88-.44l-5.76-4.31c16-3.08 9.88 7.41 27.83 7.16 7.46-4 27-.34 27.35-8.25-2.24 2.42 11.2 7 17.34 3.41 6.78-7.24 27.33-8.27 21.1-11.56-5.56-.07-13 3.92-17.5-.78l10.77-1.53-7.08-3.93c3.62 1.4 3.2-2.44 1.56-8.25zm-241.12-44.13a1.542 1.542 0 01-.42-.11 2.418 2.418 0 00.46 0z"/><path class="a" d="M1946.72 65.299c3.09-1.82 10.75-1.58 9.22-5.44.22 4.26-13.68.78-9.22 5.44zm9.2 4.11c.53-1 .14-2.65 3.58-2.83l-9.46 1.16zm9.81 29.05c4.86-3.22 7.94-5 15.6-4.8 3 10.37-12.52 3-15.92 12.72 14.05.87 18.3-8.24 29.84-9.21-5.76-4.29-29.15-6.62-29.52 1.29zm-6.13 13.17l7.79-2.4-.78-.6-7.79 2.4zm-169.78-89.07c-.72-3.25-5.57 0-8.17.78 2.12.2 5.1 1.03 8.17-.78zm-1533.69-4.21l-59.58 2.71c17.14-.7 32.97-1 59.58-2.71zm1336.21 26.71c16-3.16 23-8.8 39.32-10.32-21.46-6.42-28.23 10.39-46.26 3.79zm5.48-25.94c2.69 6.1-12.29 7.24-9.94 11.71 10.76-1.56 5-5.86 14.76-5.39zm73.11 100.68l-4.84 3.22 3.9-1.19zm-145.94-94.84l1.76-1.39-8.03-1.89zm3.52-2.81l-1.76 1.42zm136.26 110.82l7.22 1.26 3.55-2.83zm-63.84-32.44l6.44-2c-1.28.4-10.12-2.07-6.44 2zm-124.91-77.91l-7.83 2.39.8.6 7.81-2.38zm74.53 95.02c4.48 4.68-12.86 1.35-3.67 5.45 8.15-.72 4.83-3.15 3.67-5.45zm-94.85-31.34a7.2 7.2 0 00-3.24.71 30.277 30.277 0 003.24-.71zm0 0c3.42 0 6.84 1.76 9.18.39-4.27-2.1-5.82-1.3-9.18-.39zm-39.14 1.28l3.1.32c-3.16 2.34-1.66 2 1.16.11 3.28-.18 3.09-1.66 3.48-2.68.65-.57 1.3-1.19 2-1.84-1 .61-1.92 1.21-2.69 1.72-5.07-.02-8.18.23-7.05 2.37zm-145.68-78.69c11.44 1.71 14.4 2.55 13.79 6.2 10.86 1.13 9.15-5.15 15.7-6.63-12.28.74-14.8-.93-29.49.43zm29.49-.43c1.37-.08 2.68-.16 4.28-.31a15.492 15.492 0 00-4.28.31zm162.14 118.82l-7.08 5.62 2.61-.79zm-208.6-120.18c2.12.23 5.52 0 7.19 1.3.6-3.67-9.31-1.52-7.19-1.3zm44.34 71.45c1.17 2.23 8.49.87 11.47 1.72-4.29-.46-7.79-7.18-11.47-1.72zm-77.1-56.29c2.12.23 5.39 2.68 4 5.7 3.06-1.79 7.21-8.24-4-5.7zm56.19 55.7l1.64 1.23 7.82-2.37zm28.09 53.82c8.8-4.38-14-10.46 1.15-14.2-19.59-4.5 1.53 6.17-12.92 5.51 8.48 1.44 12.65 6.94 11.77 8.69z"/><path class="a" d="M1293.68 123.089a23.56 23.56 0 00-4-.37c1.6.2 2.89.31 4 .37zm-124.05-27.24a13.782 13.782 0 003-1.48 12.8 12.8 0 00-3 1.48zm77.95 30.99l13.19-6.59c-8.81 4.38-31 4.19-29.6 10.69 7.19 1.3 15.83-.46 19.37-3.28zM1095.87 9.029l5.69-2.59-7.13-.8c2.06 1-1.63 5.81 1.44 3.39zm-2.8-3.48l1.36.09a2.351 2.351 0 00-1.36-.09zm101.52 87.09a27.6 27.6 0 0011.57-.91c-1.62-1.22-12.25-2.35-11.57.91zm-138.83-74.09l9.4-1.13-10.26.49zm-43.89-11.08l-1.62-1.23-7.8 2.34 1.65 1.23zm57.48 128.17c6.39.69 11.37-5.17 9.7-6.4l-12.38.27c3.15 5.12 3.43-.16 10.61 1.13zM686.17 16.129c2.78-3.4 16.3-1.33 17 1.93-1.82 1.39-9.16 2.69-4.57 4.8l10.75-8.32c14.22 5.33-10.88 11-17.92 13.87 14.5 1.18 18.83-4.28 34.25-4.17a21.22 21.22 0 01-9.8-4.7c-.5-5.91 13.86-3.22 24.13-3.65-6.53-2.59-2.73-4.74 2-7a3.531 3.531 0 001.83-.9l1.62-.83h-1.23a3.51 3.51 0 00-1.06-2.56c-8.62 1.69-15.19-3.28-20.73-3.38 5.44 9.66-18.92 2.1-25.92 5l-8.06.89h-3c-.6-1.06.26-2.38 4.87-4.24-3.84 1.86-16.64 1.11-15.47 4.2l-29.21-.07a7.639 7.639 0 01-2.48-1.59c-1 .6-1.19 1.09-1.06 1.58l-127.25-.3c6.28.81 11.7 3 18.16 4.15-9.74 6.31 10.61 1.22 7.73 7.24-4.38 2.16-10.76 1.42-14.56-.07-1.44 3 4 5.77 3.33 9.41 16 3.95 18.56-10.62 34.24-8.29-.64 3.65-5.51 6.81 4.76 6.39l-2.61.77c16.46-4 12.77 8.35 23.17-1.59l-.29 5.27c7.47-3.92 22-3.84 30.17-4.51l-.49 1c23-5.87 12.88-1.19 38.66-3.53l-11.89 6.07c8.88 2.6 10.91-4.07 17.29-3.34-.46 1 1 4.89-5 5.8l31.3-9.15c7.46-3.97-1.51-3.93-2.66-6.18z"/><path class="a" d="M725.67 24.239a22 22 0 005.75.22c-2.14-.17-3.99-.21-5.75-.22zm-219.74-17.6h8.94a34.183 34.183 0 00-8.94 0zm264.56 6.27c-5.41-2.75 4.07-3.8 5-5.82H756.1c.07 2-1.86 4.3-1.47 6.16z"/><path class="a" d="M750.52 3.249c-.66 1.42-2.72 2.67-5 3.86h10.63c-.1-1.53-1.28-2.92-5.63-3.86zm1.6 108.42l-3.44.17-5.21 1.54zm-53.74-9.22c4.1 3.11 11.89.82 14.5.06-8.97.04-5.08-1.1-14.5-.06zm10.94 33.08l-8.66 1.68.81.61zM439.76 26.899c-1.42.11-2.8.18-4.23.31a18.631 18.631 0 004.23-.31zm74.26-4.49c-20.61-6.07 13.54-4.83 7.1-12.45l-11.24 2.43 1-2-13.7.57c2.8 3.5 4.9 3.73 4.28 7.38-18.28-1.56-5.75-4.38-19.14-9.08l-20.44.52 1.66-1.09a4.12 4.12 0 00-3.08 1.11l-68.88 1.78c-12.54 2.82 6.9 6.63-2.37 11.94 14.52.08 36.08 4.13 37.35-3.15-.49 1-1.46 3 1.48 3.89l8.43-5.94-8-2c8.48-5.91 35.74-4.39 40.66-.64-15.52 1.93-7.78 9.18-29.36 5.11 1 1.86 4.9 5.14 0 6.11 25.31-1.94 47.99 1.55 74.25-4.49zm-253.98 1.68l.21-.66c-.46.35-.61.61-.21.66zm8.49.96l12.38-7-19.24.43-1.42 5c1.7-1.26 8.46-3.75 11.07-1.77zm26.73-11.27c-9.94 2.06-9.44 8-4 10.69-9.14 2.67-4.78-6.38-11.1-.19.19 4.25 11.45 1.84 14 1.07zm73.3 3.63l-2.81 2.43 6.88.7zm-2.81 2.43l-6.83-.71a11.281 11.281 0 002 4.84zM341 17.299a90.608 90.608 0 00-10-1zm7.81 1.56l-.23-.77-7.58-.79c2.79.48 5.3 1.01 7.81 1.56zm10.11.27c-1.09-4.14-2.37-8.49-12.25-7.41l1.91 6.37zm287.5 109.73l-7.83 2.27.83.65 7.82-2.29zm-45.08-4.11a30.119 30.119 0 00-4.73 2.24 9 9 0 004.73-2.24zm-33.66 27.99c-9.17-4.23 12.71-5.41-4.3-7.37-1.48-3.89 6.52-8.82 14.53-6.84-.66 3.64-7.82 2.28-2.91 6 5.34-4.17 7.35-1.29 5.52-6.79 9-3.36 10-7.25 16.09-10.78-10.84 2.34-33.54-3.46-47.32 3.48-7.6 6.55-3.06 15.59-3.13 25.12 1.13 2.28 20.75 3.48 21.52-2.82zm14.42 9.61a16 16 0 008.17-.64c-.69-3.26-4.73.52-8.17.64zm-97.41-72.46c-.82 1.34-8.52 3-6.88 5.32l11.68-1.62c-2.74-.25-3.7-1.95-4.8-3.7zm9.92 3l-5.12.7a13.69 13.69 0 005.12-.7zm-10.47-3.85c.19.28.35.57.55.85.17-.25.14-.58-.55-.85zM312.7 14.729c.18-2.62-5-1.1-7.64-.34 2.12.25 5.09 1.12 7.64.34zm-195.77 8.91l-4.59-2.12a8.088 8.088 0 004.59 2.12zm-71.19 70.9a2.649 2.649 0 01-.94 1.33 2.23 2.23 0 00.94-1.33zm-.94 1.33c-3.15 2.15-12.82-1.3-16.32 2l.45-1-6.5 1.92c6.08-.27 18.84.23 22.37-2.92z"/></svg>