<svg xmlns="http://www.w3.org/2000/svg" width="117" height="117"><path d="M102.832 0c-.466 0-.927.024-1.381.068a2.3 2.3 0 00-.546-.068H31.992a14.641 14.641 0 00-14.625 14.625v9.14a2.285 2.285 0 004.57 0v-9.14A10.066 10.066 0 0131.992 4.57h60.43a14.112 14.112 0 00-3.758 9.6 2.181 2.181 0 010 .457v15.608a2.285 2.285 0 104.57 0V16.448h21.481A2.285 2.285 0 00117 14.163 14.184 14.184 0 00102.832 0zm-9.32 11.883a9.6 9.6 0 0118.641 0z"/><path d="M77.207 12.335h-14.52a2.286 2.286 0 000 4.571h9.294L46.06 42.826 30.866 27.635a2.287 2.287 0 00-3.232 0L7.125 48.144a2.285 2.285 0 103.231 3.232L29.25 32.482l15.194 15.195a2.286 2.286 0 003.232 0l27.246-27.246v8.713a2.286 2.286 0 004.571 0V14.623a2.286 2.286 0 00-2.286-2.288zM3.9 54.599a2.285 2.285 0 10.669 1.616 2.3 2.3 0 00-.669-1.616z"/><path d="M104.2 71.758a2.284 2.284 0 00-2.285-2.285H84.553V52.105a2.285 2.285 0 00-2.285-2.285 21.938 21.938 0 106.4 42.923v10.092a9.6 9.6 0 01-19.2 0c0-.071-.005-.141-.011-.211a2.227 2.227 0 00.014-.246 2.285 2.285 0 00-2.285-2.285h-45.25v-48.9a2.285 2.285 0 00-4.57 0v48.9H7.312a2.286 2.286 0 00-2.285 2.285 14.642 14.642 0 0014.625 14.625h59.414a14.184 14.184 0 0014.168-14.168v-11.89c0-.063 0-.125-.009-.188A21.95 21.95 0 00104.2 71.758zm-84.553 40.671a10.071 10.071 0 01-9.792-7.769h55.16a14.123 14.123 0 003.636 7.769zm62.616-23.3a17.368 17.368 0 01-2.285-34.585v17.218a2.285 2.285 0 002.285 2.285h17.218a17.4 17.4 0 01-17.213 15.078z"/><path d="M90.035 37.026a2.285 2.285 0 00-2.285 2.285v24.68a2.285 2.285 0 002.285 2.285h24.68A2.285 2.285 0 00117 63.991a27 27 0 00-26.965-26.965zm2.285 24.68V41.712a22.434 22.434 0 0119.994 19.994zM48.217 74.035H28.564a2.285 2.285 0 000 4.57h19.653a2.285 2.285 0 000-4.57zm10.642 11.642a2.285 2.285 0 10.669 1.616 2.3 2.3 0 00-.669-1.616zm-10.642-.669H28.564a2.285 2.285 0 000 4.57h19.653a2.285 2.285 0 000-4.57zM36.43 63.07h-7.866a2.285 2.285 0 000 4.57h7.866a2.285 2.285 0 000-4.57z"/></svg>