<svg width="16" height="16" fill="none" xmlns="http://www.w3.org/2000/svg"><g clip-path="url(#clip0)"><path d="M15.117 16a.883.883 0 00.883-.883V.883A.883.883 0 0015.117 0H.883A.883.883 0 000 .883v14.234c0 .488.395.883.883.883h14.234" fill="#395185"/><path d="M11.04 16V9.804h2.08l.31-2.414h-2.39V5.848c0-.7.194-1.176 1.196-1.176h1.28v-2.16a16.99 16.99 0 00-1.864-.095c-1.844 0-3.106 1.125-3.106 3.192v1.78H6.461v2.415h2.085V16h2.494" fill="#fff"/></g><defs><clipPath id="clip0"><path fill="#fff" d="M0 0h16v16H0z"/></clipPath></defs></svg>