<svg xmlns="http://www.w3.org/2000/svg" width="117" height="112.393"><path d="M85.953 73.555h-4.781c-3.989 0-7.06 3.3-9.975 6.452-.739.79-1.464 1.567-2.106 2.208a1.7 1.7 0 01-2.422 0l-6.736-6.736a4.638 4.638 0 00-6.556 6.561l2.869 2.87a1.715 1.715 0 01-2.429 2.423l-2.863-2.87a8.064 8.064 0 0111.4-11.407l5.506 5.506c.285-.3.557-.589.829-.887 3.414-3.68 7.009-7.547 12.481-7.547h1.315a12.852 12.852 0 01-2.273-7.3v-12.01a8.008 8.008 0 017.993-7.993h9.866a8.006 8.006 0 017.993 7.993v12.01a12.839 12.839 0 01-2.274 7.3h1.4a11.831 11.831 0 0111.808 11.809v28.748a1.708 1.708 0 01-1.71 1.71H79.624a1.713 1.713 0 01-1.716-1.71V91.368l-4.321 4.321a8.075 8.075 0 01-11.406 0l-2.87-2.87a1.713 1.713 0 012.423-2.422l2.87 2.869a4.65 4.65 0 006.561 0l7.249-7.248a1.71 1.71 0 012.922 1.211v21.739h20.838V86.743a1.714 1.714 0 113.428 0v22.225h7.974V81.935a8.4 8.4 0 00-8.382-8.382l-4.858-.007a12.854 12.854 0 01-14.381.007zM32.279 59.414l-11.427-3.873-7.566 3.705v3.582a9.5 9.5 0 0018.993 0zm-18.993-3.97l6.6-3.226a1.69 1.69 0 011.4-.143L32.279 55.8v-4.982a4.576 4.576 0 00-4.561-4.566h-9.872a4.589 4.589 0 00-4.561 4.566zm89.347 3.549c-2.9.486-8.045.622-12.217-3.206a10.53 10.53 0 01-6.769 1.561v5.48a9.493 9.493 0 0018.985 0v-3.835zm-18.985-5.1a7 7 0 005.849-1.645 1.712 1.712 0 012.41.175c3.543 4.075 8.512 3.582 10.727 3.1v-4.7a4.578 4.578 0 00-4.56-4.566h-9.866a4.589 4.589 0 00-4.56 4.566zm-47.942 8.933a12.84 12.84 0 01-2.267 7.3h.317a11.833 11.833 0 0111.81 11.809v28.748a1.71 1.71 0 01-1.71 1.71H1.717A1.715 1.715 0 010 110.683V81.935a11.847 11.847 0 0111.81-11.809h.323a12.845 12.845 0 01-2.273-7.3v-12.01a8.006 8.006 0 017.987-7.993h9.871a8.006 8.006 0 017.987 7.993v12.01zm-5.726 10.72a12.848 12.848 0 01-14.388 0l-3.782.007a8.416 8.416 0 00-8.383 8.382v27.031h7.975V86.741a1.714 1.714 0 113.427 0v22.225h15.909V86.741a1.717 1.717 0 013.433 0v22.225h7.969V81.935a8.406 8.406 0 00-8.383-8.382zm38.206-61.919a1.714 1.714 0 010-3.427h36.378a1.714 1.714 0 010 3.427zm0 14.626a1.713 1.713 0 010-3.426h28.533a1.713 1.713 0 010 3.426zm0-7.313a1.714 1.714 0 010-3.427h36.378a1.714 1.714 0 010 3.427zm-49.3-5.6a1.714 1.714 0 11-3.427 0 7.327 7.327 0 119.043 7.125 1.714 1.714 0 01-3.426-.084v-1.426a1.714 1.714 0 011.71-1.717 3.892 3.892 0 10-3.9-3.9zm2.189 13.163a1.714 1.714 0 013.427 0v1.049a1.714 1.714 0 01-3.427 0zM90.257 3.429a1.713 1.713 0 010-3.426h21.454a5.305 5.305 0 015.292 5.3v23.852a5.307 5.307 0 01-5.292 5.3H82.678l-4.664 6.193a1.708 1.708 0 01-2.753-.033l-4.638-6.16h-9.58a5.309 5.309 0 01-5.293-5.3V5.298a5.307 5.307 0 015.293-5.3h21.454a1.713 1.713 0 010 3.426H61.043a1.883 1.883 0 00-1.866 1.872v23.859a1.881 1.881 0 001.866 1.872h10.422a1.7 1.7 0 011.367.687l3.815 5.065 3.725-4.942a1.715 1.715 0 011.457-.81h29.882a1.878 1.878 0 001.865-1.872V5.298a1.879 1.879 0 00-1.865-1.872zm-63.585 0a1.713 1.713 0 110-3.426h9.3a5.352 5.352 0 015.344 5.344v23.766a5.352 5.352 0 01-5.344 5.344h-7.158L24.15 40.65a1.707 1.707 0 01-2.753-.033l-4.639-6.16H9.601a5.354 5.354 0 01-5.345-5.344V5.347A5.352 5.352 0 019.601.003h9.3a1.713 1.713 0 110 3.426h-9.3a1.939 1.939 0 00-1.354.564 1.911 1.911 0 00-.562 1.353v23.767a1.912 1.912 0 00.563 1.353 1.939 1.939 0 001.354.564h8a1.7 1.7 0 011.366.686l3.815 5.066 3.725-4.942a1.718 1.718 0 011.457-.81h8.008a1.925 1.925 0 001.917-1.917V5.347a1.925 1.925 0 00-1.917-1.918z"/></svg>