<svg xmlns="http://www.w3.org/2000/svg" width="126.826" height="126.961"><path d="M57.649 96.79a2.479 2.479 0 103.506 0 2.479 2.479 0 00-3.506 0z"/><path d="M121.237 92.483l-18.826-16.009a2.524 2.524 0 00-.275-.2 12.324 12.324 0 00-15.422 1.692L76.449 88.23a2.472 2.472 0 01-2.7.538 67.257 67.257 0 01-28.3-21.452 49.917 49.917 0 01-7.718-13.724 2.439 2.439 0 00-.15-.511 2.467 2.467 0 01.538-2.7l10.264-10.266a12.321 12.321 0 001.692-15.422 2.377 2.377 0 00-.078-.117l-13.6-18.894A12.4 12.4 0 0017.21 3.635L15.155 5.69v.005l-7.338 7.338c-8.751 8.752-10.184 21.9-4.14 38.032 5.177 13.817 15.538 28.938 29.179 42.578 13.962 13.962 29.492 24.516 43.729 29.718 14.092 5.149 29.082 5.783 39.691-4.827l6.921-6.92a12.4 12.4 0 00-1.96-19.131zm-21.9-12.113l18.811 15.995a2.572 2.572 0 00.273.2 7.44 7.44 0 011.265 11.537l-.514.515L87.09 84.596l3.13-3.128a7.391 7.391 0 019.118-1.098zM32.255 8.405c.025.04.052.08.079.117l13.59 18.887a7.391 7.391 0 01-1.05 9.2l-3.033 3.034-21.7-31.919.581-.582a7.439 7.439 0 0111.534 1.263zm46.027 110.3C64.709 113.746 49.82 103.6 36.358 90.138 23.208 76.989 13.249 62.495 8.316 49.327c-3.7-9.884-6.187-23.595 3-32.784l5.247-5.248 21.705 31.918-3.66 3.663a7.409 7.409 0 00-1.7 7.894c.783 3.212 4.384 9.879 8.018 14.792a72.732 72.732 0 0030.921 23.791 7.417 7.417 0 008.1-1.614l3.593-3.593 32.082 24.02-2.863 2.863c-9.844 9.846-24.182 7.433-34.476 3.672z"/><path d="M52.999 90.869c-2.62-2.3-7.149-6.246-9.536-8.7a163.082 163.082 0 01-15.638-18.566 2.48 2.48 0 10-4.076 2.825 168.03 168.03 0 0016.159 19.2c2.519 2.592 7.088 6.577 9.821 8.973a2.48 2.48 0 003.27-3.729z"/></svg>