<svg xmlns="http://www.w3.org/2000/svg" width="162.445" height="106.497"><path d="M161.937 36.513L133.961.913a2.382 2.382 0 00-1.874-.911h-20.028a2.384 2.384 0 000 4.768h18.869l26.1 33.221-26.1 33.22h-36.99a2.383 2.383 0 00-1.983 1.062L73.594 99.816 55.233 72.273a2.384 2.384 0 00-1.984-1.062H4.77V4.77h95.529a2.385 2.385 0 000-4.769H2.386A2.385 2.385 0 00.002 2.386v71.209a2.384 2.384 0 002.384 2.385h49.588l19.637 29.456a2.407 2.407 0 003.968 0L95.218 75.98h36.872a2.381 2.381 0 001.874-.912l27.976-35.6a2.387 2.387 0 00-.003-2.955z"/><path d="M48.161 81.383H22.729a2.384 2.384 0 000 4.768h25.433a2.384 2.384 0 100-4.768zm5.087 10.173H27.816a2.384 2.384 0 100 4.768h25.432a2.384 2.384 0 100-4.768zm7.629 10.172H32.903a2.385 2.385 0 000 4.769h27.976a2.385 2.385 0 100-4.769zM25.273 25.433h-10.17a2.383 2.383 0 00-2.384 2.384v20.345a2.384 2.384 0 104.768 0v-7.788h5.245a2.385 2.385 0 100-4.769h-5.245v-5.4h7.789a2.384 2.384 0 000-4.768zm15.259 0c-5.521 0-10.014 5.633-10.014 12.557s4.492 12.556 10.014 12.556 10.015-5.633 10.015-12.556-4.493-12.557-10.015-12.557zm0 20.345c-2.843 0-5.245-3.567-5.245-7.788s2.4-7.789 5.245-7.789 5.245 3.567 5.245 7.789-2.402 7.788-5.245 7.788zm61.036-20.345c-5.521 0-10.014 5.633-10.014 12.557s4.493 12.556 10.014 12.556 10.014-5.633 10.014-12.556-4.492-12.557-10.014-12.557zm0 20.345c-2.843 0-5.245-3.567-5.245-7.788s2.4-7.789 5.245-7.789 5.246 3.567 5.246 7.789-2.402 7.788-5.246 7.788zm-33.065 0h-7.789V27.813a2.385 2.385 0 10-4.769 0v20.345a2.384 2.384 0 002.385 2.384h10.173a2.384 2.384 0 000-4.768zm17.806 0h-7.788V27.813a2.385 2.385 0 10-4.769 0v20.345a2.384 2.384 0 002.384 2.384h10.173a2.384 2.384 0 100-4.768zm51.16-20.327a2.385 2.385 0 00-2.662 2.07l-1.687 13.492-4.075-6.793a2.385 2.385 0 00-4.259.341l-2.348 5.869-3.3-13.192a2.385 2.385 0 00-4.627 1.157l5.087 20.346a2.384 2.384 0 004.526.307l3.3-8.253 5.157 8.594a2.384 2.384 0 004.41-.931l2.543-20.345a2.383 2.383 0 00-2.065-2.662z"/></svg>