<svg xmlns="http://www.w3.org/2000/svg" width="129.646" height="129.648"><path d="M115.814 24.8h4.007a2.531 2.531 0 000-5.061h-9.616a2.531 2.531 0 00-2.531 2.53v9.616a2.531 2.531 0 105.062 0v-2.784a59.763 59.763 0 11-47.911-24.04 60.632 60.632 0 017.291.44 2.53 2.53 0 10.61-5.024 65.789 65.789 0 00-7.9-.477 64.827 64.827 0 1050.99 24.8z"/><path d="M27.449 38.218a2.532 2.532 0 00-3.492.785 48.316 48.316 0 1015.124-15.094 2.531 2.531 0 002.7 4.282 43.276 43.276 0 11-7.555 67.235 43.549 43.549 0 01-5.992-53.715 2.534 2.534 0 00-.785-3.493z"/><path d="M97.72 67.396h3.117a2.531 2.531 0 000-5.062h-3.121a2.531 2.531 0 000 5.062zm-71.445-2.613a2.531 2.531 0 002.53 2.531h3.12a2.531 2.531 0 100-5.062h-3.12a2.53 2.53 0 00-2.53 2.531zm41.12-32.856v-3.121a2.53 2.53 0 00-5.061 0v3.121a2.53 2.53 0 105.061 0zm-5.143 65.791v3.121a2.53 2.53 0 005.061 0v-3.121a2.53 2.53 0 10-5.061 0zM52.137 48.561a2.531 2.531 0 00-3.579 3.579l8.577 8.576a8.718 8.718 0 1015.373 0l17.3-17.3a2.53 2.53 0 00-3.578-3.579l-17.3 17.3a8.7 8.7 0 00-8.215 0zm16.341 16.263a3.656 3.656 0 11-3.656-3.657 3.661 3.661 0 013.658 3.657zM34.224 34.225a2.528 2.528 0 10-1.789.742 2.535 2.535 0 001.789-.742zM82.352 7.561a2.529 2.529 0 10-1.789-.741 2.542 2.542 0 001.789.741z"/></svg>