<svg xmlns="http://www.w3.org/2000/svg" width="115.453" height="124"><g transform="translate(-214 -156)"><circle cx="42.5" cy="42.5" r="42.5" transform="translate(214 156)" fill="#f7e143"/><path d="M245 265.4a1.972 1.972 0 001.972 1.972h39.541l5.249 5.25v5.4a1.972 1.972 0 001.973 1.972h28.75a1.972 1.972 0 001.972-1.972v-4.583l3.227-6.179a15.656 15.656 0 001.769-7.213v-9.529a6.173 6.173 0 00-6.124-5.9 6.338 6.338 0 00-3.3.906 6.106 6.106 0 00-7.178-2.193v-62.34a1.972 1.972 0 00-1.972-1.972h-63.9a1.972 1.972 0 00-1.972 1.972v33.684a1.972 1.972 0 003.945 0v-31.712H308.9v59a6.138 6.138 0 00-4.36 0v-10.482a6.124 6.124 0 10-12.248 0v22.975l-2.786-2.785a6.612 6.612 0 00-9.351 9.351l2.411 2.411h-33.623v-31.419a1.972 1.972 0 00-3.945 0zm70.022-18.529a2.213 2.213 0 012.183 2.179v1.469a1.972 1.972 0 003.945 0 2.018 2.018 0 012.179-1.959 2.182 2.182 0 012.18 2.18v9.308a11.683 11.683 0 01-1.322 5.387l-3.45 6.608a1.975 1.975 0 00-.224.913v3.094h-24.806v-4.24a1.974 1.974 0 00-.577-1.394l-6.394-6.394-.01-.011-5.773-5.774a2.667 2.667 0 113.767-3.776l3.089 3.089a3.766 3.766 0 006.43-2.663v-23.4a2.179 2.179 0 114.358 0V250.3a1.972 1.972 0 103.944 0v-2.62a2.181 2.181 0 012.176-2.179 2.226 2.226 0 012.183 2.179v2.62a1.972 1.972 0 003.944 0v-1.248a2.181 2.181 0 012.176-2.179z"/><path d="M301.932 220.111a1.972 1.972 0 00-1.972-1.972h-16.931a1.973 1.973 0 100 3.945h16.931a1.973 1.973 0 001.972-1.973zm-15.192 8.348h-3.711a1.972 1.972 0 100 3.945h3.711a1.972 1.972 0 100-3.945zm0 10.32h-3.711a1.973 1.973 0 100 3.945h3.711a1.973 1.973 0 100-3.945zm-28.001-45.003h41.221a1.973 1.973 0 000-3.945h-41.221a1.973 1.973 0 000 3.945zm-1.972 57.424a1.972 1.972 0 001.972 1.972h14.884a1.972 1.972 0 001.972-1.972v-31.089a1.972 1.972 0 00-1.972-1.972h-14.884a1.972 1.972 0 00-1.972 1.972zm3.944-29.121h10.94v27.148h-10.94zm-3.944-11.663a1.972 1.972 0 001.972 1.973h41.221a1.973 1.973 0 001.972-1.973v-9.463a1.973 1.973 0 00-1.972-1.973h-41.221a1.973 1.973 0 00-1.972 1.973zm3.944-7.491h37.277v5.519h-37.277zm-15.378 21.591a1.971 1.971 0 10.545-2.734 1.989 1.989 0 00-.545 2.734z"/></g></svg>