<svg xmlns="http://www.w3.org/2000/svg" width="147.73" height="111.196"><path d="M141.679 14.038h-6.931V8.279A8.288 8.288 0 00126.47 0h-6.605a8.288 8.288 0 00-8.279 8.279v23.705h-11.067V25.62a135.242 135.242 0 01-20.8-11.582 8.362 8.362 0 01-12.428 2.576 8.358 8.358 0 01-12.427 1.741 8.387 8.387 0 00-8.377 8.377v5.253H36.145v-6.1a2.163 2.163 0 00-4.325 0v50.239a3.959 3.959 0 01-3.954 3.954h-6.6a3.958 3.958 0 01-3.954-3.954V8.284a3.959 3.959 0 013.954-3.954h6.6a3.959 3.959 0 013.954 3.954v8.385a2.163 2.163 0 004.325 0V8.284a8.289 8.289 0 00-8.28-8.288h-6.6a8.288 8.288 0 00-8.279 8.279v5.759H6.055a6.058 6.058 0 00-6.052 6.051v44.219a6.059 6.059 0 006.052 6.052h6.931v5.758a8.288 8.288 0 008.279 8.279h6.6a8.288 8.288 0 008.279-8.279V52.409h7.411v3.949a8.8 8.8 0 002 5.578l6.716 8.165v38.928a2.163 2.163 0 104.325 0v-39.7a2.164 2.164 0 00-.493-1.374l-7.208-8.759a4.465 4.465 0 01-1.016-2.83v-3.949l40.9.25a2.163 2.163 0 100-4.325h-9.84a3.682 3.682 0 110-7.363h18.595a2.32 2.32 0 012.317 2.317v13.07a4.467 4.467 0 01-1.016 2.83l-7.208 8.764a2.162 2.162 0 00-.493 1.374v5.7a2.163 2.163 0 004.325 0v-4.929l6.716-8.165a8.806 8.806 0 002-5.578v-3.949h7.411v23.705a8.288 8.288 0 008.279 8.278h6.6a8.288 8.288 0 008.279-8.279v-5.758h6.931a6.059 6.059 0 006.052-6.052V20.088a6.056 6.056 0 00-6.048-6.05zm-135.628 52a1.73 1.73 0 01-1.727-1.727V20.092a1.729 1.729 0 011.727-1.726h6.931v47.672zm86.091-44.466a4.056 4.056 0 014.052 4.051v8.051a4.047 4.047 0 01-1.314 2.979h-5.476a4.046 4.046 0 01-1.313-2.979v-8.051a4.056 4.056 0 014.051-4.054zm-16.479.845a4.052 4.052 0 018.1 0v11.257a4.047 4.047 0 01-1.314 2.979h-3.513a7.968 7.968 0 00-1.738.193 4.03 4.03 0 01-1.538-3.172V22.417zm-12.427 2.576a4.051 4.051 0 118.1 0v8.681a4.051 4.051 0 11-8.1 0zm-12.428 1.741a4.051 4.051 0 118.1 0v6.94a4.051 4.051 0 11-8.1 0zm-14.663 9.578h10.766a50.263 50.263 0 0120.376 5.739 8.314 8.314 0 004.795-1.521 8 8 0 00-.376 7.561H36.145zm68.03 11.779v-4.8a6.651 6.651 0 00-4.37-6.241c.106-.242.2-.49.284-.742h11.5v11.779zm39.23 16.22a1.73 1.73 0 01-1.727 1.727h-6.931v-6.25a2.163 2.163 0 00-4.325 0v16.333a3.958 3.958 0 01-3.953 3.954h-6.604a3.958 3.958 0 01-3.954-3.954V8.282a3.959 3.959 0 013.954-3.954h6.6a3.958 3.958 0 013.953 3.954v42.29a2.163 2.163 0 004.325 0V18.366h6.931a1.729 1.729 0 011.727 1.726z"/><path d="M93.297 82.087a2.163 2.163 0 00-2.162 2.163v24.783a2.163 2.163 0 104.325 0V84.25a2.162 2.162 0 00-2.163-2.163z"/></svg>