<svg xmlns="http://www.w3.org/2000/svg" width="107.385" height="138.298"><path d="M75.877 108.185a2.027 2.027 0 00-.664 4c15.189 2.524 22.107 7.057 22.107 10.2 0 4.954-16.6 11.865-43.628 11.865a122.6 122.6 0 01-27.427-2.839 2.026 2.026 0 10-.928 3.944 126.649 126.649 0 0028.354 2.946c12.389 0 24.063-1.476 32.872-4.156 9.688-2.947 14.808-7.014 14.808-11.76 0-6.33-9.292-11.505-25.5-14.2zm-58.109 20.589c-4.824-1.979-7.7-4.368-7.7-6.392 0-3.143 6.918-7.676 22.106-10.2a2.027 2.027 0 00-.665-4c-7.276 1.21-13.431 3.007-17.795 5.2-5.108 2.564-7.7 5.592-7.7 9 0 4.917 5.558 8.228 10.219 10.14a2 2 0 00.768.152 2.026 2.026 0 00.771-3.9zm-5.916-85.797a2.027 2.027 0 00-2.393 1.578 45.108 45.108 0 102.878-9.04 2.026 2.026 0 003.709 1.632 40.918 40.918 0 11-2.616 8.221 2.026 2.026 0 00-1.578-2.391z"/><path d="M34.594 103.796l17.666 17.651a2.028 2.028 0 002.864 0l17.666-17.651a53.929 53.929 0 0027.241-23.036 2.026 2.026 0 00-3.494-2.053 49.85 49.85 0 01-25.573 21.447 2.025 2.025 0 00-.727.467L53.692 117.15l-16.544-16.529a2.024 2.024 0 00-.729-.467A49.612 49.612 0 1173.657 8.225a2.026 2.026 0 101.63-3.709 53.666 53.666 0 10-40.694 99.28zm49.08-94.66a2.026 2.026 0 00-2.264 3.36 49.628 49.628 0 0118.763 58.6 2.026 2.026 0 003.792 1.427A53.678 53.678 0 0083.674 9.135z"/><path d="M32.975 74.768H74.41a2.026 2.026 0 002.026-2.026V48.969l2.262 1.77a2.027 2.027 0 002.5-3.191L54.943 27.01a2.027 2.027 0 00-2.5 0L26.189 47.548a2.027 2.027 0 102.5 3.191l2.263-1.77v23.774a2.026 2.026 0 002.026 2.026zM35 45.8l18.691-14.622L72.382 45.8v24.916H34.999z"/><path d="M44.238 51.523a2.026 2.026 0 00-2.026 2.026v8.2a2.026 2.026 0 004.053 0v-8.2a2.026 2.026 0 00-2.027-2.026zm9.454 0a2.026 2.026 0 00-2.026 2.026v8.2a2.026 2.026 0 104.052 0v-8.2a2.025 2.025 0 00-2.026-2.026zm9.454 0a2.026 2.026 0 00-2.026 2.026v8.2a2.026 2.026 0 104.052 0v-8.2a2.025 2.025 0 00-2.026-2.026zm-9.454-12.217a2.026 2.026 0 00-2.026 2.026v2.977a2.026 2.026 0 104.052 0v-2.977a2.025 2.025 0 00-2.026-2.026z"/></svg>