<svg xmlns="http://www.w3.org/2000/svg" width="481.442" height="416.941"><defs><style>.a{fill:none;stroke:#000;stroke-miterlimit:10}</style></defs><path class="a" d="M120.649.5L.578 208.473l120.072 207.97h240.144l120.071-207.97L360.793.502z"/><path class="a" d="M352.133 401.442H129.31L17.898 208.473 129.31 15.502h222.823l111.412 192.97z"/><path class="a" d="M343.473 386.442h-205.5L35.218 208.473 137.97 30.501h205.5l102.752 177.97z"/><path class="a" d="M334.812 371.442H146.63l-94.091-162.97L146.631 45.5h188.182l94.091 162.971z"/><path class="a" d="M326.152 356.442H155.286l-85.431-147.97L155.287 60.5h170.862l85.437 147.973z"/><path class="a" d="M317.492 341.442H163.95L87.18 208.473l76.771-132.972h153.541l76.771 132.97z"/><path class="a" d="M308.831 326.442h-136.22l-68.11-117.971 68.111-117.972h136.221l68.11 117.971z"/><path class="a" d="M300.171 311.442h-118.9l-59.45-102.971 59.451-102.972h118.9l59.45 102.971z"/><path class="a" d="M291.511 296.442h-101.58l-50.79-87.971 50.791-87.973h101.58l50.79 87.971z"/><path class="a" d="M282.851 281.442h-84.259l-42.13-72.971 42.131-72.973h84.259l42.13 72.971z"/><path class="a" d="M274.186 266.442h-66.939l-33.461-57.969 33.471-57.973h66.939l33.469 57.971z"/><path class="a" d="M265.53 251.442h-49.618l-24.809-42.971 24.811-42.973h49.619l24.809 42.971z"/><path class="a" d="M256.87 236.442h-32.3l-16.149-27.971 16.15-27.973h32.3l16.149 27.971z"/><path class="a" d="M248.209 221.443h-14.978l-7.488-12.971 7.49-12.974h14.978l7.488 12.971z"/></svg>