<svg xmlns="http://www.w3.org/2000/svg" width="208.787" height="180.815"><defs><style>.a{fill:none;stroke:#000;stroke-miterlimit:10}</style></defs><path class="a" d="M52.485.5L.577 90.407l51.908 89.907h103.816l51.908-89.907L156.301.5z"/><path class="a" d="M152.557 173.83H56.229L8.065 90.407 56.229 6.984h96.328l48.164 83.423z"/><path class="a" d="M148.813 167.346H59.976l-44.42-76.938 44.42-76.939h88.841l44.42 76.938z"/><path class="a" d="M145.069 160.861H63.716L23.039 90.407l40.677-70.454h81.353l40.677 70.454z"/><path class="a" d="M141.326 154.377H67.461L30.529 90.408l36.933-63.97h73.865l36.932 63.969z"/><path class="a" d="M137.582 147.892H71.205L38.016 90.408l33.189-57.485h66.377l33.189 57.484z"/><path class="a" d="M133.838 141.407H74.949l-29.445-51 29.445-51h58.889l29.445 51z"/><path class="a" d="M130.094 134.923h-51.4l-25.7-44.515 25.7-44.516h51.4l25.7 44.515z"/><path class="a" d="M126.35 128.438H82.436L60.479 90.407l21.957-38.031h43.914l21.957 38.031z"/><path class="a" d="M122.606 121.954h-36.43L67.963 90.408l18.214-31.547h36.426l18.213 31.546z"/><path class="a" d="M118.862 115.469H89.924L75.455 90.408l14.47-25.062h28.938l14.469 25.062z"/><path class="a" d="M115.118 108.984H93.667L82.942 90.407l10.726-18.578h21.451l10.725 18.577z"/><path class="a" d="M111.376 102.5H97.413l-6.981-12.092 6.982-12.093h13.962l6.981 12.092z"/><path class="a" d="M107.63 96.015h-6.475l-3.237-5.608 3.238-5.609h6.475l3.237 5.608z"/></svg>