<svg width="499" height="371" fill="none" xmlns="http://www.w3.org/2000/svg"><path d="M121.688 3.555a1.275 1.275 0 001.254-1.525 1.279 1.279 0 00-1.003-1.004 1.278 1.278 0 10-.251 2.529z" stroke="#000" stroke-miterlimit="10"/><path d="M153.914 4.9a6.386 6.386 0 00-5.888-3.9h-20.588a1.279 1.279 0 00-.903 2.18c.24.24.565.375.903.375h20.588a3.847 3.847 0 013.833 3.833v29.386h-60.3V7.388a3.848 3.848 0 013.833-3.833h20.552a1.28 1.28 0 001.279-1.278A1.28 1.28 0 00115.944 1H95.388A6.382 6.382 0 0089 7.388v34.5a6.4 6.4 0 006.388 6.388h21.209v3.194h-4.471a6.402 6.402 0 00-6.391 6.389 1.28 1.28 0 001.279 1.277h29.385a1.28 1.28 0 001.279-1.277 6.403 6.403 0 00-6.389-6.389h-4.473v-3.194h21.209a6.4 6.4 0 006.39-6.388v-34.5a6.347 6.347 0 00-.501-2.488zm-28.373 49.121h5.749a3.84 3.84 0 013.612 2.555h-26.391a3.837 3.837 0 013.614-2.555h5.749a1.272 1.272 0 00.903-.374 1.269 1.269 0 00.373-.904v-4.472h5.111v4.472c0 .168.032.335.096.49a1.293 1.293 0 00.694.693c.155.064.322.097.49.097v-.002zm26.318-12.138a3.835 3.835 0 01-3.833 3.833h-52.64a3.838 3.838 0 01-3.831-3.833V39.33h60.299l.005 2.553z" stroke="#000" stroke-miterlimit="10"/><path d="M105.864 20.934l-4.02-6.531a1.278 1.278 0 00-2.366.67v10.2a1.277 1.277 0 102.554 0v-5.691l3.788 6.149a1.41 1.41 0 001.578.654 1.445 1.445 0 001.024-1.456v-9.877a1.278 1.278 0 00-2.558 0v5.882zm6.389-7.157a1.278 1.278 0 00-1.277 1.277v10.221a1.276 1.276 0 001.277 1.278h4.344a1.279 1.279 0 100-2.555h-3.067v-2.555h3.067a1.277 1.277 0 000-2.556h-3.067v-2.555h3.067a1.279 1.279 0 00.903-2.18 1.279 1.279 0 00-.903-.375h-4.344zM140.293 24a2.118 2.118 0 01-1.694-.969 1.282 1.282 0 00-1.324-.518 1.279 1.279 0 00-.776 1.981 4.673 4.673 0 003.79 2.061 3.7 3.7 0 003.547-2.978 3.931 3.931 0 00-2.312-4.482c-.236-.113-1.78-.842-2.045-1.052a1.118 1.118 0 01-.195-.421 1.136 1.136 0 01.502-1.215c.8-.315 1.644.538 1.676.571a1.278 1.278 0 001.877-1.734 4.208 4.208 0 00-4.485-1.217 3.639 3.639 0 00-2.106 2.745 3.64 3.64 0 001.138 3.268 21.6 21.6 0 002.535 1.36 1.372 1.372 0 01.923 1.611 1.183 1.183 0 01-1.055.989h.004zm-18.842-10.2a1.282 1.282 0 00-.81.548 1.27 1.27 0 00-.184.96s2.1 10.193 2.12 10.253a1.521 1.521 0 001.425.989h.01a1.515 1.515 0 001.421-1.009c0-.011 2.025-6.3 2.025-6.3l2.021 6.316a1.52 1.52 0 001.425.989h.011a1.516 1.516 0 001.421-1.009c.02-.054.125-.546.125-.546l2-9.667a1.278 1.278 0 00-2.5-.517l-1.27 6.141s-2.041-6.364-2.056-6.384a1.28 1.28 0 00-1.234-.775 1.275 1.275 0 00-1.157.886l-2.017 6.274-1.264-6.159a1.277 1.277 0 00-1.509-.994l-.003.004zM19.154 259.869a.168.168 0 01-.154-.154V98.788a.209.209 0 01.11-.146h.059c.065 0 .08.013.116.071l97.905 158.956a4.254 4.254 0 01-1.125-1.246L19.308 99.334v160.381a.163.163 0 01-.048.105.164.164 0 01-.106.049zm109.432-8.163l24.671-36.837v43.129l-24.671-6.292zm-8.819-153.218a.168.168 0 01.049-.106.17.17 0 01.107-.047.166.166 0 01.153.153v157.536l-.31.57.001-158.106zm247.387 122.038a4.578 4.578 0 01-2.216-2.255c-2.3-7.174-27.457-85.777-32.561-101.727l-19-59.393-19.086 59.368c-.191.6-30.7 95.514-32.682 101.653a4.454 4.454 0 01-2.219 2.346l53.27-165.733a.673.673 0 011.162-.255c2.819 8.539 20.884 64.784 32.777 101.879l20.555 64.117zM405.788 54.86a.735.735 0 01.668-.564c.049 0 .099.006.147.017a.639.639 0 01.454.3.64.64 0 01.099.524l-21.962 106.275 29.414 12.494a38.915 38.915 0 00-1.753 7.078 40.618 40.618 0 00-.374 3.486l-31.976-.379-5.715 27.66a428.921 428.921 0 01-1.491 6.707 4.474 4.474 0 01-1.709 1.856L405.788 54.86zM254.904 220.302a4.54 4.54 0 01-1.526-1.521c-.224-1.052-.581-2.755-1.158-5.512l-1.611-7.7-3.155-15.228c-9.772-47.172-27.845-134.941-27.96-135.5a.716.716 0 01.7-.841.731.731 0 01.67.559l34.04 165.743z" stroke="#000" stroke-miterlimit="10"/><path d="M465.368 207.999c-3.224-1.545-24.28-11.477-27.874-14.344-2.059-1.641-3.7-6.2-2.867-11.723.3-1.954 1.678-8.491 7.028-10.585 10.976-4.288 22.424 7.333 22.861 7.783a17.417 17.417 0 0025.591-23.634c-10.147-11.076-34.44-27.034-61.144-16.589a44.44 44.44 0 00-20.528 16.482l20.299-98.249a20.696 20.696 0 00-8.561-21.484 20.704 20.704 0 00-23.126-.142 20.708 20.708 0 00-8.855 13.251l-20.56 99.486s-33.059-103.1-33.301-103.425a20.684 20.684 0 00-38.726 1.792l-32.669 101.643-20.488-99.772a20.7 20.7 0 00-40.552 8.331s18.026 87.555 27.966 135.533a18.025 18.025 0 00-11.124-3.839h-61.599a18.097 18.097 0 00-15.063 8.053V96.447a20.155 20.155 0 10-40.31 0v92.752L38.312 86.179A20.152 20.152 0 001 96.747v160.926a20.154 20.154 0 0040.309 0v-89.774l59.739 96.986c5.463 8.853 15.47 13 24.894 10.327a21.45 21.45 0 0013.079-10.524v86.895a18.123 18.123 0 0018.116 18.116h61.599a18.118 18.118 0 100-36.237h-43.484v-36.237h43.484a18.118 18.118 0 100-36.237h-43.484v-36.237h43.484a18.12 18.12 0 0015.901-9.428c.986 4.719 1.572 7.479 1.618 7.6a24.625 24.625 0 0023.077 16.025h.173a24.623 24.623 0 0023.02-16.344c.064-.186 32.8-102.01 32.8-102.01s32.651 102.045 32.755 102.329a24.633 24.633 0 0023.077 16.025h.172a24.626 24.626 0 0023.023-16.344c.311-.884 2.021-8.849 2.021-8.849l4.049-19.587c1.956 10.743 7.276 20.283 15.342 26.719 6.775 5.408 31.399 17.023 34.552 18.535 13.8 6.61 13.813 16.6 12.592 21.969-1.517 6.694-6.948 13.475-14.381 13.475-8.7 0-17.332-4.936-23.099-13.2a17.426 17.426 0 00-24.256-4.323 17.423 17.423 0 00-4.323 24.256c12.282 17.6 31.599 28.106 51.672 28.106 23.041 0 42.926-16.694 48.355-40.6 5.731-25.206-6.638-49.187-31.508-61.106z" stroke="#000" stroke-miterlimit="10"/><path d="M155.14 358.761a8.128 8.128 0 01-8.119-8.119v-86.895l-18.779-4.789a11.446 11.446 0 01-7.03 5.693 11.09 11.09 0 01-3.02.423 12.674 12.674 0 01-10.635-6.382L29.309 131.655v125.08a10.154 10.154 0 01-20.309 0V95.808a10.15 10.15 0 0110.151-10.152 10.087 10.087 0 018.647 4.83l81.967 133.078V95.508a10.157 10.157 0 0110.155-10.155 10.157 10.157 0 0110.155 10.155V228.53l18.31-27.337a8.112 8.112 0 016.754-3.617h61.599c1.804 0 3.556.607 4.973 1.723l5.455 4.258-3.3 6.024a8.132 8.132 0 01-7.128 4.232h-53.484v56.237h53.484a8.117 8.117 0 015.741 13.859 8.117 8.117 0 01-5.741 2.378h-53.484v56.237h53.484a8.117 8.117 0 015.741 13.859 8.117 8.117 0 01-5.741 2.378H155.14zm291.388-59.993c-16.81 0-33.061-8.908-43.472-23.829a7.408 7.408 0 01-1.234-5.552 7.431 7.431 0 013.062-4.794 7.423 7.423 0 018.254-.158 7.44 7.44 0 012.087 2.014c7.641 10.947 19.342 17.482 31.305 17.482 12.68 0 21.738-10.7 24.133-21.265 3.155-13.865-3.581-26.279-18.023-33.2l-.73-.348c-24.5-11.683-30.614-15.953-31.905-16.984-6.017-4.8-10.186-12.15-11.741-20.7l-19.632-.232-4.048 19.587c-.639 2.971-1.466 6.688-1.748 7.789a14.595 14.595 0 01-13.572 9.428h-.101a14.628 14.628 0 01-13.635-9.326c-1.287-3.994-21.792-68.07-32.673-102.075l-9.5-29.7-9.543 29.684c-.317.993-31.514 98.034-32.75 101.864a14.582 14.582 0 01-13.617 9.55h-.099a14.638 14.638 0 01-13.492-8.962c-.165-.762-.545-2.546-1.416-6.714l-1.611-7.7-3.16-15.254c-9.824-47.424-27.784-134.646-27.964-135.522A10.712 10.712 0 01220.199 41a10.728 10.728 0 0110.466 8.548l28.154 137.084 44.325-137.9a10.685 10.685 0 019.555-7.412 10.682 10.682 0 0110.35 6.256c1.721 5.089 20.569 63.777 33.075 102.782l11.615 36.228 28.262-136.743a10.698 10.698 0 0119.418-3.714 10.628 10.628 0 011.537 8.04l-20.3 98.25 18.049 7.667a34.544 34.544 0 0115.916-12.813 38.762 38.762 0 0114.168-2.71c15.221 0 28.884 9.019 35.96 16.742a7.42 7.42 0 11-10.899 10.068l-.159-.167c-1.912-1.962-12.1-11.753-24.92-11.753a23.93 23.93 0 00-8.744 1.634c-6.983 2.732-11.945 9.611-13.276 18.4-1.3 8.588 1.261 16.846 6.521 21.039 2.182 1.741 7.173 4.768 28.717 15.032l1.072.511c20.811 9.97 30.8 29.08 26.08 49.871-4.397 19.335-20.272 32.828-38.613 32.828z" stroke="#000" stroke-miterlimit="10"/></svg>