<svg xmlns="http://www.w3.org/2000/svg" width="47.058" height="47.185"><defs><clipPath id="a"><path fill="none" d="M0 0h47.059v47.185H0z"/></clipPath><style>.c{fill:#fff}</style></defs><g clip-path="url(#a)"><path class="c" d="M40.015 28.982a6.179 6.179 0 00-9.188.5 2.369 2.369 0 01-3.291.407 53.3 53.3 0 01-5.454-4.771 54.1 54.1 0 01-4.889-5.608 1.964 1.964 0 01.412-2.776 6.189 6.189 0 00.773-9.4l-5.5-5.484a6.185 6.185 0 00-9.665 1.186L1.256 6.288a8.828 8.828 0 00-.8 7.367 48.54 48.54 0 005.116 10.594 57.022 57.022 0 007.753 9.62 57.1 57.1 0 009.62 7.753 48.842 48.842 0 0010.313 5.024 8.918 8.918 0 007.858-1.047l3.058-2.078a6.184 6.184 0 00.893-9.483zm2.629 9.609a1.918 1.918 0 01-.843 1.428l-3.058 2.079a4.648 4.648 0 01-4.105.539 44.183 44.183 0 01-9.413-4.591 52.457 52.457 0 01-8.9-7.177 52.641 52.641 0 01-7.178-8.9 44.353 44.353 0 01-4.676-9.668 4.628 4.628 0 01.422-3.844l1.95-3.253a1.955 1.955 0 011.438-.931 1.851 1.851 0 01.241-.016 1.946 1.946 0 011.377.572l5.487 5.49a1.95 1.95 0 01-.241 2.967 6.182 6.182 0 00-1.323 8.758 57.133 57.133 0 005.272 6.05 58.273 58.273 0 005.882 5.146 6.6 6.6 0 009.152-1.121 1.957 1.957 0 012.907-.153l5.058 5.055a1.974 1.974 0 01.556 1.57zM27.913 4.242a17.4 17.4 0 0114.912 14.913 2.117 2.117 0 002.094 1.835 1.751 1.751 0 00.287-.021 2.111 2.111 0 001.813-2.38A21.643 21.643 0 0035.071 2.041a21.641 21.641 0 00-6.6-1.994 2.116 2.116 0 00-.562 4.194zm0 0"/></g><path d="M26.341 10.619a10.885 10.885 0 016.944 3.163 10.854 10.854 0 013.164 6.944 2.114 2.114 0 002.11 1.967 1.433 1.433 0 00.146-.005 2.112 2.112 0 001.963-2.258A15.131 15.131 0 0026.639 6.389a2.118 2.118 0 00-.3 4.226zm0 0" fill="#f7e143"/><path class="c" d="M22.66 15.411v.032a.286.286 0 01.015.069c.008.01.008.026.013.037l.015.063a.135.135 0 01.012.037.177.177 0 00.022.058c0 .01.009.026.015.037s.015.037.02.058.012.026.019.037a.12.12 0 00.027.058c0 .011.008.021.012.037a.317.317 0 01.027.058l.017.032c.01.021.022.037.031.058a.08.08 0 00.019.026.716.716 0 00.038.061.215.215 0 01.015.021c.018.021.032.048.05.069 0 .005 0 .011.009.011a2.831 2.831 0 00.2.232l.07.069a.023.023 0 00.009.014.746.746 0 00.058.053l.013.016c.022.016.039.032.062.048a.114.114 0 00.02.016.3.3 0 00.061.042c0 .005.012.01.02.016s.041.027.059.042c0 .005.015.01.021.015s.042.027.062.037.017.01.02.016a.385.385 0 01.065.037c0 .005.015.005.021.011s.046.021.068.032c0 .005.011.005.018.01.024.011.051.021.083.037l.012.005a1.225 1.225 0 00.188.064s.013.005.017.005c.027.005.055.015.079.021s.023.005.033.005a.254.254 0 00.064.011c.007 0 .025.005.036.005s.043.005.058.011.027.005.042.005.037.005.059.005a.141.141 0 01.047.005.24.24 0 01.061.005h.095a.505.505 0 00.088-.005h.036c.044-.005.089-.005.129-.01a4.355 4.355 0 013.67 1.248 4.347 4.347 0 011.246 3.676 2.118 2.118 0 001.825 2.37 2.509 2.509 0 00.275.016 2.114 2.114 0 002.089-1.851 8.535 8.535 0 00-2.449-7.209 8.575 8.575 0 00-7.207-2.454 2.111 2.111 0 00-1.825 2.37c.01.031.015.063.026.1zm0 0"/></svg>