<svg xmlns="http://www.w3.org/2000/svg" width="2081.82" height="162.699" viewBox="0 0 2081.82 162.699"><defs><style>.a{fill:#fff;}</style></defs><g transform="translate(0 0.02)"><path class="a" d="M-29.16,569.17c-4.71.6-8.84-2.48-7.08-3.89-9.57,3.84-9.81-.44-11,6.86-6.13,3.63-12.74-1.28-5.75-4.29l-17.73,4.6,10.63,1c-2.85,6.09-17-1.69-20.3,5.41l19.22-.73-.94,2c4.36-2.2,12.87-1.36,15.84-.54-.46,1-.15,2.63-3.54,2.83,23.22.29,6.17-10.65,25.42-12.81a11.779,11.779,0,0,1-4.77-.44Z" transform="translate(80.39 -458.96)"/><path class="a" d="M-9.33,583.87l8-7.66,13.6,1.86c.13-2.63,10-4.82,3.29-7.08a16.141,16.141,0,0,1-6,1c1.47-5.68,18-3,14-8.68-10.73,1.59-12.39.35-19,5-9.85-.46-17-1.71-21.65-3.74-2.92.88-3.3,4.36-7,5.08.82-.09,1.57-.18,2.52-.23L-21,578c3.09-1.83,6-1,9.46-1.2l-15.83,10.08c5.19,7.95,20.78,3.15,27.05,6.42C-8.14,586.12,5.79,589.63-9.33,583.87Z" transform="translate(80.39 -458.96)"/><path class="a" d="M-24,569.65h-.39A1.276,1.276,0,0,0-24,569.65Z" transform="translate(80.39 -458.96)"/><path class="a" d="M1164,515.35a5.07,5.07,0,0,0,4.88-3.17l-38.09.06c1.19,2.25,12.15,5,4.82,6.37,3.26,2.49,13.22.39,14.68-2.63l-2.77,3.41c8.78-4.36,14.75,4.26,9,6.83l.73-.05,24.35-16.78C1172.66,508.38,1174.69,515.17,1164,515.35Z" transform="translate(80.39 -458.96)"/><path class="a" d="M1945.76,529.14c-4.94.74-5.55,1.55-5,2.38A20.259,20.259,0,0,0,1945.76,529.14Z" transform="translate(80.39 -458.96)"/><path class="a" d="M1187.28,505.45l7.63-5.25a25.94,25.94,0,0,0-7.63,5.25Z" transform="translate(80.39 -458.96)"/><path class="a" d="M1134.35,585.51a1.34,1.34,0,0,0,.1.9l3.42-2.69h-.09C1136.53,584.32,1135.39,584.91,1134.35,585.51Z" transform="translate(80.39 -458.96)"/><path class="a" d="M1360.15,486.58c.82-.14,1.53-.19,2.5-.36A11.939,11.939,0,0,0,1360.15,486.58Z" transform="translate(80.39 -458.96)"/><path class="a" d="M1031.28,615.48l16.91-5.05c-2.25,2.4,5.9,1.69,2.34,4.49,1.29-.38,7.33-1.33,5.68-2.56l-3.45.14c8.92-7,3.53-9.67,18.32-15-9.18-4.17-13.21-.37-18.07,2.81a42.182,42.182,0,0,1-4.43,1l-14.06,9.76Z" transform="translate(80.39 -458.96)"/><path class="a" d="M1709.72,567.15l-.19.54a.69.69,0,0,0,.19-.54Z" transform="translate(80.39 -458.96)"/><path class="a" d="M1708.78,569.93l.75-2.24C1708.61,568.8,1705.12,569.85,1708.78,569.93Z" transform="translate(80.39 -458.96)"/><path class="a" d="M1184.47,510a9.639,9.639,0,0,1,2.81-4.52l-5.7,3.94A27.3,27.3,0,0,1,1184.47,510Z" transform="translate(80.39 -458.96)"/><path class="a" d="M1171.5,525.22l-14.27.95-5.26,3.62C1157.43,528.43,1163.81,527.51,1171.5,525.22Z" transform="translate(80.39 -458.96)"/><path class="a" d="M1337.65,482.3c29.54-.86-7.29,8.18,6.27,10.26,8.21-.91,11.12-4.79,16.23-6-23.44,3.17,3.24-12.86-20.39-10.95,3.39-7.05,17.07-7.58,25.08-5.61,9,6.87-7.95,4.93-10,11.59,9.48-1,7.82-2.29,11.86-6.06,14.88,1.69,30.84-8.15,39.68,1.36,10.79-1.43,10.09-4.69,16.31-8.24,1.27-7.28-16-3.94-20-9.71.82.62,2.43,1.87,2,2.89l-9.3-1.61c8.83,2.61-1.27,7.28-6,7.82-3.44.13-10.27.4-9.32-1.61l5.21-1.53c-6.69-2.35-14.81,5.21-21.86,1.21-.37-1.64,2.32-2.39,2.73-3.4-8,4.93-15.6,4.57-27.35,8l6.83-7.18c-9.42,7.94-30.67,5.51-45.38,1.18,1.63,1.24,4.57,2.12,2.8,3.5-8.67,1.67-15.18-3.34-11.15-7.12-8.47,5.91-32.22-5.2-43.78,2.54l-53.15,36.54a22.3,22.3,0,0,1,6.3-2c4.8,6.36,7.4,5.6-1.07,11.55,8.3-3.32,5.15-8.43,17.61-8.65-4.9,3.18-6.16,10.46,5.76,11.26,14.92-3.11,27.34-9.16,39.52-15.57s24.12-13.17,38-17.67c1,4.89,22.87,3.68,33.48,4.91-4.08,5.22-12,6.66-20.15,7.66,5.13.37,14,.58,20.52.85Z" transform="translate(80.39 -458.96)"/><path class="a" d="M1268.37,498.28a9.615,9.615,0,0,0,2.3.92,4.19,4.19,0,0,0-2.3-.92Z" transform="translate(80.39 -458.96)"/><path class="a" d="M1311.92,491.56a1.4,1.4,0,0,0-.11.53l2.6-.36C1313.53,491.69,1312.54,491.62,1311.92,491.56Z" transform="translate(80.39 -458.96)"/><path class="a" d="M1191.42,521c-1.78,1.4-3.09,1.78-4.86,3.19,1.09-.48,2.46-.85,3.78-1.27C1191.59,522.29,1192.19,521.63,1191.42,521Z" transform="translate(80.39 -458.96)"/><path class="a" d="M1185.48,512.42l1-2c-.76-.23-1.29-.28-2-.44A2,2,0,0,0,1185.48,512.42Z" transform="translate(80.39 -458.96)"/><path class="a" d="M1450.29,527.34l2.84-1C1451.42,526.37,1450.69,526.8,1450.29,527.34Z" transform="translate(80.39 -458.96)"/><path class="a" d="M1370.51,490.84c-10.27.4-1.26,7.29-15.79,7.22l4.26.48c-10.44,3-28.75,1.48-41.14,1.65,1.41-2.9-7.5-3.6-6-8.1-8.47,1-16.86,1.94-21.25,6.57-5.23-1.57-13.22,2.49-19.89.54,2.81,2.75-9.54,9.2,6.71,5.93-1.31.37-.49,1-1.79,1.37,10.45,3.85,14.67-2.55,23.68-2.59,5.37,2.74-8.83,4.29-3.76,5.41,11.26-2.43,35.28,3.5,34.59-6.65,8.18-.66,9.3,1.59,11.74,3.46,13-10.71,48,5,48-8.83-4.73.51-12.43.16-19.38,3.07Z" transform="translate(80.39 -458.96)"/><path class="a" d="M1208.67,520.38a15.227,15.227,0,0,1,2,.15C1210.08,520.46,1209.35,520.41,1208.67,520.38Z" transform="translate(80.39 -458.96)"/><path class="a" d="M1079.08,480l4.31-9c24.49-2.13,33.34.42,54.74.13,1.64,1.24-1,2-2.28,2.41,15.05-1,37.56.94,48.53-3.18,4.79.08,17.35,3,12.59,5.63a18,18,0,0,1,7.67-1.25c.7,3.25-6,.9-6.16,3.56,2.12.23,3,.86,3.44-.16-3.58,2.79,3.67,11-13,10.77-6.43-7.6,11.56-.85,7.78-9.23-5.53-.07-4.9,3.17-5.38,4.19-7-.21-6.85-2.31-6.47-4.22-2.71,2.59-11.56-1-15.3,2.89-13.7.61.77-6.29-8.18-6.21l-5.18,8.46-14.88-1.64c-21.54,2.93,3,14.66-21.57,19.39,3.24-4.41-6.62-11.88-18.07-13.66,6.86-.31,19.54-5.8,28.38-3.26-12.46-6.67,17.17-.75,10.72-8.37-6.18,3.58-16.46,4-24.47,2.08l2.63-.77c-8.53-.93-15,7.93-26.76,4.53-5.84.27-4.75-2.13-3.72-4.11C1083.52,480.26,1079.09,481.91,1079.08,480Zm12.74-1.76,7.82.85c-1.85-1.36-4.77-1.32-7.82-.81Z" transform="translate(80.39 -458.96)"/><path class="a" d="M100,582c-.78-.22-1.68-.43-2.38-.67A5.259,5.259,0,0,0,100,582Z" transform="translate(80.39 -458.96)"/><path class="a" d="M793.38,581.47l-4.53-.27A21.918,21.918,0,0,0,793.38,581.47Z" transform="translate(80.39 -458.96)"/><path class="a" d="M691.93,609.77l-6.6,2a14.709,14.709,0,0,0,6.6-2Z" transform="translate(80.39 -458.96)"/><path class="a" d="M153.92,582.16l.22.06c.37-.15.65-.34,1-.46Z" transform="translate(80.39 -458.96)"/><path class="a" d="M488.19,590.86A13,13,0,0,0,484.5,589C484.69,589.85,486.07,590.45,488.19,590.86Z" transform="translate(80.39 -458.96)"/><path class="a" d="M693.14,609.4c-.16-.08-.26-.1-.4-.16a9.439,9.439,0,0,1-.81.53Z" transform="translate(80.39 -458.96)"/><path class="a" d="M838.15,606.09c1-.27,1.85-.48,2.89-.84a7.87,7.87,0,0,0-2.89.84Z" transform="translate(80.39 -458.96)"/><path class="a" d="M831.73,582.08a13.137,13.137,0,0,0,2.81-.85Z" transform="translate(80.39 -458.96)"/><path class="a" d="M988.17,598.4l6.08-1.22A15.739,15.739,0,0,0,988.17,598.4Z" transform="translate(80.39 -458.96)"/><path class="a" d="M847.86,587.59a8.7,8.7,0,0,0,.94-1.16C848,586.7,847.56,587.2,847.86,587.59Z" transform="translate(80.39 -458.96)"/><path class="a" d="M61,557h.37l.15-1Z" transform="translate(80.39 -458.96)"/><path class="a" d="M46.31,569.44c-1.74.27-3.56.5-5.34.74a16.1,16.1,0,0,0,5.34-.74Z" transform="translate(80.39 -458.96)"/><path class="a" d="M399.62,577.73c-1.62-1.22-5.41-2.66-3.65-4.07C392.89,575.45,393.12,579.74,399.62,577.73Z" transform="translate(80.39 -458.96)"/><path class="a" d="M90.36,503.71A17.629,17.629,0,0,1,87,506.62C89.24,505.37,91.21,504.34,90.36,503.71Z" transform="translate(80.39 -458.96)"/><path class="a" d="M87,506.62c-1.11.62-2.3,1.27-3.29,1.94A21.539,21.539,0,0,0,87,506.62Z" transform="translate(80.39 -458.96)"/><path class="a" d="M440.26,507.14a2.82,2.82,0,0,0,1.87,1.2,1.38,1.38,0,0,0-1.87-1.2Z" transform="translate(80.39 -458.96)"/><path class="a" d="M36.63,568.85c-.94,2-24.19,6.59-4.6,7.48-.71,6.29-12.54,3-17.75,4.6,3.8,1.44-1.86,4.05-.69,6.29,2.58-.79,5.65-2.61,9.93-2.2,2,2.86-4.49,4.86-9.57,3.82,6.27,3.28-7.89,5,1,7.53,18.89-2.36,32.23-4.75,45.45-14-10.76,1.59-22.8,3.56-31.66,1.1L32.39,578c10,4.72,16.16,1.1,26,1.53L36.3,576.81c-10.37-4.45-3.46-5.55,4.68-6.59C39,570.12,37.15,569.81,36.63,568.85Z" transform="translate(80.39 -458.96)"/><path class="a" d="M51.15,521l-.37-.15a3.872,3.872,0,0,0-.93.55Z" transform="translate(80.39 -458.96)"/><path class="a" d="M987.05,488.31l1.89-2.06C987.36,487.18,986.87,487.82,987.05,488.31Z" transform="translate(80.39 -458.96)"/><path class="a" d="M64.5,547.26h0C64.64,547.2,64.67,547.2,64.5,547.26Z" transform="translate(80.39 -458.96)"/><path class="a" d="M939.85,487.89a2.647,2.647,0,0,1,.25-.46C939.93,487.59,939.93,487.75,939.85,487.89Z" transform="translate(80.39 -458.96)"/><path class="a" d="M927.33,605.21a1.92,1.92,0,0,0,.31.73C928.65,605.64,928.16,605.38,927.33,605.21Z" transform="translate(80.39 -458.96)"/><path class="a" d="M939.81,488.4a1.291,1.291,0,0,1,0-.51C939.81,488.07,939.73,488.24,939.81,488.4Z" transform="translate(80.39 -458.96)"/><path class="a" d="M710.41,508.85a11.79,11.79,0,0,0,1.87,1.83C712.72,510.18,712.28,509.59,710.41,508.85Z" transform="translate(80.39 -458.96)"/><path class="a" d="M755.72,516.76a9.256,9.256,0,0,0,.82.6Z" transform="translate(80.39 -458.96)"/><path class="a" d="M410.47,602.16a26.341,26.341,0,0,0,5.34-.32,18.368,18.368,0,0,0-5.34.32Z" transform="translate(80.39 -458.96)"/><path class="a" d="M940.1,487.43a10.093,10.093,0,0,1,2.26-1.91,8.371,8.371,0,0,0-2.26,1.91Z" transform="translate(80.39 -458.96)"/><path class="a" d="M641.48,536.59c.48-.21.93-.42,1.38-.6-.27-.11-.55-.15-.82-.27Z" transform="translate(80.39 -458.96)"/><path class="a" d="M617.83,532.68a8.619,8.619,0,0,0,1.62-1.82c-8.42,2.3-23.92-.1-25.73,5.7,2.86-.16,17.71,3.18,15.2,6.58,5.87-1.47,14.57,2.55,17.74,1.59-9.67-3.13-1.07-4.88,5.44-6.86,5.93,1.67-1.1,4.66,4,5.71l13.7-.69-11.94-.72,3.61-5.58c-.45.19-.75.31-1.22.54C620.07,539.8,638.51,529,617.83,532.68Z" transform="translate(80.39 -458.96)"/><path class="a" d="M619.45,530.86a11.251,11.251,0,0,0,3.24-1.38,3.83,3.83,0,0,0-3.24,1.38Z" transform="translate(80.39 -458.96)"/><path class="a" d="M536.87,522.06a31.556,31.556,0,0,0-3.57.9C534,522.74,535.53,522.47,536.87,522.06Z" transform="translate(80.39 -458.96)"/><path class="a" d="M1141.84,528.84c-.35-1.64-12.12-5-11.92-.76l10.55,1.37Z" transform="translate(80.39 -458.96)"/><path class="a" d="M312.17,548.23a27.3,27.3,0,0,0,3.94.09,8.809,8.809,0,0,0,.76-.67C316.07,547,313.48,547.82,312.17,548.23Z" transform="translate(80.39 -458.96)"/><path class="a" d="M605.29,545.17c2.15-.67,3.11-1.35,3.63-2A6.57,6.57,0,0,0,605.29,545.17Z" transform="translate(80.39 -458.96)"/><path class="a" d="M311.36,538.07c-1.67-1.22-4.15-3.06-4.51-4.69-3.41,0-5.8,2.24-9.27,3.07a27.54,27.54,0,0,1,13.78,1.62Z" transform="translate(80.39 -458.96)"/><path class="a" d="M297.3,536.52l.28-.07A1.28,1.28,0,0,0,297.3,536.52Z" transform="translate(80.39 -458.96)"/><path class="a" d="M1148.84,530.68c1-.33,2.06-.62,3.13-.89l-1.63,1.14c2.71.42,5.4.85,8.09,1.32a20.276,20.276,0,0,1,3.34-.67,2,2,0,0,0-1.18,1.06l2.59.51c6.46-4.41,22.52-7.61,27.16-10.2,6.13-1.89,13.63-2.93,18.33-2.57-4.36-.1-10.15.77-8.42,3.22,8.85,2.59,13.12,10,28.41,3.7l-9,.06,20.18-9.43c7,4-10.08,4.71-12.89,8.12,15.69-4.62,28.66,8,36-.25,1,4.88,2.68,13,13,12.59-7.38-5.6,6.17-3.55.12-9.53,3.57-2.79,11.46,1.82,12.07-1.83l-1,2c17.51,7.85,23.31-4.22,30.83-8.15,21-1.84,30.66,1.39,47.8.69.65,3.28,5.27,12.31,12.15,12,3.22-4.4,18.73-6.34,20.34-12-12.27-2.46-10.07,4.68-17.44,6-6.09-6-.53-5.89-8.87-9.5,6.74,2.36,30.52-2.88,37.88,2.75l-2.61.76c11.78,3.47,14,17.52,33.67,9.17l9.4-3.41a7.092,7.092,0,0,0-.75,1.74c15.36.7,11.13,7.11,28.11,2.15-1.31.38-.49,1-1.82,1.39,9.64,3.25,19.42-3.08,26.73-4.36,4.44,4.75-1.08,4.64-3.85,8,17,2,35.38-6,46-11.72l10.95,2.86c-6.51,1.9-14.48,6.83-12.51,9.7,6-.9,4.88-3.15,13.4-2.17-1.47,3-5.06,5.81-9.09,9.58,17.6,5.18,4-10.7,16.28-1.33a9.45,9.45,0,0,0,9.4-7.94l10,4.85c1.14-4.64,13.53-4.82,21.65-5.46,1-2-6.51-5-9.59-3.23.62-3.65,9.27-5.31,14.82-5.2,2,9.77,36.37-1.14,29.75,10.3,25-3,60-3.73,76.51-7.68,5.41,2.74,16.48,2.95,9.82,7.48,20.09.19,30.5-9.75,50.42-6.94,1.64,1.24-9,0-8.32,3.28,13-3.81,23.68,4.31,43.91,1.84a5.05,5.05,0,0,0-4.88,3.17c-.35-1.62,8.3-3.3,13.54-4.83,2.93.86-3.92,1.15-2.28,2.4,39,5,68.85-8,107.69-7.3-11.09-.22-15.32,6.21-15.45,8.86l10.87.19c4.2-3.19,12.36-3.12,19.2-5.49.83,1.22,4.14,2.55.74,4.05,21.44,6.7,33.6-11.55,59.89-8l-31.93,12.81,7.86,4.59-14,5.83c8.34,3.63,15.66-4.58,16.64.33-1.77,1.37-6,.89-6.18,3.54,8,2,8.67-1.67,14.72-2.58-16,9.85-47.15,9.47-64,11.79-2.64.76,2.27-2.39,2.75-3.4-6.85.28-10.94-2.85-19.58-1.19-5.37,4.17,4.07,3.13,8.32,3.6-.61,3.66-2.74,3.42-7.48,3.94-1-4.89-26-1.92-32-7.92-25.29,1.35,4,12.67-20.7,10.37l-7.34-5.64c-14.35,4.22-32.9,7.91-49.11,6.6l3.42-.16c2.29-2.37-1.47-3.87-3.13-5.1-12.24-2.48-23.28,4.22-30.68-1.42-14,5.83-37.32,10.06-53.32,13-4.27-7.4,20.88-6.1,27.55-10.65l-14.54-.08c9,0,12.55-2.8,18-7-12.74-1.46-17,5-29.06,6.74,1-2-.65-3.24-6.23-3.34l-1.6,4.88c-.11-.4-.72-.77-2.44-1.1l-21.52,2.83c4.56,2.13,4.75,6.39,10.31,6.49-2-2.87,2.74-3.4,8.3-3.28-4.88,3.15,5.41,2.73,5.28,5.37-11.15-.22-24.84.34-32.15,1.63l-2.35-4.52c-10.62-1.22-21.85,1.21-29-.15l2.28-2.38c-12.73-1.46-25.29,1.34-36.58-3.13-11.39,5.06-25.73,9.25-35,14.56-5,5.78-33.31-7.53-46.17.55-.86-.63,8.83-4.3,13.21-6.47-8.52-1-15.33,6.21-18,.08,19.11,2.19-1-4.89,7.62-6.56-9,0-18.41,1.08-22.81,3.23,14.49.06-5.19,8.42,9.5,5.86-11.4,5.06-26.92,7-40.46,4.92.15-2.64-1.52-3.88-6.56-5l-4.1,3.8c-6.33-.75,12.28-4.44-.47-5.9-13.16,6.45-39.52-4-45.33,8.07-10-4.86,19.06-4.71,4-10.68,8.8-4.31,20.88.79,23.8-5.24-8.61,1.66-3.11-5.13-8.66-5.23l-9.61,3.66,2.12.24c-16.13,5.6-41.62,2.67-62.18,3.5-17.44,6-29.47,14.67-50.35,13.86,6.19-3.53-17.32-3.56-4.15-10-9.65-3.22-19.2.45-19.41,3.08,8.5,1,3,.87,10.14,2.22-4.84,3.17-16,3-20.55.82,2.12.25,1.31-.37,1.78-1.37-10.14-2.22-4.88,3.14-12.22,4.44-2.3-4.49-16.18-1.26-22.86-3.61l-9.74,6.35c5.35-4.18-9.29-1.57-10.81-5.44-7,2.93-12.83,8.11-23.42,6.94,4.38-2.18-9.66-3.21-9.84-7.47-18.14-4.14-30.1,11.54-47.27,5.39.54-1,4-3.78-1-4.87-4,1.18-10.89.66-15.13,1.11l.14-.11-.23.11c-2.07.23-3.38.76-3.43,1.79-7.26,4.15-11,8.41-25.28,11.91,1,4.88,13.09,3,18.31,1.46l4.51-4.8c4.29,7.37,12.87-1.25,16.14,1.24-8.57,8.62-33.21,6.41-48,11.71,9,6.8,28.6,7.92,45.7,7.14l-7.52-2.95,9-.07-8.65-5.21c8.47.93,15.81-.38,23.47-.07-9,.08-12.45-6.66-7.38-5.58,10,4.81,10.43-3.1,18.07-2.79-4.25-.46-9.79-.55-6.21-3.34,15,5.9,19.14,2.09,32.82,8.4-1.67-8.15,17.12-.75,19.2-7.4l-6.35-.71,13.5-4.86c12.42,6.68-11,6.71,7.88,11.47,17.47.89,17.06-7.66,30.8-8.23-4.55,4.79-15.46,8.89-26.55,8.71l6.71,2.35c-3.57,2.77-18.9,2.13-26.55,1.81,12.67-5.48-5.91-1.72-11.65-6.07-1.07,4.66,7,4-2.55,7.66,9,0,10.3-.44,21.71,1.36-24.68-2.2-22.26,16.08-43.79,12.11,9.94-2.08-3.45-6.73-4.64-9-4.67.56-14.16,1.64-18.06,2.79l3.51,6.75c-12.56,2.88-16.89-11.4-31.4-4.49-1.89,4,12.75,1.4,10.14,2.17-19.84,4.19-27-6.7-44.56-11.78-1,2-.8,6.28-7,9.84,1.94-4-2.62-6.11,4.32-9.07-5.89-1.71-12.87,1.25-18.07,2.82,12.26,2.38-5,5.8-7.28,8.22-6.34-.69,1.94-4,5.85-5.2-5.09-1.09-11.14-7-14-1-.19-4.26,14.26-11.19,23.72-12.28l-6.37-.69c4.39-2.17,5.21-1.56,11.53-.88-6.18-3.31-5.57-7-4.12-10,.81.62-.45,1,.32,1.61,5.09,1.09,9-.07,7.82-2.33,4.59-5.71-7-3.59-10.5-6.44l-7.78,1.13-26.48,18.34c-11.3,2.12-16.38-2.28-24.87-5.06l-2.33,4.91c-9.84-.5-19.12-2.06-12.81-8.28.35,1.64,1.65,1.25,3.79,1.49a3.319,3.319,0,0,1,1.39-1.53c.21-.29.32-.57.49-.85-10.53,1.58-17.11,2.61-17.72,2.8,17.89-7.13.9-8.92,3.89-17.63L982.34,580c11,2.76.2,4.26-3.68,5.44-1.08-4.9-14.56,0-20.9-.64l.47-1c-5.87-1.7-16.15-1.22-23.47.12.33,1.64-9,9.66-13.55,14.49,12.55,1.82,5.11,3.79,6.12,6.83-1.3-.28-3.64-.33-3.91.29-1.8,1.4,2.44,1.85,2.79,3.48,13.35-2.31,27.07-3,32.51-9.79-4.1-3.09-7,3-11.57.89,6.61-4.6,15.14-3.69,26.23-3.56l3.63,4.1,11.16-2.22c-4.66,2.17-1.86,6.46-13.56,7.28,1.49,3.86,11.6-.88,18.77.42l3.67-5.45c-1.42,3,13.92,3.62,3,7.76l-17.73,4.45,4.93,3.72-15,1,3.53-2.82c-24.08,3.78-7.1-10.84-31.34-4.4-7.58,6.59-15.73,7.32-30.59,5.73,10.75-1.49,1.1-4.65,5.14-8.47-11-2.74-14.66,2.7-20.34,5.28-2.8-3.49-4.79-6.33,5-5.84,1.22-7.29-12.88,1.28-13.78-6.23-32.46.27-26,24.28-63.91,15l1.41-3c-24.07,3.83-38,.24-60.28,2.68l-17.58-7.65c3.92-1.2,14.47-7,9.53-10.68,8.57,7.75,17.62,5,26.84,9.17.93-2-2.82-3.48-4.45-4.72,5.55,0,8.35,3.54,15.68,2.17-.36-1.6-8.37-3.52-2.33-4.48l10,4.77c13.35-2.31,6.55-11.49,22.24-9.33-2.91,4.29-8.85,10.49-14.92,11.54,7.17.9-9.55,2.6-3,5.15,10.31-6.37,15.3-1.36,29-5.36-1.61.89-2,2.13-5.41,2.53l19.92,2.63c-4.93-3.7,16.45-4.1,14.59-9.6-21.23-2.26-15,1.07-39.19-2,6.85-1.26,15.67-6.88,19.8-12a2.08,2.08,0,0,0,1.3.49c3.69-5.46-.08-6.92,0-16.45-11,6.8-18.43,1.25-31.45,5.17-2.44,5.23,7.58,6.64,14.05,5.28l-11.47,3.48,2.25-2.4-29.13-1.69c5.51-.29,7.38-3.32,10.26-5.61-3.76-.2-7.49-1.56-11.45-3.07.84,5,.33,8.5-3.34,8.41-18.75-1.14-29.18-5.58-36.11-11.25l-2.19.36c3.16,5.1-13.28,9.22-19.07,14.45.27-5.27-9.67-3.13-15.09-5.81-2.85,6.06,1,14.41,7.61,19.34,12.65-5.57,7.08-5.6,13-13.48l20.32-5.3-4.53,4.84c10.15,2.1,19.88-4.31,19.15,2-5.35,4.2-14.21,1.69-19.51,5.91l6.71,2.28c-11.82,6.21-6.08-5.93-20.41-1.58,5.29,5.32-1.29.39-7.43,4,4.95,3.71,25.24-1.6,21,7.49-7.44,4-25.11-10.56-34.95-1.5l.48-1c-14.55-1.13-19.65,4.07-25.09,7.35-6.2-2.92-14.73,1.25-21.44,1.61l.15-2.65-9.43,1c4.49-4.83,11.1.08,19.23-.65l-1-4.9c9.39,5.78,15.61-3.08,22.87-7.34-10.57,4.28-29.89-1.1-32.34,8.51l-6.6-4.97-3.13,1.8c-4.89-3.7.07-9.55,9.52-10.7,1.65,1.23,2.47,1.85,2,2.87,4.38-2.2,8.4-6,19-4.94l-5.66,2.62c13.23.31,25.25-1.63,29.76-6.47a463.447,463.447,0,0,0-55.82-2.05c-5.25,11.11-11.5,17.35-14.15,27.67-12,1.95-28.35,3.44-38.81-.29l1-2a27.821,27.821,0,0,0-13.72.73c-5.39-2.68,3.67-5.47-.09-6.92l-17.22,3.54c1-4.67,15.54-4.76,22.43-5.12-1.3.4-3.92,1.19-3.08,1.81,8,1.88,22.91-6.12,26.44.61,3.9-1.19-7.9,5,5.31,5.31,8.85,2.51,11.71-3.56,12.63-5.59.13-2.64-13.9-3.56-9-6.77-6.88.37-9.61,3.78-18.43,1.27,6.82-.35,16.07-5.75,19.72-1.66,13.48-5,11.49-17.37,5.13-18,1.53,3.88-24.6,4.89-6.89,9.89-7.92,5-22.45,5.12-32.83,8.28l.47-1-12.91,1.31c1.81-1.39,5.71-2.59,5.83-5.22l-17.85,7.17c10-4.81-6.26-3.28-10.85-5.35-1.89,4.05-8.86,7-2.15,9.32,7.55,2.9,4.37-2.2,11.22-2.55L562.27,606l-.83-.63-5.82,5.25c-13.21-.3,5.72-12.15-11.19-7l2.24,7.1c-19.6-1-44.82-8.82-58.65-5.47,3.8-4.06,5.45-10.58.17-14.4,6,1.19,18,.87,26.55.16,1.65,1.24-10.66,8.46-20,7,4.57,11.62,23.38-7.16,24.53,4.64,23.73,4,17.63-11.45,37.79-4.62.25-5.28,5.71-2.61,6.74-7.26-6-8.57-26.9.43-40-2.52,1.28-.39,3.85-1.19,4.35-2.19-9.35-1.5-13.2-.31-19.71,1.69l.82.61c-11.37,5.21-7.07-3.89-13.79-6.18-2.59.8-11.93-.67-10.41,3.19l-12.17-4.94.61,5.88c-6.84.38-8.37-3.5-14.55.12l-.26,5.27,17,1.73c-8.61,1.77-2.37,5.06-11.84,6.21,10.55-5.81-7.51-2.87-8.58-7.76l-6.95,3,1.77-1.42c-5.48-2.68-6.5,2-12.89,1.34,7.55,2.9,12.5,6.58,22.07,2.78-7,3-20.8,6.35-24.2,6.55-7.31,2.24-12.46-1.74-19.32-2.29,13.15-2.19-4.71-16,21.7-12.31-.48,1-2.62.8-3.45.18,3.56,6.71,15.82-.5,21.52-3.11-1.49-3.87,4.49-4.86-5.67-6.94,3.34,2.46-8.5,8.68-18.17,5.55l1.66-8.3-14-.91,1.31-.4c-5.32-5.31-15,1.12-24.68-2-7,3-33.79.81-22.2,9.41-8.72-5.13-16.31,1.53-25.77,2.69l11.83,3.32c-13.93,6-9.93,2.16-21.05,11.67-1.14-2.26-3.64-4.11-1.39-6.51-18.76-.31-45.58-2.49-56.54,4.37-13.23-.26-15.37-10-33.9-6.06-3.9,1.2,3.1,7.73-9.21,5.43-.83-.61,11.79-6.23-1.89-5.48-9.7,6.45-22.91-3.36-35.55,2.26-6.71-2.26-18.32-1.31-15.94-6.37,10.61,1.07,25.61-.08,27.88-2.52-1.44,3.06,7.56,2.9-.23,5.3,16.05,3.71,10.38-3.2,24.77-.69,1-2-7.43-5.54-10.5-3.71-.11-6.89,28.33-3.53,15.49-11.71-15.37-.49-19.83,13.92-33.19,6.76,5.3-4.24,13.68-.74,20.41-8l-11-2.7-7.91,5,.46-1c-19.37-6.18-17.82,7.22-35.09,10.8,10,4.71-2.23,12,5.33,14.85-11.56,1-20.06.1-20.19-6.79,21.6-5.78,1.18-7.31,21.13-14.32-3.3-2.45,4.69-10.13-7.23-10.81-13.4,5,4.06,5.72-9.32,8.09-.8-.61-1.62-1.23-1.16-2.24-6.14,3.63-7.2-1.24-14.62,2.77l1.75-1.39c-9.22-4.12-10,4.81-18,.31,3.2,5.1-5.28,4.24-10.17,7.46,8,1.88,12.43,9.2,28.25,8.67,1.88-4.06.71-6.3,7.19-8.3l-10.28.56c2.22-.68,3.9-1.73,5.93-2.55l9.89,2c-12.5,3-6.73,7.27-12,11.52-11.47-1.69-9.45,1.18-16.66-.09.68-5.94-22.18-10-35.4-13.71,2,.22,4.69,0,6.12.19,9.56-3.82-6.63-4.9-7-6.53l-7,3c1.31-.42,3.12-1.82.13-2.64-9.45,1.18-8.85,7.06-18.29,8.24-.73-3.26,7.22-8.29,1.33-10-2-2.83-8.55-10.37-21.07-7.4-.88,1.27-4.13,2-7.9,2.56a5.062,5.062,0,0,0,1.42-.55l-8.36-3.5c7.06-5.63,14.38,2.52,21.47-3.13l.57-5.31c5.55-.06,13.08-2.41,16.53-5.18-8.48-.84-10.25.57-19.71,1.74-1.35-3.34,5.3-5.88,6.26-6.25l-1.39,3c11.42,4.47,16.94-5.05,31-4.13,2.12.2.83.6.36,1.61,11.35-5.22,22.56,1.74,33.57-5.12l-3.58,2.82c7.51-2.31,22.2-7.63,36.88-12.78l.1-2.07c-1.64-1.23,3.88-1.2,6.85-.38h0c7.36-2.57,14.43-4.94,20.22-6.72a15.17,15.17,0,0,0-7-2.59c-2.29,2.44-15.83.55-13.93,6-6.27-3.27-16.3,1.56-20.91-.49,8.39,3.48-5.78,5.24-7.22,8.28-2.84-3.45-12.39.36-11.33-4.32-1.66-1.21,4.13,3.07,7.66.24,8.73-4.41-16-3.71-5.18-7.93-13.85,3.38-32.14,2.09-46.41,6.5l8,1.85c-6.37-.64-21.41.51-22.55-1.74,4.72-.58,10.24-.56,16.28-1.54.26-5.28-14.53.14-15.22-3.11l-17.5,8.86,7.69.23C56,536.87,39.9,533.12,28,532.47c6.78-7.27,18-.32,30.5-3.31,9.09-2.8-5.68-6.92,2.93-8.71-2.25-1.67-7.87-1.43-10.63.41l-3.42-1.29c7.65-6.61,24.9-5.28,36.34-11a6.19,6.19,0,0,0-2.19,2.22,55.459,55.459,0,0,0,26.44.52c-4.58-2-6.37-.62-9,.16-.34-1.62,7.79-2.38,10.86-4.2-8-1.86-1.52-3.86-6.6-4.91,5.21-1.6,9.44-1.17,15.8-.53,3.32,2.46-2.7,3.44-2,6.67,6.53-2,9.59,5.76,19.15,1.94-12.77-1.28,3.31-7.1,7.68-9.31l-2.14-.21q6-5.76,10.27-.56c-5.21,1.6-10.27.56-8.75,4.42A42.53,42.53,0,0,0,154,503.19L150.5,506l17.13-.94c2.69-3.43,7.18-8.29,9.52-13.35,4.13,3.07,9.84.45,13.73-.76l-1.8,1.43c7.58,2.87,24.38.31,25.78-2.72,5.42,2.66-38,19.51.11,16.44,14.51-.13,9-9.71,17.24-13.1a1.35,1.35,0,0,0,.36,1.61c6.36.66,7-3,12.18-4.61-3.82-1.43-9.34-1.46-11.11,0,1.89-4.05,13.24.26,18.08-3-6.27,6.26,12.29,2.29,7.41,5.52,12.66,3.92,26.13-1.1,32.74-5.72,8.62,7.75,15-1.14,29,2.38-2.14-.22-6,1-9,.16-7.9,5,14.43,2.5,2.26,7.11,2.6-.79.16-2.63-2.51-1.83-4.68.58-9.07,2.79-7.88,5l11.36,4.3-3.95,1.23,17.25,6c.46-1-1.16-2.23-2-2.85,20,2.54,42.76-1,60.25-.27,3.2-14,43-6.25,57.08-14.9-3.76,4-5.79,11.11-3.43,14-3.15.61-9.57,6.29-16.72,5.16-1.15-2.24-10-4.73-4.32-7.33-19.74,1.72,2.7,6.11-3.09,11.35,21.86-1.5,34.65-9.74,48.44-13.11l.36,1.65,10.41-3.18c-8.53-.88-8.15-8.8,2.85-6.09l-1.33.4c6.28,3.29,19.29-.69,29.08-.23l6.61-4.62c9.8.47,10.27,9,13.48,14.09,15.37.52,24.2-6.51,35.09-10.72,5,3.7,28,4.47,15.8,9,13.84-3.34,11-23.27,34.77-12.32l-6.15,3.61c22.72-.84,55.1-8.11,65.59-4.37-8.34,12.91,28.43,13,32.51,25.63-1.13-2.88,7.4-3.87,8.64-5.42,1.88,1.48,5,2.91,8.29.29-8.87-2.51,6.19-13.14-10.74-8,8.55-8.69,19.57-15.5,38.36-15.13l-.27,5.28-14.87-1.56c1.52,3.89-6.13,3.62-9.26,5.42,27.65,2.88-3.58,12.35,24.68,11.58,2.72-3.43.95-2,8.29-3.39-3.45.19-4.06,3.82,1.5,3.87l5.34-4.22c9.89,8.75-16.32,5.77-7.88,11.92-10.9,4.17-29.79,6.45-26.25,13.16,17.82,2.39,16-12.65,34.63-9.65l2,2.86c6.54-2,7.59-6.62,11.17-9.42.33,1.62,2,2.84,6.21,3.3,11-6.8,18.39-8.14,28.58-15.56-27.16,5.62-23.24-5.11-51.28-.08,4.39-2.21,24.13-3.86,25.33-11.14l-.25,5.28c9.11-2.76,18.22-5.5,29.68-3.79l-7,3c15.18-3.71,25.25,8,37.22-.86a26.259,26.259,0,0,0-10.28.52c7.81-2.37,17.61-1.87,26.11-1l17.56-8.73c-.15,2.61,11,2.76,5.62,6.94,12.65,4,18.61-3.86,25.92-5.18,13,5.58-11.22,2.51-12.49,9.79,17.86,2.43,36.77.19,46.84-4.55-3.64-1.07-5.41-2-5.23-3.26.55,1.66,7.74,1.23,11.75,1.28l2.75-3.42c6.68,2.31,5.74,4.33.06,6.92,6.39.66,14-5.93,20.57-1-10.9,4.13-24.79.53-30.47,3.1,22.78-3.38,22.93,10.43,51.8,6.09.36,1.64-4.53,4.83,1,4.87,12.89-1.26,3.37-7.06,7.39-10.87-9.92,2.13-14.53,0-20.29-4.28l2.65-2.79c.4,1.45,6.63,1.53,8.46,2.92l1.61-5.67c-.74,6.28,9.22,11.06,17.06,8.71-7.92-4.55-5.78-4.31-7.93-11.46,11-6.77,12.43,6.64,24.79-.51-.93,2-11.72,3.51-2.4,5.06,7.71.28,6.69-4.6,11.86-6.16-5.83,5.22-4.33,9.1-10.65,15.3-13.7.64-5.53-.08-18.92,2.2l11.33,4.42c-11.61.85-8.44,6-9.4,8,19.82,5.32,14.94-7.93,27.7-6.54,6.15-3.58-12-.77-2.33-4.51,11.93.77,2.72-3.41,16.11-5.67l-2.24,2.4c4.09,3.11,8.14-.71,12.88-1.23,5.21-1.58-5.88-18.18,15.54-18.5a6,6,0,0,0-1.44,3l-20.94,43.88a594.652,594.652,0,0,1,71.78,4.17c5.9,8.6-17.94,7-16.41,10.9l-11.45-1.77c.65-3.65,24-1.08,13.67-7.54-20.23,2.58-29.4-1.6-48.6,5.87,5.95,8.61,25.27-1.5,37.74,5.17a35,35,0,0,0-14,1.6q17.58,1.65,37.59,3.68l3-2.07c-9-1-15.2-1.74-16-2,11.91.78,22-4,22.78-10.25l-2.12-.23,4.31-1.95Zm772.4,6.56a6.33,6.33,0,0,0-1.73,2.17C1920,538.5,1919.46,537.91,1921.24,537.24ZM915.48,551.61c15.89.9,31.92,2.6,47.18,3.37-27.55-12.43-46.94-21.84-.94-21.61l3-.9c-6-1.52-16.38-1.71-26.14-.8-7.89,4.41-33.34,20.64-33.05,22.08,2.79,3.47,6.86-.33,11.94.73ZM904.17,530.8c-9-1.38-7,1.38-8.36,3.85l9.47-.95C904.08,533.08,903.49,532.2,904.17,530.8Zm-7.81,6.34a4.869,4.869,0,0,1,2.32.5Zm175.18,3.15c-.41.05-.55.11-.93.15l6.48.59c-.86-.41-2.5-.71-5.55-.74Zm-18.28-6.11-2.14,4.55,6.08.52c-.69-2.05-1.4-3.85-3.94-5.07Zm-58.76-15c-3.71,5.45-16.12,5.69-16.87,12-.8,1.61,1.81,2.23,4.74,2.75l10.46.52a4.14,4.14,0,0,1,2.09-2.59c-3.65-.79-6.09-2.35-4.61-6.21,9.39,8.42,8.41-6,18.57-3.85,3.23-4.4-11.3-4.36-14.38-2.58Zm-780.43,19.6a32,32,0,0,0-2.7-3.7l7.13-3.16c12.77,1.28,23.05,10.25,34.48,2.4,5.39,1.91,8.29,6,11.06,9.41a49.223,49.223,0,0,1-7.14-1.06C224.78,554.28,240,530.78,214.07,538.78Zm146.74,10.11a2.91,2.91,0,0,0-1.77,1.43c28.43-11.72,51.88-15.21,67.25-14.85-3-4.57-16.81-8-23.37-9.88l5.77-5.25,3.64,4.08,10.05-4.8c-2.84-3.49-11-2.72-16.42-5.38-.47,1-17.84,7.19-22.69,10.43l13.93,3.52c-3.76-1.43-22.2-.12-29.51,1.26-.13,2.62,12.5,6.57,14.05.89,1.53,3.87-13,4-3.79,8.1-10.87,4.2-28.22.85-36.27-1l-1.4-6.51c-8.84-2.48-5.91,7.89-16.42,4.19,12.88-1.35-2.22-7.13,8-7.69-3.3-2.44-.12-6.89-10.39-6.33-8.49,8.68-10.86-5.35-18.89,2.32-5.42-2.66,5.78-5.23-4.86-6.31-12.16,4.61-11.43,7.86-12.14,14.15,11.41,1.68,12.75-8.26,22.08-6.79l-18.47,10.88c3.43,1.5,6,1.64,8.08,1.19a20.421,20.421,0,0,0-9.57,4.48c-1.54,1.25-3,2.31-4.26,3.23,10.51,0,19.84.07,21.5,2.74l-1.43,3c3.74,2.78,9.79.55,12.57-1.7,9.41-.4,18.78-4.7,20.86-.77l-3.56,2.81C345,549.41,346.26,549,360.81,548.89ZM740,554c-7-11.14-14.8-21-47.5-18.93l2.57-.78c-16.51-7-32.1,9.39-52.19,1.69,9.72-4.25,9.2-3.86,19.9-13.53l-10.43,3.19c2.87-6.09-7.53-2.9-15.19-3.16l6.73-7.26c4.61,2.06,16.53,2.77,16.18,1.12-2.61.81,15.77,9.06,25.73,6.92-1-4.89-22.08-2.82-12.71-10.87-8.28,3.39-9.32-1.49-18,.27,8.29-3.39,2-6.69,8.19-10.29l-14.19,1.73c-.38-1.63,20.67-3.71,9-9.69-5.68,2.59-20.89-.57-21.14,4.71l-.36-1.62C626,496.41,632,505,618.88,502c-.14,2.65,2.36,4.48,7,3.91,4-1.19,4.54-4.82,12.69-5.59,3.67,4.1-9.83-.48-4.15,6.48,2.83,3.46,21.51-3.09,15.58,4.77l-10.63-1.09c-.25,5.29-7.94,5-7.71,9.28-6.49,2-12.64-4-19.26.66-2.74,3.43,2.1,9.75-8.89,7-8.61-7.78-33.87-6.13-43.33-5L552,525.94c.72,3.23,15.82-.52,10.52,3.71L549.56,531l1-2c-4.28-.43-8.65,1.77-12.55,2.95,4-3.82,13.32-2.34,11.45-7.83-6.07-1.06-7-3.09-12.58-2,1.21-.39,2.26-.94,2.1-1.71-12.29-2.32-11.82,6.21-14.89,8-12.31,7.21,12.47,6.58,10.92,12.25l-36,3.21c3.06-1.81,6.15-3.6,5-5.85-8.85-2.49-.22-4.27-12.63-3.93.92,7.51-15.6,4.77-24.34,9.16-4.11-3.06-5-3.67,4-3.81-1.06-4.88-13.07-2.93-17.35-3.36-2.47,1.23-6.69,2-9.36,3.06,3.6,2.42,2.09,5.48-5.66,7.61l-.45,1c12.74,1.27,32.54,6.5,40.49,1.45l-2.24,2.43c14.75,4.15,32-8.94,38.85.25-.61,3.65,3,.82,2.73,6.1l10.83-4.18-2.25,2.4L545,554.9l-.48,1c8.75-4.83,15.6-8.76,21.07-12,0-2.3-.56-3,2.35-4.71a13.52,13.52,0,0,1,7.14-1h0c4.53.65,7.56,3.94,13.15,5.25l-17.16.65c-1.38,3.91.1,8,8.52,10.65-3.44.17-4.86,3.22-.61,3.65.47-1,11.23-2.55,7.11-5.64,16.29-1.51,42.72,8.65,67.43,1.13-17.76,4.54,14.26,5.17-5.46,6.85,13.79,6.2,11.82-6.19,25.87-5.27,1.2,2.23-7.65-.27-10.86,4.17,23.35,2.41,39.35-10.23,61.94-8.41l1,4.87Zm44.66-6.2,13.23-1.71c-.44-.07-.84-.07-1.3-.14l13-4c-8-1.89-13.33-7.23-2.1-9.75-.94,2,2.35,4.48-1.55,5.66,7.53,2.91,24,5.71,19.73-1.65-14.45,7-3.4-9.37-14.75-4.18,6.09-4.81,12.14-2.66,17.89-4.82-6,4,1.42,9.1,10.43,11,3.92-1.19,14.53-.09,21-2-2.33-4.5,3.34-7.08-7.28-8.2a27,27,0,0,1,16.68.17c-2.68.78-7.36,1.34-7,3,4.36,4.13,9.46,4,12.28,5.71l6.72-.73A4.839,4.839,0,0,1,880,534.6l7.46-4c-9.94,2.14-4.6-2.07-4.48-4.71-.26,5.27,6.4.68,9.8.5l-7.39-5.56c3.57-2.8,12.61,4,10.74-1.5-15.68-2.2-21.71-1.24-35.88.44l5.76,4.31c-16,3.08-9.88-7.41-27.83-7.16-7.46,4-27,.34-27.35,8.25,2.24-2.42-11.2-7-17.34-3.41-6.78,7.24-27.33,8.27-21.1,11.56,5.56.07,13-3.92,17.5.78l-10.77,1.53,7.08,3.93c-3.62-1.4-3.2,2.44-1.56,8.25Zm241.12,44.13a1.542,1.542,0,0,1,.42.11,2.418,2.418,0,0,0-.46,0Z" transform="translate(80.39 -458.96)"/><path class="a" d="M54.71,556.34c-3.09,1.82-10.75,1.58-9.22,5.44C45.27,557.52,59.17,561,54.71,556.34Z" transform="translate(80.39 -458.96)"/><path class="a" d="M45.51,552.23c-.53,1-.14,2.65-3.58,2.83l9.46-1.16Z" transform="translate(80.39 -458.96)"/><path class="a" d="M35.7,523.18c-4.86,3.22-7.94,5-15.6,4.8-3-10.37,12.52-3,15.92-12.72-14.05-.87-18.3,8.24-29.84,9.21C11.94,528.76,35.33,531.09,35.7,523.18Z" transform="translate(80.39 -458.96)"/><path class="a" d="M122.22,51.05l-7.79,2.4.78.6,7.79-2.4Z"/><path class="a" d="M211.61,599.08c.72,3.25,5.57,0,8.17-.78C217.66,598.1,214.68,597.27,211.61,599.08Z" transform="translate(80.39 -458.96)"/><path class="a" d="M1745.3,603.29l59.58-2.71C1787.74,601.28,1771.91,601.58,1745.3,603.29Z" transform="translate(80.39 -458.96)"/><path class="a" d="M409.09,576.58c-16,3.16-23,8.8-39.32,10.32,21.46,6.42,28.23-10.39,46.26-3.79Z" transform="translate(80.39 -458.96)"/><path class="a" d="M403.61,602.52c-2.69-6.1,12.29-7.24,9.94-11.71-10.76,1.56-5,5.86-14.76,5.39Z" transform="translate(80.39 -458.96)"/><path class="a" d="M410.89,42.88l4.84-3.22-3.9,1.19Z"/><path class="a" d="M556.83,137.72l-1.76,1.39L563.1,141Z"/><path class="a" d="M472.92,599.49l1.76-1.42Z" transform="translate(80.39 -458.96)"/><path class="a" d="M417.05,29.71l-7.22-1.26-3.55,2.83Z"/><path class="a" d="M400.5,521.11l-6.44,2C395.34,522.71,404.18,525.18,400.5,521.11Z" transform="translate(80.39 -458.96)"/><path class="a" d="M605.8,140.06l7.83-2.39-.8-.6-7.81,2.38Z"/><path class="a" d="M450.88,504c-4.48-4.68,12.86-1.35,3.67-5.45C446.4,499.27,449.72,501.7,450.88,504Z" transform="translate(80.39 -458.96)"/><path class="a" d="M545.73,535.34a7.2,7.2,0,0,0,3.24-.71A30.277,30.277,0,0,0,545.73,535.34Z" transform="translate(80.39 -458.96)"/><path class="a" d="M545.73,535.34c-3.42,0-6.84-1.76-9.18-.39C540.82,537.05,542.37,536.25,545.73,535.34Z" transform="translate(80.39 -458.96)"/><path class="a" d="M584.87,534.06l-3.1-.32c3.16-2.34,1.66-2-1.16-.11-3.28.18-3.09,1.66-3.48,2.68-.65.57-1.3,1.19-2,1.84,1-.61,1.92-1.21,2.69-1.72C582.89,536.45,586,536.2,584.87,534.06Z" transform="translate(80.39 -458.96)"/><path class="a" d="M730.55,612.75c-11.44-1.71-14.4-2.55-13.79-6.2-10.86-1.13-9.15,5.15-15.7,6.63C713.34,612.44,715.86,614.11,730.55,612.75Z" transform="translate(80.39 -458.96)"/><path class="a" d="M701.06,613.18c-1.37.08-2.68.16-4.28.31a15.492,15.492,0,0,0,4.28-.31Z" transform="translate(80.39 -458.96)"/><path class="a" d="M619.31,35.4l7.08-5.62-2.61.79Z"/><path class="a" d="M747.52,614.54c-2.12-.23-5.52,0-7.19-1.3C739.73,616.91,749.64,614.76,747.52,614.54Z" transform="translate(80.39 -458.96)"/><path class="a" d="M703.18,543.09c-1.17-2.23-8.49-.87-11.47-1.72C696,541.83,699.5,548.55,703.18,543.09Z" transform="translate(80.39 -458.96)"/><path class="a" d="M780.28,599.38c-2.12-.23-5.39-2.68-4-5.7C773.22,595.47,769.07,601.92,780.28,599.38Z" transform="translate(80.39 -458.96)"/><path class="a" d="M804.48,84.72l-1.64-1.23-7.82,2.37Z"/><path class="a" d="M696,489.86c-8.8,4.38,14,10.46-1.15,14.2,19.59,4.5-1.53-6.17,12.92-5.51C699.29,497.11,695.12,491.61,696,489.86Z" transform="translate(80.39 -458.96)"/><path class="a" d="M707.75,498.55a23.56,23.56,0,0,0,4,.37C710.15,498.72,708.86,498.61,707.75,498.55Z" transform="translate(80.39 -458.96)"/><path class="a" d="M831.8,525.79a13.782,13.782,0,0,0-3,1.48A12.8,12.8,0,0,0,831.8,525.79Z" transform="translate(80.39 -458.96)"/><path class="a" d="M753.85,494.8l-13.19,6.59c8.81-4.38,31-4.19,29.6-10.69-7.19-1.3-15.83.46-19.37,3.28Z" transform="translate(80.39 -458.96)"/><path class="a" d="M905.56,612.61l-5.69,2.59,7.13.8C904.94,615,908.63,610.19,905.56,612.61Z" transform="translate(80.39 -458.96)"/><path class="a" d="M908.36,616.09,907,616a2.351,2.351,0,0,0,1.36.09Z" transform="translate(80.39 -458.96)"/><path class="a" d="M806.84,529a27.6,27.6,0,0,0-11.57.91C796.89,531.13,807.52,532.26,806.84,529Z" transform="translate(80.39 -458.96)"/><path class="a" d="M1026.06,144.13l-9.4,1.13,10.26-.49Z"/><path class="a" d="M1069.95,155.21l1.62,1.23,7.8-2.34-1.65-1.23Z"/><path class="a" d="M932.08,486c-6.39-.69-11.37,5.17-9.7,6.4l12.38-.27c-3.15-5.12-3.43.16-10.61-1.13Z" transform="translate(80.39 -458.96)"/><path class="a" d="M1315.26,605.51c-2.78,3.4-16.3,1.33-17-1.93,1.82-1.39,9.16-2.69,4.57-4.8l-10.75,8.32c-14.22-5.33,10.88-11,17.92-13.87-14.5-1.18-18.83,4.28-34.25,4.17a21.22,21.22,0,0,1,9.8,4.7c.5,5.91-13.86,3.22-24.13,3.65,6.53,2.59,2.73,4.74-2,7a3.531,3.531,0,0,0-1.83.9l-1.62.83h1.23a3.51,3.51,0,0,0,1.06,2.56c8.62-1.69,15.19,3.28,20.73,3.38-5.44-9.66,18.92-2.1,25.92-5l8.06-.89h3c.6,1.06-.26,2.38-4.87,4.24,3.84-1.86,16.64-1.11,15.47-4.2l29.21.07a7.639,7.639,0,0,1,2.48,1.59c1-.6,1.19-1.09,1.06-1.58l127.25.3c-6.28-.81-11.7-3-18.16-4.15,9.74-6.31-10.61-1.22-7.73-7.24,4.38-2.16,10.76-1.42,14.56.07,1.44-3-4-5.77-3.33-9.41-16-3.95-18.56,10.62-34.24,8.29.64-3.65,5.51-6.81-4.76-6.39l2.61-.77c-16.46,4-12.77-8.35-23.17,1.59l.29-5.27c-7.47,3.92-22,3.84-30.17,4.51l.49-1c-23,5.87-12.88,1.19-38.66,3.53l11.89-6.07c-8.88-2.6-10.91,4.07-17.29,3.34.46-1-1-4.89,5-5.8l-31.3,9.15C1305.14,603.3,1314.11,603.26,1315.26,605.51Z" transform="translate(80.39 -458.96)"/><path class="a" d="M1275.76,597.4a22,22,0,0,0-5.75-.22C1272.15,597.35,1274,597.39,1275.76,597.4Z" transform="translate(80.39 -458.96)"/><path class="a" d="M1495.5,615h-8.94A34.183,34.183,0,0,0,1495.5,615Z" transform="translate(80.39 -458.96)"/><path class="a" d="M1230.94,608.73c5.41,2.75-4.07,3.8-5,5.82h19.39c-.07-2,1.86-4.3,1.47-6.16Z" transform="translate(80.39 -458.96)"/><path class="a" d="M1250.91,618.39c.66-1.42,2.72-2.67,5-3.86h-10.63C1245.38,616.06,1246.56,617.45,1250.91,618.39Z" transform="translate(80.39 -458.96)"/><path class="a" d="M1329.7,51.01l3.44-.17,5.21-1.54Z"/><path class="a" d="M1303.05,519.19c-4.1-3.11-11.89-.82-14.5-.06C1297.52,519.09,1293.63,520.23,1303.05,519.19Z" transform="translate(80.39 -458.96)"/><path class="a" d="M1372.5,27.15l8.66-1.68-.81-.61Z"/><path class="a" d="M1561.67,594.74c1.42-.11,2.8-.18,4.23-.31a18.631,18.631,0,0,0-4.23.31Z" transform="translate(80.39 -458.96)"/><path class="a" d="M1487.41,599.23c20.61,6.07-13.54,4.83-7.1,12.45l11.24-2.43-1,2,13.7-.57c-2.8-3.5-4.9-3.73-4.28-7.38,18.28,1.56,5.75,4.38,19.14,9.08l20.44-.52-1.66,1.09a4.12,4.12,0,0,0,3.08-1.11l68.88-1.78c12.54-2.82-6.9-6.63,2.37-11.94-14.52-.08-36.08-4.13-37.35,3.15.49-1,1.46-3-1.48-3.89l-8.43,5.94,8,2c-8.48,5.91-35.74,4.39-40.66.64,15.52-1.93,7.78-9.18,29.36-5.11-1-1.86-4.9-5.14,0-6.11C1536.35,596.68,1513.67,593.19,1487.41,599.23Z" transform="translate(80.39 -458.96)"/><path class="a" d="M1741.39,597.55l-.21.66C1741.64,597.86,1741.79,597.6,1741.39,597.55Z" transform="translate(80.39 -458.96)"/><path class="a" d="M1732.9,596.59l-12.38,7,19.24-.43,1.42-5c-1.7,1.26-8.46,3.75-11.07,1.77Z" transform="translate(80.39 -458.96)"/><path class="a" d="M1706.17,607.86c9.94-2.06,9.44-8,4-10.69,9.14-2.67,4.78,6.38,11.1.19-.19-4.25-11.45-1.84-14-1.07Z" transform="translate(80.39 -458.96)"/><path class="a" d="M1713.26,145.27l2.81-2.43-6.88-.7Z"/><path class="a" d="M1635.68,601.8l6.83.71a11.281,11.281,0,0,0-2-4.84Z" transform="translate(80.39 -458.96)"/><path class="a" d="M1660.43,604.34a90.608,90.608,0,0,0,10,1Z" transform="translate(80.39 -458.96)"/><path class="a" d="M1652.62,602.78l.23.77,7.58.79C1657.64,603.86,1655.13,603.33,1652.62,602.78Z" transform="translate(80.39 -458.96)"/><path class="a" d="M1642.51,602.51c1.09,4.14,2.37,8.49,12.25,7.41l-1.91-6.37Z" transform="translate(80.39 -458.96)"/><path class="a" d="M1435.4,33.82l7.83-2.27-.83-.65-7.82,2.29Z"/><path class="a" d="M1400.09,496.89a30.119,30.119,0,0,0,4.73-2.24,9,9,0,0,0-4.73,2.24Z" transform="translate(80.39 -458.96)"/><path class="a" d="M1433.75,468.9c9.17,4.23-12.71,5.41,4.3,7.37,1.48,3.89-6.52,8.82-14.53,6.84.66-3.64,7.82-2.28,2.91-6-5.34,4.17-7.35,1.29-5.52,6.79-9,3.36-10,7.25-16.09,10.78,10.84-2.34,33.54,3.46,47.32-3.48,7.6-6.55,3.06-15.59,3.13-25.12C1454.14,463.8,1434.52,462.6,1433.75,468.9Z" transform="translate(80.39 -458.96)"/><path class="a" d="M1419.33,459.29a16,16,0,0,0-8.17.64C1411.85,463.19,1415.89,459.41,1419.33,459.29Z" transform="translate(80.39 -458.96)"/><path class="a" d="M1516.74,531.75c.82-1.34,8.52-3,6.88-5.32l-11.68,1.62C1514.68,528.3,1515.64,530,1516.74,531.75Z" transform="translate(80.39 -458.96)"/><path class="a" d="M1506.82,528.75l5.12-.7A13.69,13.69,0,0,0,1506.82,528.75Z" transform="translate(80.39 -458.96)"/><path class="a" d="M1517.29,532.6c-.19-.28-.35-.57-.55-.85C1516.57,532,1516.6,532.33,1517.29,532.6Z" transform="translate(80.39 -458.96)"/><path class="a" d="M1688.73,606.91c-.18,2.62,5,1.1,7.64.34C1694.25,607,1691.28,606.13,1688.73,606.91Z" transform="translate(80.39 -458.96)"/><path class="a" d="M1884.5,598l4.59,2.12A8.088,8.088,0,0,0,1884.5,598Z" transform="translate(80.39 -458.96)"/><path class="a" d="M1955.69,527.1a2.649,2.649,0,0,1,.94-1.33,2.23,2.23,0,0,0-.94,1.33Z" transform="translate(80.39 -458.96)"/><path class="a" d="M1956.63,525.77c3.15-2.15,12.82,1.3,16.32-2l-.45,1,6.5-1.92C1972.92,523.12,1960.16,522.62,1956.63,525.77Z" transform="translate(80.39 -458.96)"/></g></svg>