<svg xmlns="http://www.w3.org/2000/svg" width="117" height="117" viewBox="0 0 117 117"><g transform="translate(-235 -3752.765)"><path d="M337.832,3752.765c-.466,0-.927.024-1.381.068a2.3,2.3,0,0,0-.546-.068H266.992a14.641,14.641,0,0,0-14.625,14.625v9.14a2.285,2.285,0,0,0,4.57,0v-9.14a10.066,10.066,0,0,1,10.055-10.055h60.43a14.112,14.112,0,0,0-3.758,9.6,2.181,2.181,0,0,1,0,.457V3783a2.285,2.285,0,1,0,4.57,0v-13.787h21.481a2.285,2.285,0,0,0,2.285-2.285A14.184,14.184,0,0,0,337.832,3752.765Zm-9.32,11.883a9.6,9.6,0,0,1,18.641,0Z"/><path d="M312.207,3765.1h-14.52a2.286,2.286,0,0,0,0,4.571h9.294l-25.921,25.92L265.866,3780.4a2.287,2.287,0,0,0-3.232,0l-20.509,20.509a2.285,2.285,0,1,0,3.231,3.232l18.894-18.894,15.194,15.195a2.286,2.286,0,0,0,3.232,0l27.246-27.246v8.713a2.286,2.286,0,0,0,4.571,0v-14.521A2.286,2.286,0,0,0,312.207,3765.1Z"/><path d="M238.9,3807.364a2.285,2.285,0,1,0,.669,1.616A2.3,2.3,0,0,0,238.9,3807.364Z"/><path d="M339.2,3824.523a2.284,2.284,0,0,0-2.285-2.285H319.553V3804.87a2.285,2.285,0,0,0-2.285-2.285,21.938,21.938,0,1,0,6.4,42.923V3855.6a9.6,9.6,0,0,1-19.2,0c0-.071-.005-.141-.011-.211a2.227,2.227,0,0,0,.014-.246,2.285,2.285,0,0,0-2.285-2.285h-45.25v-48.9a2.285,2.285,0,0,0-4.57,0v48.9H242.312a2.286,2.286,0,0,0-2.285,2.285,14.642,14.642,0,0,0,14.625,14.625h59.414a14.184,14.184,0,0,0,14.168-14.168V3843.71c0-.063,0-.125-.009-.188A21.95,21.95,0,0,0,339.2,3824.523Zm-84.553,40.671a10.071,10.071,0,0,1-9.792-7.769h55.16a14.123,14.123,0,0,0,3.636,7.769Zm62.616-23.3a17.368,17.368,0,0,1-2.285-34.585v17.218a2.285,2.285,0,0,0,2.285,2.285h17.218A17.4,17.4,0,0,1,317.268,3841.89Z"/><path d="M325.035,3789.791a2.285,2.285,0,0,0-2.285,2.285v24.68a2.285,2.285,0,0,0,2.285,2.285h24.68a2.285,2.285,0,0,0,2.285-2.285A27,27,0,0,0,325.035,3789.791Zm2.285,24.68v-19.994a22.434,22.434,0,0,1,19.994,19.994Z"/><path d="M283.217,3826.8H263.564a2.285,2.285,0,0,0,0,4.57h19.653a2.285,2.285,0,0,0,0-4.57Z"/><path d="M293.859,3838.442a2.285,2.285,0,1,0,.669,1.616A2.3,2.3,0,0,0,293.859,3838.442Z"/><path d="M283.217,3837.773H263.564a2.285,2.285,0,0,0,0,4.57h19.653a2.285,2.285,0,0,0,0-4.57Z"/><path d="M271.43,3815.835h-7.866a2.285,2.285,0,0,0,0,4.57h7.866a2.285,2.285,0,0,0,0-4.57Z"/></g></svg>