<svg xmlns="http://www.w3.org/2000/svg" width="670.375" height="386.961" viewBox="0 0 670.375 386.961"><defs><style>.a{fill:none;stroke:#000;stroke-linecap:round;stroke-linejoin:round;}</style></defs><g transform="translate(0.465 0.502)"><path class="a" d="M389.4,4777.832c.382,16.414,14.623,31.612,31.1,30.956,15.9-.633,31.914-1.051,47.757.093,19.981,1.443,32.835-10.352,35.521-29.507.656-4.675,2-9.255,3.027-13.878v-1.542c-4.127-5.648-3.062-12.182-3.064-18.5q-.04-129.465-.051-258.931c-.008-11.816,3.037-23.47.2-35.488-3.922-16.608-14.9-29.139-34.087-27.911a394.184,394.184,0,0,1-47.754.017c-18.018-1.039-33.1,14.558-32.627,32.564.869,33.371,1.844,66.879-.209,100.147-1.968,31.884-1.176,63.994-1.006,95.577C388.431,4693.457,388.418,4735.7,389.4,4777.832Z" transform="translate(45.235 -4423.046)"/><path class="a" d="M472.361,4435.375c10.059,0,16.629,6.225,19.526,18.5,1.413,5.981.835,12.553.223,19.51-.37,4.214-.754,8.573-.751,13.154q.054,78.135.039,156.269l.012,102.656c0,.964-.029,1.927-.056,2.893-.14,4.97-.322,11.406,2.6,17.908-.053.22-.107.44-.16.656a107.278,107.278,0,0,0-2.229,10.744c-1.768,12.61-8.519,19.007-20.065,19.007q-1.154,0-2.355-.087c-6.991-.506-14.388-.75-22.615-.75-9.313,0-18.635.322-26.523.635l-.537.012c-8.9,0-17.52-9.2-17.746-18.934-.787-33.842-.935-68.336-1.078-101.693l-.112-24.486q-.048-8.682-.136-17.411c-.227-25.425-.463-51.716,1.118-77.34,2.02-32.709,1.153-65.858.317-97.918l-.088-3.311a19.92,19.92,0,0,1,5.7-14.305,17.994,17.994,0,0,1,12.9-5.656s.657.009.989.027c8.478.491,16.9.738,25.018.738,8.23,0,16.382-.256,24.231-.756Q471.494,4435.376,472.361,4435.375Z" transform="translate(45.235 -4423.046)"/><path class="a" d="M472.361,4447.705c2.151,0,5.4,0,7.526,9,.957,4.051.463,9.657-.059,15.6-.378,4.3-.8,9.127-.8,14.244q.054,78.13.039,156.26l.012,102.656c0,.8-.024,1.6-.047,2.393-.138,4.9-.331,11.744,2.046,19.2-.655,2.79-1.28,5.731-1.724,8.892-1.175,8.39-4.27,8.39-7.854,8.39-.483,0-.975-.021-1.478-.057-7.259-.524-14.947-.78-23.492-.78-9.485,0-18.978.325-27.012.644l-.325.006c-1.366,0-5.059-3.335-5.142-6.893-.784-33.709-.932-68.126-1.075-101.407l-.112-24.543q-.048-8.719-.136-17.465c-.226-25.244-.459-51.3,1.094-76.47,2.053-33.23,1.18-66.638.338-98.945l-.089-3.368a7.636,7.636,0,0,1,2.2-5.373,5.821,5.821,0,0,1,4.075-1.933l.362.012c8.607.5,17.264.753,25.645.753,8.463,0,16.878-.262,25.014-.78C471.718,4447.717,472.042,4447.705,472.361,4447.705Z" transform="translate(45.235 -4423.046)"/><path class="a" d="M468.011,4460.288c.28,2.444-.129,7.1-.465,10.924-.4,4.54-.85,9.675-.847,15.34q.054,78.131.039,156.254l.012,102.656c0,.635-.02,1.271-.038,1.906a71.178,71.178,0,0,0,1.654,20.024c-.284,1.34-.573,2.809-.837,4.368-6.559-.394-13.466-.587-21-.587-6.977,0-13.907.172-20.272.385-.678-31.842-.816-64.281-.952-95.705l-.112-24.6q-.048-8.755-.136-17.52c-.224-25.009-.456-50.864,1.07-75.6,2.038-32.974,1.247-65.867.417-97.722,6.6.289,13.282.44,19.811.44C453.657,4460.851,460.922,4460.661,468.011,4460.288Z" transform="translate(45.235 -4423.046)"/><path class="a" d="M455.007,4473.094c-.337,4.039-.641,8.5-.638,13.464q.054,78.013.039,156.016l.012,102.888c0,.473-.015.942-.029,1.415a108.064,108.064,0,0,0,.169,12.041c-2.6-.051-5.271-.075-8.029-.075-2.623,0-5.326.024-8.182.069-.472-27.664-.593-55.672-.71-82.869l-.114-24.847q-.048-8.791-.136-17.574c-.223-24.793-.453-50.428,1.046-74.73,1.819-29.419,1.417-58.869.768-85.768q3.6.059,7.154.057C449.242,4473.181,452.131,4473.151,455.007,4473.094Z" transform="translate(45.235 -4423.046)"/><path class="a" d="M110.718,4808.881c15.844-1.144,31.856-.726,47.757-.093,16.477.655,30.719-14.542,31.1-30.956.981-42.128.968-84.376,1.194-126.4.17-31.583.962-63.693-1.006-95.578-2.053-33.267-1.078-66.775-.209-100.146.468-18.006-14.609-33.6-32.627-32.564a394.184,394.184,0,0,1-47.754-.017c-19.191-1.228-30.165,11.3-34.087,27.911-2.838,12.017.207,23.672.2,35.488q-.09,129.465-.051,258.931c0,6.313,1.064,12.847-3.064,18.5v1.541c1.028,4.624,2.372,9.2,3.027,13.879C77.884,4798.529,90.738,4810.324,110.718,4808.881Z" transform="translate(45.235 -4423.046)"/><path class="a" d="M106.611,4435.375q.872,0,1.773.06c7.851.5,16,.756,24.236.756,8.121,0,16.538-.247,25.018-.738.328-.018.659-.027.987-.027a17.993,17.993,0,0,1,12.9,5.656,19.925,19.925,0,0,1,5.7,14.308l-.085,3.263c-.84,32.071-1.707,65.239.313,97.963,1.584,25.636,1.346,51.939,1.117,77.376q-.077,8.71-.135,17.375l-.115,24.642c-.141,33.306-.286,67.746-1.074,101.537-.226,9.732-8.854,18.934-17.749,18.934l-.539-.012c-7.887-.313-17.206-.635-26.52-.635-8.227,0-15.621.244-22.61.749-.8.058-1.587.088-2.357.088-14.383,0-18.851-10.338-20.067-19.01a107.085,107.085,0,0,0-2.221-10.714c-.058-.225-.112-.454-.169-.68,2.923-6.5,2.742-12.941,2.6-17.911-.03-.966-.057-1.93-.057-2.89l.012-102.659q0-78.135.039-156.269c0-4.581-.379-8.943-.753-13.161-.611-6.956-1.189-13.525.223-19.5,2.9-12.276,9.471-18.5,19.525-18.5Z" transform="translate(45.235 -4423.046)"/><path class="a" d="M106.611,4447.705c.319,0,.644.012.972.033,8.155.521,16.572.783,25.037.783,8.38,0,17.035-.256,25.731-.759l.274-.006a5.8,5.8,0,0,1,4.067,1.927,7.629,7.629,0,0,1,2.21,5.388l-.085,3.263c-.846,32.327-1.722,65.756.334,99.041,1.557,25.184,1.322,51.25,1.093,76.454l-.018,2.023q-.067,7.745-.117,15.452l-.115,24.648c-.141,33.444-.289,67.731-1.071,101.3-.082,3.561-3.778,6.893-5.422,6.893l-.262-.009c-7.821-.313-17.312-.638-26.8-.638-8.543,0-16.232.256-23.5.783-.491.033-.982.054-1.466.054-3.131,0-6.68,0-7.857-8.393-.446-3.2-1.081-6.165-1.722-8.892,2.375-7.451,2.185-14.269,2.05-19.037-.027-.885-.051-1.719-.051-2.553l.012-114.525q0-72.2.039-144.394c0-5.171-.424-10-.8-14.256-.544-6.2-1.014-11.542-.06-15.579C101.213,4447.705,104.462,4447.705,106.611,4447.705Z" transform="translate(45.235 -4423.046)"/><path class="a" d="M110.961,4460.285c7.089.376,14.356.566,21.659.566,6.472,0,13.109-.148,19.81-.443-.834,31.873-1.622,64.742.415,97.728,1.53,24.772,1.295,50.6,1.069,75.582l-.018,2.023c-.045,5.241-.09,10.376-.117,15.5l-.115,24.657c-.132,31.4-.271,63.818-.948,95.663-6.255-.211-13.284-.385-20.274-.385-7.535,0-14.437.192-20.994.59-.265-1.563-.554-3.035-.84-4.38a70.863,70.863,0,0,0,1.662-19.714c-.024-.783-.045-1.493-.045-2.2l.012-114.525c0-48.306.006-96.347.039-144.385,0-5.713-.448-10.825-.846-15.334C111.075,4467.19,110.678,4462.687,110.961,4460.285Z" transform="translate(45.235 -4423.046)"/><path class="a" d="M123.968,4473.093q4.312.087,8.652.088,3.545,0,7.152-.058c-.65,26.864-1.054,56.286.767,85.775,1.5,24.314,1.271,49.9,1.045,74.649,0,0-.108,12.739-.135,17.625l-.115,24.666c-.114,27.231-.232,55.265-.707,83.074-2.872-.045-5.59-.069-8.185-.069-2.761,0-5.431.024-8.029.075a101.827,101.827,0,0,0,.181-11.6c-.021-.671-.039-1.261-.039-1.848l.012-114.525c0-48.414.006-96.4.039-144.376C124.609,4481.561,124.305,4477.112,123.968,4473.093Z" transform="translate(45.235 -4423.046)"/><path class="a" d="M624.011,4634.487c-.416-16.944-.061-33.906-.074-50.859-.013-18.6-2.758-21.349-21.575-21.57-4.623-.054-9.247-.008-13.871-.008v107.888C624.292,4670.226,624.906,4670.933,624.011,4634.487Z" transform="translate(45.235 -4423.046)"/><path class="a" d="M601.379,4574.389a81.733,81.733,0,0,1,10.74.575,46.386,46.386,0,0,1,.555,8.672c.006,5.434-.036,10.871-.077,16.307-.086,11.394-.174,23.173.17,34.847.246,8.32.547,18.5-.549,22.149a82.505,82.505,0,0,1-12.52.717v-83.282Q600.538,4574.378,601.379,4574.389Z" transform="translate(45.235 -4423.046)"/><path class="a" d="M-45.036,4597.5c.416,16.944.061,33.906.073,50.86.014,18.6,2.759,21.348,21.575,21.569,4.623.055,9.248.009,13.872.009V4562.05C-45.317,4561.761-45.931,4561.054-45.036,4597.5Z" transform="translate(45.235 -4423.046)"/><path class="a" d="M-21.751,4657.613c-.474,0-.946-.009-1.421-.015a58.594,58.594,0,0,1-9.083-.575,54.9,54.9,0,0,1-.468-8.672c0-5.428.031-10.855.064-16.286.074-11.4.147-23.188-.144-34.868-.208-8.32-.462-18.5.466-22.149a59.379,59.379,0,0,1,10.586-.717Z" transform="translate(45.235 -4423.046)"/><path class="a" d="M583.853,4745.458c.6-6.671.014-47.778.014-47.778V4582.086c0-30.311.1-60.623-.034-90.934-.091-20.965-5.445-26.377-26.166-26.136-16.444.191-32.881.962-49.321,1.476v299c17.467.514,34.932,1.32,52.4,1.456C577.159,4767.08,582.37,4761.937,583.853,4745.458Z" transform="translate(45.235 -4423.046)"/><path class="a" d="M558.945,4477.338c12.5,0,12.5,0,12.558,13.868.093,21.235.073,42.472.052,63.707l-.018,27.173V4697.68c.241,16.978.409,42.514.035,46.675-.924,10.271-1.1,10.271-10.241,10.271l-.488,0c-12.014-.1-24.312-.518-36.206-.931l-3.961-.135V4478.41q1.6-.059,3.2-.115c11.147-.4,22.671-.818,33.934-.948Z" transform="translate(45.235 -4423.046)"/><path class="a" d="M559.165,4489.668c0,.533.006,1.069.008,1.593.093,21.213.073,42.426.052,63.64l-.018,27.176v115.6c.279,19.742.333,39.381.137,44.6-8.761-.09-17.812-.352-26.338-.635V4490.309c8.287-.286,16.68-.539,24.943-.632l1.044-.009Z" transform="translate(45.235 -4423.046)"/><path class="a" d="M548.42,4502.217c.162,17.565.107,35.118.046,52.671l-.062,27.18V4697.68c.6,12.528.854,23.862.859,32.044l-6.062-.045v-227.42Q545.8,4502.237,548.42,4502.217Z" transform="translate(45.235 -4423.046)"/><path class="a" d="M-4.892,4619.076c0,40.587-.088,81.173.036,121.759.063,20.965,5.443,26.378,26.164,26.137,16.444-.192,32.881-.963,49.321-1.477v-299c-12.33-.514-24.658-1.072-36.99-1.533-35.3-1.319-39.731,1.37-38.531,38.523Z" transform="translate(45.235 -4423.046)"/><path class="a" d="M22.682,4477.04c3.133,0,6.622.1,10.5.241,8.375.313,16.747.671,25.121,1.029v275.268c-1.066.039-2.128.078-3.194.114-11.147.4-22.673.819-33.938.948l-1.138.009c-12.513,0-12.513,0-12.555-13.85q-.132-43.022-.051-86.048l.015-35.675s0-115.859-.006-115.991c-.581-18.035.65-23.216,1.785-24.39.162-.168,1.935-1.655,13.459-1.655Z" transform="translate(45.235 -4423.046)"/><path class="a" d="M22.676,4489.37c3,0,6.339.093,10.042.232q6.629.248,13.251.526v251.553c-8.284.286-16.68.536-24.943.629l-1.216.009c0-.52-.006-1.044-.006-1.556q-.132-43-.051-86l.015-35.678c0-116-.006-116.085-.009-116.274-.2-6.232-.166-10.506-.052-13.4C20.574,4489.385,21.559,4489.37,22.676,4489.37Z" transform="translate(45.235 -4423.046)"/><path class="a" d="M36.278,4501.973V4729.73l-6.673.039c-.235-25-.17-49.982-.1-74.964l.065-35.717c-.012-116-.026-116.16-.052-116.476-.026-.235-.052-.467-.092-.7C29.7,4501.919,34.272,4501.958,36.278,4501.973Z" transform="translate(45.235 -4423.046)"/><rect class="a" width="191.116" height="80.627" transform="translate(239.165 151.093)"/><rect class="a" width="166.456" height="55.967" transform="translate(251.495 163.423)"/><rect class="a" width="141.796" height="31.307" transform="translate(263.825 175.753)"/><rect class="a" width="117.135" height="8.905" transform="translate(276.155 186.954)"/></g></svg>