<svg xmlns="http://www.w3.org/2000/svg" width="126.826" height="126.961" viewBox="0 0 126.826 126.961"><g transform="translate(-13216.301 -1527.625)"><path d="M13273.95,1624.415a2.479,2.479,0,1,0,3.506,0A2.479,2.479,0,0,0,13273.95,1624.415Z"/><path d="M13337.538,1620.108l-18.826-16.009a2.524,2.524,0,0,0-.275-.2,12.324,12.324,0,0,0-15.422,1.692l-10.265,10.264a2.472,2.472,0,0,1-2.7.538,67.257,67.257,0,0,1-28.3-21.452,49.917,49.917,0,0,1-7.718-13.724,2.439,2.439,0,0,0-.15-.511,2.467,2.467,0,0,1,.538-2.7l10.264-10.266a12.321,12.321,0,0,0,1.692-15.422c-.025-.04-.051-.079-.078-.117l-13.6-18.894a12.4,12.4,0,0,0-19.187-2.047l-2.055,2.055,0,.005-7.338,7.338c-8.751,8.752-10.184,21.9-4.14,38.032,5.177,13.817,15.538,28.938,29.179,42.578,13.962,13.962,29.492,24.516,43.729,29.718,14.092,5.149,29.082,5.783,39.691-4.827l6.921-6.92A12.4,12.4,0,0,0,13337.538,1620.108Zm-21.9-12.113,18.811,15.995a2.572,2.572,0,0,0,.273.2,7.44,7.44,0,0,1,1.265,11.537l-.514.515-32.082-24.021,3.13-3.128A7.391,7.391,0,0,1,13315.639,1607.995Zm-67.082-71.965c.025.04.052.08.079.117l13.59,18.887a7.391,7.391,0,0,1-1.05,9.2l-3.033,3.034-21.7-31.919.581-.582A7.439,7.439,0,0,1,13248.557,1536.03Zm46.027,110.3c-13.573-4.959-28.462-15.105-41.924-28.567-13.15-13.149-23.109-27.643-28.042-40.811-3.7-9.884-6.187-23.595,3-32.784l5.247-5.248,21.705,31.918-3.66,3.663a7.409,7.409,0,0,0-1.7,7.894c.783,3.212,4.384,9.879,8.018,14.792a72.732,72.732,0,0,0,30.921,23.791,7.417,7.417,0,0,0,8.1-1.614l3.593-3.593,32.082,24.02-2.863,2.863C13319.216,1652.5,13304.878,1650.087,13294.584,1646.326Z"/><path d="M13269.3,1618.494c-2.62-2.3-7.149-6.246-9.536-8.7a163.082,163.082,0,0,1-15.638-18.566,2.48,2.48,0,1,0-4.076,2.825,168.03,168.03,0,0,0,16.159,19.2c2.519,2.592,7.088,6.577,9.821,8.973a2.48,2.48,0,0,0,3.27-3.729Z"/></g></svg>