<svg xmlns="http://www.w3.org/2000/svg" width="147.73" height="111.196" viewBox="0 0 147.73 111.196"><g transform="translate(-8789.135 -3721.804)"><path d="M8930.814,3735.842h-6.931v-5.759a8.288,8.288,0,0,0-8.278-8.279H8909a8.288,8.288,0,0,0-8.279,8.279v23.705h-11.067v-6.364a135.242,135.242,0,0,1-20.8-11.582,8.362,8.362,0,0,1-12.428,2.576,8.358,8.358,0,0,1-12.427,1.741,8.387,8.387,0,0,0-8.377,8.377v5.253H8825.28v-6.1a2.163,2.163,0,0,0-4.325,0v50.239a3.959,3.959,0,0,1-3.954,3.954h-6.6a3.958,3.958,0,0,1-3.954-3.954v-67.84a3.959,3.959,0,0,1,3.954-3.954h6.6a3.959,3.959,0,0,1,3.954,3.954v8.385a2.163,2.163,0,0,0,4.325,0v-8.385A8.289,8.289,0,0,0,8817,3721.8h-6.6a8.288,8.288,0,0,0-8.279,8.279v5.759h-6.931a6.058,6.058,0,0,0-6.052,6.051v44.219a6.059,6.059,0,0,0,6.052,6.052h6.931v5.758a8.288,8.288,0,0,0,8.279,8.279h6.6a8.288,8.288,0,0,0,8.279-8.279v-23.705h7.411v3.949a8.8,8.8,0,0,0,2,5.578l6.716,8.165v38.928a2.163,2.163,0,1,0,4.325,0v-39.7a2.164,2.164,0,0,0-.493-1.374L8838.03,3781a4.465,4.465,0,0,1-1.016-2.83v-3.949l40.9.25a2.162,2.162,0,1,0,0-4.325h-9.84a3.682,3.682,0,1,1,0-7.363h18.595a2.32,2.32,0,0,1,2.317,2.317v13.07a4.467,4.467,0,0,1-1.016,2.83l-7.208,8.764a2.162,2.162,0,0,0-.493,1.374v5.7a2.163,2.163,0,0,0,4.325,0v-4.929l6.716-8.165a8.806,8.806,0,0,0,2-5.578v-3.949h7.411v23.705A8.288,8.288,0,0,0,8909,3806.2h6.6a8.288,8.288,0,0,0,8.279-8.279v-5.758h6.931a6.059,6.059,0,0,0,6.052-6.052v-44.219A6.056,6.056,0,0,0,8930.814,3735.842Zm-135.628,52a1.73,1.73,0,0,1-1.727-1.727v-44.219a1.729,1.729,0,0,1,1.727-1.726h6.931v47.672Zm86.091-44.466a4.056,4.056,0,0,1,4.052,4.051v8.051a4.047,4.047,0,0,1-1.314,2.979h-5.476a4.046,4.046,0,0,1-1.313-2.979v-8.051A4.056,4.056,0,0,1,8881.277,3743.373Zm-16.479.845a4.052,4.052,0,0,1,8.1,0v11.257a4.047,4.047,0,0,1-1.314,2.979h-3.513a7.968,7.968,0,0,0-1.738.193,4.03,4.03,0,0,1-1.538-3.172v-11.257Zm-12.427,2.576a4.051,4.051,0,1,1,8.1,0v8.681a4.051,4.051,0,1,1-8.1,0Zm-12.428,1.741a4.051,4.051,0,1,1,8.1,0v6.94a4.051,4.051,0,1,1-8.1,0Zm-14.663,9.578h10.766a50.263,50.263,0,0,1,20.376,5.739,8.314,8.314,0,0,0,4.795-1.521,8,8,0,0,0-.376,7.561H8825.28Zm68.03,11.779v-4.8a6.651,6.651,0,0,0-4.37-6.241c.106-.242.2-.49.284-.742h11.5v11.779Zm39.23,16.22a1.73,1.73,0,0,1-1.727,1.727h-6.931v-6.25a2.163,2.163,0,0,0-4.325,0v16.333a3.958,3.958,0,0,1-3.953,3.954H8909a3.958,3.958,0,0,1-3.954-3.954v-67.839a3.959,3.959,0,0,1,3.954-3.954h6.6a3.958,3.958,0,0,1,3.953,3.954v42.29a2.163,2.163,0,0,0,4.325,0v-32.206h6.931a1.729,1.729,0,0,1,1.727,1.726Z"/><path d="M8882.432,3803.891a2.163,2.163,0,0,0-2.162,2.163v24.783a2.163,2.163,0,1,0,4.325,0v-24.783A2.162,2.162,0,0,0,8882.432,3803.891Z"/></g></svg>