<svg xmlns="http://www.w3.org/2000/svg" width="107.385" height="138.298" viewBox="0 0 107.385 138.298"><g transform="translate(-14060.883 -1521.957)"><path d="M14136.76,1630.142a2.026,2.026,0,0,0-.664,4c15.189,2.524,22.107,7.057,22.107,10.2,0,4.954-16.6,11.865-43.628,11.865a122.6,122.6,0,0,1-27.427-2.839,2.026,2.026,0,1,0-.928,3.944,126.649,126.649,0,0,0,28.354,2.946c12.389,0,24.063-1.476,32.872-4.156,9.688-2.947,14.808-7.014,14.808-11.76,0-6.33-9.292-11.505-25.5-14.2Z"/><path d="M14078.651,1650.731c-4.824-1.979-7.7-4.368-7.7-6.392,0-3.143,6.918-7.676,22.106-10.2a2.026,2.026,0,0,0-.665-4c-7.276,1.21-13.431,3.007-17.795,5.2-5.108,2.564-7.7,5.592-7.7,9,0,4.917,5.558,8.228,10.219,10.14a2,2,0,0,0,.768.152,2.026,2.026,0,0,0,.771-3.9Z"/><path d="M14072.735,1564.934a2.027,2.027,0,0,0-2.393,1.578,45.108,45.108,0,1,0,2.878-9.04,2.026,2.026,0,0,0,3.709,1.632,40.918,40.918,0,1,1-2.616,8.221,2.026,2.026,0,0,0-1.578-2.391Z"/><path d="M14095.477,1625.753l17.666,17.651a2.028,2.028,0,0,0,2.864,0l17.666-17.651a53.929,53.929,0,0,0,27.241-23.036,2.026,2.026,0,0,0-3.494-2.053,49.85,49.85,0,0,1-25.573,21.447,2.025,2.025,0,0,0-.727.467l-16.545,16.529-16.544-16.529a2.024,2.024,0,0,0-.729-.467,49.612,49.612,0,1,1,37.238-91.929,2.026,2.026,0,1,0,1.63-3.709,53.666,53.666,0,1,0-40.694,99.28Z"/><path d="M14144.557,1531.093a2.026,2.026,0,0,0-2.264,3.36,49.628,49.628,0,0,1,18.763,58.6,2.026,2.026,0,0,0,3.792,1.427,53.678,53.678,0,0,0-20.291-63.388Z"/><path d="M14093.858,1596.725h41.435a2.026,2.026,0,0,0,2.026-2.026v-23.773l2.262,1.77a2.026,2.026,0,0,0,2.5-3.191l-26.255-20.538a2.027,2.027,0,0,0-2.5,0l-26.254,20.538a2.026,2.026,0,1,0,2.5,3.191l2.263-1.77V1594.7a2.026,2.026,0,0,0,2.026,2.026Zm2.025-28.968,18.691-14.622,18.691,14.622v24.916h-37.383Z"/><path d="M14105.121,1573.48a2.026,2.026,0,0,0-2.026,2.026v8.2a2.026,2.026,0,0,0,4.053,0v-8.2A2.026,2.026,0,0,0,14105.121,1573.48Z"/><path d="M14114.575,1573.48a2.026,2.026,0,0,0-2.026,2.026v8.2a2.026,2.026,0,1,0,4.052,0v-8.2A2.025,2.025,0,0,0,14114.575,1573.48Z"/><path d="M14124.029,1573.48a2.026,2.026,0,0,0-2.026,2.026v8.2a2.026,2.026,0,1,0,4.052,0v-8.2A2.025,2.025,0,0,0,14124.029,1573.48Z"/><path d="M14114.575,1561.263a2.026,2.026,0,0,0-2.026,2.026v2.977a2.026,2.026,0,1,0,4.052,0v-2.977A2.025,2.025,0,0,0,14114.575,1561.263Z"/></g></svg>