<svg xmlns="http://www.w3.org/2000/svg" width="162.445" height="106.497" viewBox="0 0 162.445 106.497"><g transform="translate(-14395.897 -1543.087)"><path d="M14557.834,1579.6l-27.976-35.6a2.382,2.382,0,0,0-1.874-.911h-20.028a2.384,2.384,0,0,0,0,4.768h18.869l26.1,33.221-26.1,33.22h-36.99a2.383,2.383,0,0,0-1.983,1.062l-18.361,27.543-18.361-27.543a2.384,2.384,0,0,0-1.984-1.062h-48.479v-66.441h95.529a2.384,2.384,0,0,0,0-4.769h-97.913a2.385,2.385,0,0,0-2.384,2.385v71.209a2.384,2.384,0,0,0,2.384,2.385h49.588l19.637,29.456a2.407,2.407,0,0,0,3.968,0l19.639-29.456h36.872a2.381,2.381,0,0,0,1.874-.912l27.976-35.6A2.387,2.387,0,0,0,14557.834,1579.6Z"/><path d="M14444.058,1624.47h-25.432a2.384,2.384,0,0,0,0,4.768h25.433a2.384,2.384,0,1,0,0-4.768Z"/><path d="M14449.145,1634.643h-25.432a2.384,2.384,0,1,0,0,4.768h25.432a2.384,2.384,0,1,0,0-4.768Z"/><path d="M14456.774,1644.815H14428.8a2.385,2.385,0,0,0,0,4.769h27.976a2.385,2.385,0,1,0,0-4.769Z"/><path d="M14421.17,1568.52H14411a2.383,2.383,0,0,0-2.384,2.384v20.345a2.384,2.384,0,1,0,4.768,0v-7.788h5.245a2.385,2.385,0,1,0,0-4.769h-5.245v-5.4h7.789a2.384,2.384,0,0,0,0-4.768Z"/><path d="M14436.429,1568.52c-5.521,0-10.014,5.633-10.014,12.557s4.492,12.556,10.014,12.556,10.015-5.633,10.015-12.556S14441.951,1568.52,14436.429,1568.52Zm0,20.345c-2.843,0-5.245-3.567-5.245-7.788s2.4-7.789,5.245-7.789,5.245,3.567,5.245,7.789S14439.272,1588.865,14436.429,1588.865Z"/><path d="M14497.465,1568.52c-5.521,0-10.014,5.633-10.014,12.557s4.493,12.556,10.014,12.556,10.014-5.633,10.014-12.556S14502.987,1568.52,14497.465,1568.52Zm0,20.345c-2.843,0-5.245-3.567-5.245-7.788s2.4-7.789,5.245-7.789,5.246,3.567,5.246,7.789S14500.309,1588.865,14497.465,1588.865Z"/><path d="M14464.4,1588.865h-7.789V1570.9a2.384,2.384,0,1,0-4.769,0v20.345a2.384,2.384,0,0,0,2.385,2.384h10.173a2.384,2.384,0,0,0,0-4.768Z"/><path d="M14482.206,1588.865h-7.788V1570.9a2.384,2.384,0,1,0-4.769,0v20.345a2.384,2.384,0,0,0,2.384,2.384h10.173a2.384,2.384,0,1,0,0-4.768Z"/><path d="M14533.366,1568.538a2.385,2.385,0,0,0-2.662,2.07l-1.687,13.492-4.075-6.793a2.385,2.385,0,0,0-4.259.341l-2.348,5.869-3.3-13.192a2.385,2.385,0,0,0-4.627,1.157l5.087,20.346a2.384,2.384,0,0,0,4.526.307l3.3-8.253,5.157,8.594a2.384,2.384,0,0,0,4.41-.931l2.543-20.345A2.383,2.383,0,0,0,14533.366,1568.538Z"/></g></svg>