<svg xmlns="http://www.w3.org/2000/svg" width="115.453" height="124" viewBox="0 0 115.453 124"><defs><style>.a{fill:#f7e143;}</style></defs><g transform="translate(-214 -156)"><circle class="a" cx="42.5" cy="42.5" r="42.5" transform="translate(214 156)"/><g transform="translate(-5461 -47)"><path d="M5706,312.4a1.972,1.972,0,0,0,1.972,1.972h39.541l5.249,5.25v5.4a1.972,1.972,0,0,0,1.973,1.972h28.75a1.972,1.972,0,0,0,1.972-1.972v-4.583l3.227-6.179a15.656,15.656,0,0,0,1.769-7.213v-9.529a6.173,6.173,0,0,0-6.124-5.9,6.338,6.338,0,0,0-3.3.906,6.106,6.106,0,0,0-7.178-2.193V227.991a1.972,1.972,0,0,0-1.972-1.972h-63.9a1.972,1.972,0,0,0-1.972,1.972v33.684a1.972,1.972,0,0,0,3.945,0V229.963H5769.9v59a6.138,6.138,0,0,0-4.36,0V278.481a6.124,6.124,0,1,0-12.248,0v22.975l-2.786-2.785a6.612,6.612,0,0,0-9.351,9.351l2.411,2.411h-33.623V279.014a1.972,1.972,0,0,0-3.945,0Zm70.022-18.529a2.213,2.213,0,0,1,2.183,2.179v1.469a1.972,1.972,0,0,0,3.945,0,2.018,2.018,0,0,1,2.179-1.959,2.182,2.182,0,0,1,2.18,2.18v9.308a11.683,11.683,0,0,1-1.322,5.387l-3.45,6.608a1.975,1.975,0,0,0-.224.913v3.094h-24.806V318.81a1.974,1.974,0,0,0-.577-1.394l-6.394-6.394-.01-.011-5.773-5.774a2.667,2.667,0,1,1,3.767-3.776l3.089,3.089a3.766,3.766,0,0,0,6.43-2.663v-23.4a2.179,2.179,0,1,1,4.358,0V297.3a1.972,1.972,0,1,0,3.944,0V294.68a2.181,2.181,0,0,1,2.176-2.179,2.226,2.226,0,0,1,2.183,2.179V297.3a1.972,1.972,0,0,0,3.944,0v-1.248a2.181,2.181,0,0,1,2.176-2.179Z"/><path d="M5762.932,267.111a1.972,1.972,0,0,0-1.972-1.972h-16.931a1.973,1.973,0,1,0,0,3.945h16.931A1.973,1.973,0,0,0,5762.932,267.111Z"/><path d="M5747.74,275.459h-3.711a1.972,1.972,0,1,0,0,3.945h3.711a1.972,1.972,0,1,0,0-3.945Z"/><path d="M5747.74,285.779h-3.711a1.973,1.973,0,1,0,0,3.945h3.711a1.973,1.973,0,1,0,0-3.945Z"/><path d="M5719.739,240.776h41.221a1.973,1.973,0,0,0,0-3.945h-41.221a1.973,1.973,0,0,0,0,3.945Z"/><path d="M5717.767,298.2a1.972,1.972,0,0,0,1.972,1.972h14.884a1.972,1.972,0,0,0,1.972-1.972V267.111a1.972,1.972,0,0,0-1.972-1.972h-14.884a1.972,1.972,0,0,0-1.972,1.972Zm3.944-29.121h10.94v27.148h-10.94Z"/><path d="M5717.767,257.416a1.972,1.972,0,0,0,1.972,1.973h41.221a1.973,1.973,0,0,0,1.972-1.973v-9.463a1.973,1.973,0,0,0-1.972-1.973h-41.221a1.973,1.973,0,0,0-1.972,1.973Zm3.944-7.491h37.277v5.519h-37.277Z"/><path d="M5706.333,271.516a1.971,1.971,0,1,0,.545-2.734A1.989,1.989,0,0,0,5706.333,271.516Z"/></g></g></svg>