<svg xmlns="http://www.w3.org/2000/svg" width="129.646" height="129.648" viewBox="0 0 129.646 129.648"><g transform="translate(-13628.163 -1526.282)"><path d="M13743.977,1551.082h4.007a2.531,2.531,0,0,0,0-5.061h-9.616a2.531,2.531,0,0,0-2.531,2.53v9.616a2.531,2.531,0,1,0,5.062,0v-2.784a59.763,59.763,0,1,1-47.911-24.04,60.632,60.632,0,0,1,7.291.44,2.53,2.53,0,1,0,.61-5.024,65.789,65.789,0,0,0-7.9-.477,64.827,64.827,0,1,0,50.99,24.8Z"/><path d="M13655.612,1564.5a2.532,2.532,0,0,0-3.492.785,48.316,48.316,0,1,0,15.124-15.094,2.531,2.531,0,0,0,2.7,4.282,43.276,43.276,0,1,1-7.555,67.235,43.549,43.549,0,0,1-5.992-53.715A2.534,2.534,0,0,0,13655.612,1564.5Z"/><path d="M13725.883,1593.678H13729a2.531,2.531,0,0,0,0-5.062h-3.121a2.531,2.531,0,0,0,0,5.062Z"/><path d="M13654.438,1591.065a2.531,2.531,0,0,0,2.53,2.531h3.12a2.531,2.531,0,1,0,0-5.062h-3.12A2.53,2.53,0,0,0,13654.438,1591.065Z"/><path d="M13695.558,1558.209v-3.121a2.53,2.53,0,0,0-5.061,0v3.121a2.53,2.53,0,1,0,5.061,0Z"/><path d="M13690.415,1624v3.121a2.53,2.53,0,0,0,5.061,0V1624a2.53,2.53,0,1,0-5.061,0Z"/><path d="M13680.3,1574.843a2.531,2.531,0,0,0-3.579,3.579l8.577,8.576a8.718,8.718,0,1,0,15.373,0l17.3-17.3a2.53,2.53,0,0,0-3.578-3.579l-17.3,17.3a8.7,8.7,0,0,0-8.215,0Zm16.341,16.263a3.656,3.656,0,1,1-3.656-3.657A3.661,3.661,0,0,1,13696.643,1591.106Z"/><path d="M13662.387,1560.507a2.528,2.528,0,1,0-1.789.742A2.535,2.535,0,0,0,13662.387,1560.507Z"/><path d="M13710.515,1533.843a2.529,2.529,0,1,0-1.789-.741A2.542,2.542,0,0,0,13710.515,1533.843Z"/></g></svg>