<svg xmlns="http://www.w3.org/2000/svg" width="481.442" height="416.941" viewBox="0 0 481.442 416.941"><defs><style>.a{fill:none;stroke:#000;stroke-miterlimit:10;}</style></defs><g transform="translate(-1508.514 -4199.627)"><path class="a" d="M1629.163,4200.127,1509.092,4408.1l120.072,207.97h240.144L1989.379,4408.1l-120.072-207.971Z"/><path class="a" d="M1860.647,4601.069H1637.824L1526.412,4408.1l111.412-192.971h222.823l111.412,192.97Z"/><path class="a" d="M1851.987,4586.069h-205.5L1543.732,4408.1l102.752-177.972h205.5l102.752,177.97Z"/><path class="a" d="M1843.326,4571.069H1655.144l-94.091-162.97,94.092-162.972h188.182l94.091,162.971Z"/><path class="a" d="M1834.666,4556.069H1663.8l-85.431-147.97,85.432-147.972h170.862L1920.1,4408.1Z"/><path class="a" d="M1826.006,4541.069H1672.464L1595.694,4408.1l76.771-132.972h153.541l76.771,132.97Z"/><path class="a" d="M1817.345,4526.069H1681.125l-68.11-117.971,68.111-117.972h136.221l68.11,117.971Z"/><path class="a" d="M1808.685,4511.069h-118.9l-59.45-102.971,59.451-102.972h118.9l59.45,102.971Z"/><path class="a" d="M1800.025,4496.069h-101.58l-50.79-87.971,50.791-87.973h101.58l50.79,87.971Z"/><path class="a" d="M1791.365,4481.069h-84.259l-42.13-72.971,42.131-72.973h84.259l42.13,72.971Z"/><path class="a" d="M1782.7,4466.069h-66.939L1682.3,4408.1l33.471-57.973h66.939l33.469,57.971Z"/><path class="a" d="M1774.044,4451.069h-49.618l-24.809-42.971,24.811-42.973h49.619l24.809,42.971Z"/><path class="a" d="M1765.384,4436.069h-32.3l-16.149-27.971,16.15-27.973h32.3l16.149,27.971Z"/><path class="a" d="M1756.723,4421.07h-14.978l-7.488-12.971,7.49-12.974h14.978l7.488,12.971Z"/></g></svg>