<svg xmlns="http://www.w3.org/2000/svg" width="208.787" height="180.815" viewBox="0 0 208.787 180.815"><defs><style>.a{fill:none;stroke:#000;stroke-miterlimit:10;}</style></defs><g transform="translate(-1552.924 -3623.531)"><path class="a" d="M1605.409,3624.031l-51.908,89.907,51.908,89.907h103.816l51.908-89.907-51.908-89.907Z"/><path class="a" d="M1705.481,3797.361h-96.328l-48.164-83.423,48.164-83.423h96.328l48.164,83.423Z"/><path class="a" d="M1701.737,3790.877H1612.9l-44.42-76.938L1612.9,3637h88.841l44.42,76.938Z"/><path class="a" d="M1697.993,3784.392h-81.353l-40.677-70.454,40.677-70.454h81.353l40.677,70.454Z"/><path class="a" d="M1694.25,3777.908h-73.865l-36.932-63.969,36.933-63.97h73.865l36.932,63.969Z"/><path class="a" d="M1690.506,3771.423h-66.377l-33.189-57.484,33.189-57.485h66.377l33.189,57.484Z"/><path class="a" d="M1686.762,3764.938h-58.889l-29.445-51,29.445-51h58.889l29.445,51Z"/><path class="a" d="M1683.018,3758.454h-51.4l-25.7-44.515,25.7-44.516h51.4l25.7,44.515Z"/><path class="a" d="M1679.274,3751.969H1635.36l-21.957-38.031,21.957-38.031h43.914l21.957,38.031Z"/><path class="a" d="M1675.53,3745.485H1639.1l-18.213-31.546,18.214-31.547h36.426l18.213,31.546Z"/><path class="a" d="M1671.786,3739h-28.938l-14.469-25.061,14.47-25.062h28.938l14.469,25.062Z"/><path class="a" d="M1668.042,3732.515h-21.451l-10.725-18.577,10.726-18.578h21.451l10.725,18.577Z"/><path class="a" d="M1664.3,3726.031h-13.963l-6.981-12.092,6.982-12.093H1664.3l6.981,12.092Z"/><path class="a" d="M1660.554,3719.546h-6.475l-3.237-5.608,3.238-5.609h6.475l3.237,5.608Z"/></g></svg>