<svg width="499" height="371" viewBox="0 0 499 371" fill="none" xmlns="http://www.w3.org/2000/svg">
<path d="M121.688 3.55499C121.94 3.55539 122.187 3.48083 122.397 3.34076C122.608 3.20068 122.772 3.00137 122.869 2.76806C122.966 2.53476 122.991 2.27793 122.942 2.03009C122.893 1.78224 122.772 1.55452 122.594 1.37573C122.415 1.19694 122.187 1.07513 121.939 1.02569C121.692 0.976257 121.435 1.00143 121.201 1.09802C120.968 1.19461 120.768 1.35828 120.628 1.56833C120.488 1.77837 120.413 2.02536 120.413 2.27801C120.414 2.61619 120.547 2.94037 120.786 3.17968C121.025 3.419 121.349 3.55393 121.688 3.55499Z" stroke="black" stroke-miterlimit="10"/>
<path d="M153.914 4.9C153.425 3.74287 152.606 2.75565 151.559 2.06192C150.511 1.3682 149.282 0.998807 148.026 1H127.438C127.1 1 126.775 1.1346 126.535 1.37418C126.296 1.61376 126.161 1.93869 126.161 2.2775C126.161 2.61631 126.296 2.94124 126.535 3.18082C126.775 3.4204 127.1 3.555 127.438 3.555H148.026C149.042 3.55895 150.014 3.96407 150.732 4.68204C151.45 5.40001 151.855 6.37264 151.859 7.388V36.774H91.5596V7.388C91.5633 6.37274 91.9687 5.4001 92.6865 4.6821C93.4043 3.9641 94.3763 3.55895 95.3916 3.555H115.944C116.283 3.555 116.608 3.4204 116.848 3.18082C117.087 2.94124 117.223 2.61631 117.223 2.2775C117.223 1.93869 117.087 1.61376 116.848 1.37418C116.608 1.1346 116.283 1 115.944 1H95.3877C94.5486 0.999345 93.7177 1.16413 92.9424 1.48493C92.1671 1.80572 91.4625 2.27623 90.8691 2.86954C90.2758 3.46285 89.8052 4.16731 89.4844 4.94263C89.1636 5.71795 88.9993 6.54893 89 7.388V41.888C89.0032 43.5812 89.6767 45.2042 90.874 46.4015C92.0713 47.5988 93.6945 48.2728 95.3877 48.276H116.597V51.47H112.126C110.432 51.4726 108.808 52.1466 107.61 53.3442C106.413 54.5417 105.738 56.1653 105.735 57.859C105.736 58.1978 105.871 58.5226 106.11 58.762C106.35 59.0015 106.675 59.136 107.014 59.136H136.399C136.738 59.136 137.063 59.0015 137.303 58.762C137.542 58.5226 137.677 58.1978 137.678 57.859C137.675 56.1654 137 54.5421 135.803 53.3445C134.605 52.147 132.983 51.4729 131.289 51.47H126.816V48.276H148.025C149.719 48.2731 151.343 47.5992 152.54 46.4019C153.738 45.2045 154.412 43.5814 154.415 41.888V7.388C154.417 6.5334 154.247 5.68714 153.914 4.9ZM125.541 54.021H131.29C132.082 54.0219 132.855 54.2679 133.502 54.7254C134.149 55.1828 134.637 55.8293 134.902 56.576H108.511C108.776 55.8293 109.265 55.1829 109.912 54.7255C110.559 54.268 111.333 54.022 112.125 54.021H117.874C118.042 54.021 118.207 53.9879 118.362 53.9237C118.517 53.8595 118.659 53.7653 118.777 53.6466C118.896 53.528 118.99 53.387 119.054 53.232C119.118 53.077 119.151 52.9108 119.15 52.743V48.271H124.261V52.743C124.261 52.9111 124.293 53.0776 124.357 53.233C124.422 53.3884 124.517 53.5295 124.636 53.6484C124.755 53.7673 124.895 53.8616 125.051 53.9258C125.206 53.9901 125.373 54.0231 125.541 54.023V54.021ZM151.859 41.883C151.858 42.8992 151.454 43.8734 150.735 44.5919C150.017 45.3104 149.043 45.7147 148.026 45.716H95.3867C94.3706 45.7147 93.3961 45.3104 92.6777 44.5918C91.9594 43.8733 91.5557 42.8991 91.5547 41.883V39.33H151.854L151.859 41.883Z" stroke="black" stroke-miterlimit="10"/>
<path d="M105.864 20.934L101.844 14.403C101.698 14.1662 101.479 13.9835 101.22 13.8826C100.961 13.7817 100.675 13.7681 100.407 13.8438C100.14 13.9196 99.9041 14.0807 99.7363 14.3025C99.5685 14.5243 99.4776 14.7948 99.4775 15.073V25.273C99.4775 25.6118 99.612 25.9368 99.8516 26.1763C100.091 26.4159 100.416 26.5505 100.755 26.5505C101.094 26.5505 101.419 26.4159 101.658 26.1763C101.898 25.9368 102.032 25.6118 102.032 25.273V19.582L105.82 25.731C105.975 25.9982 106.214 26.2071 106.499 26.3253C106.784 26.4436 107.1 26.4645 107.398 26.385C107.707 26.2908 107.975 26.0964 108.16 25.8327C108.345 25.5689 108.438 25.2509 108.422 24.929V15.052C108.422 14.7129 108.287 14.3877 108.047 14.1479C107.807 13.9082 107.483 13.7735 107.144 13.7735C106.804 13.7735 106.479 13.9082 106.239 14.1479C105.999 14.3877 105.864 14.7129 105.864 15.052V20.934Z" stroke="black" stroke-miterlimit="10"/>
<path d="M112.253 13.777C111.914 13.7773 111.589 13.9119 111.35 14.1513C111.11 14.3907 110.976 14.7154 110.976 15.054V25.275C110.976 25.6138 111.11 25.9387 111.35 26.1783C111.589 26.418 111.914 26.5527 112.253 26.553H116.597C116.767 26.5578 116.938 26.5283 117.097 26.4662C117.256 26.4042 117.401 26.3108 117.523 26.1917C117.646 26.0726 117.743 25.9302 117.81 25.7728C117.876 25.6155 117.91 25.4464 117.91 25.2755C117.91 25.1047 117.876 24.9356 117.81 24.7782C117.743 24.6208 117.646 24.4784 117.523 24.3593C117.401 24.2402 117.256 24.1468 117.097 24.0848C116.938 24.0227 116.767 23.9932 116.597 23.998H113.53V21.443H116.597C116.936 21.443 117.26 21.3084 117.5 21.0687C117.74 20.829 117.875 20.504 117.875 20.165C117.875 19.8261 117.74 19.501 117.5 19.2613C117.26 19.0217 116.936 18.887 116.597 18.887H113.53V16.332H116.597C116.935 16.332 117.26 16.1974 117.5 15.9578C117.74 15.7182 117.874 15.3933 117.874 15.0545C117.874 14.7157 117.74 14.3908 117.5 14.1512C117.26 13.9116 116.935 13.777 116.597 13.777H112.253Z" stroke="black" stroke-miterlimit="10"/>
<path d="M140.293 24C139.954 23.986 139.622 23.8906 139.328 23.722C139.033 23.5534 138.783 23.3164 138.599 23.031C138.503 22.8931 138.381 22.7755 138.24 22.6849C138.098 22.5942 137.939 22.5323 137.774 22.5028C137.608 22.4732 137.439 22.4765 137.275 22.5125C137.111 22.5485 136.956 22.6164 136.818 22.7125C136.68 22.8086 136.562 22.9308 136.471 23.0724C136.38 23.2139 136.319 23.3719 136.289 23.5373C136.26 23.7027 136.263 23.8723 136.299 24.0365C136.335 24.2006 136.403 24.3561 136.499 24.494C136.919 25.1168 137.482 25.6293 138.142 25.988C138.802 26.3468 139.539 26.5413 140.289 26.555C141.131 26.5363 141.941 26.2311 142.586 25.6896C143.231 25.1482 143.672 24.4029 143.836 23.577C144.038 22.6774 143.917 21.7354 143.495 20.916C143.072 20.0965 142.374 19.4519 141.524 19.095C141.288 18.982 139.744 18.253 139.479 18.043C139.385 17.9177 139.319 17.7743 139.284 17.622C139.248 17.4696 139.245 17.3117 139.274 17.158C139.303 17.0042 139.363 16.8582 139.451 16.7289C139.539 16.5997 139.653 16.4901 139.786 16.407C140.586 16.092 141.43 16.945 141.462 16.978C141.694 17.2182 142.011 17.3581 142.345 17.3675C142.679 17.377 143.003 17.2554 143.248 17.0288C143.494 16.8021 143.641 16.4885 143.658 16.1549C143.675 15.8213 143.56 15.4943 143.339 15.244C142.794 14.623 142.077 14.1765 141.28 13.96C140.482 13.7436 139.638 13.7669 138.854 14.027C138.303 14.2743 137.822 14.6546 137.455 15.1338C137.087 15.6131 136.844 16.1761 136.748 16.7724C136.652 17.3687 136.706 17.9795 136.905 18.5499C137.103 19.1202 137.441 19.6323 137.886 20.04C138.7 20.5493 139.547 21.0036 140.421 21.4C140.749 21.504 141.026 21.7273 141.197 22.0257C141.368 22.324 141.42 22.6756 141.344 23.011C141.302 23.2691 141.176 23.506 140.985 23.6849C140.794 23.8637 140.55 23.9745 140.289 24H140.293Z" stroke="black" stroke-miterlimit="10"/>
<path d="M121.451 13.8C121.287 13.8336 121.13 13.8993 120.991 13.9933C120.852 14.0873 120.733 14.2078 120.641 14.3479C120.548 14.4879 120.485 14.6448 120.453 14.8096C120.422 14.9743 120.423 15.1437 120.457 15.308C120.457 15.308 122.557 25.501 122.577 25.561C122.686 25.8516 122.879 26.1021 123.134 26.2789C123.389 26.4557 123.692 26.5503 124.002 26.55H124.012C124.324 26.548 124.627 26.4501 124.881 26.2695C125.135 26.089 125.328 25.8347 125.433 25.541C125.433 25.53 127.458 19.241 127.458 19.241L129.479 25.557C129.587 25.8474 129.782 26.0978 130.036 26.2745C130.291 26.4513 130.594 26.546 130.904 26.546H130.915C131.227 26.544 131.53 26.4461 131.784 26.2656C132.039 26.085 132.231 25.8307 132.336 25.537C132.356 25.483 132.461 24.991 132.461 24.991L134.461 15.324C134.519 14.9969 134.446 14.6601 134.26 14.3852C134.073 14.1103 133.787 13.9189 133.462 13.8517C133.137 13.7844 132.798 13.8465 132.518 14.0249C132.238 14.2032 132.038 14.4838 131.961 14.807L130.691 20.948C130.691 20.948 128.65 14.584 128.635 14.564C128.533 14.3243 128.359 14.1216 128.139 13.9831C127.918 13.8445 127.661 13.7768 127.401 13.7888C127.14 13.8009 126.891 13.8923 126.684 14.0507C126.477 14.2091 126.324 14.4269 126.244 14.675L124.227 20.949L122.963 14.79C122.895 14.4581 122.697 14.1669 122.414 13.9805C122.131 13.7941 121.786 13.7278 121.454 13.796L121.451 13.8Z" stroke="black" stroke-miterlimit="10"/>
<path d="M19.1543 259.869C19.1144 259.866 19.0771 259.849 19.0488 259.821C19.0206 259.792 19.003 259.755 19 259.715V98.788C19.0061 98.7569 19.019 98.7276 19.0381 98.7023C19.0571 98.677 19.0822 98.6564 19.1104 98.642H19.1689C19.2339 98.642 19.2492 98.655 19.2852 98.713L117.19 257.669C116.736 257.333 116.354 256.909 116.065 256.423L19.3076 99.334V259.715C19.3049 259.755 19.2879 259.792 19.2598 259.82C19.2317 259.849 19.194 259.866 19.1543 259.869ZM128.586 251.706L153.257 214.869V257.998L128.586 251.706ZM119.767 98.488C119.77 98.4479 119.788 98.4104 119.816 98.3824C119.845 98.3543 119.883 98.3375 119.923 98.335C119.962 98.338 120 98.3551 120.028 98.3831C120.056 98.4112 120.073 98.4484 120.076 98.488V256.024L119.766 256.594L119.767 98.488ZM367.154 220.526C366.171 220.062 365.386 219.262 364.938 218.271C362.638 211.097 337.481 132.494 332.377 116.544L313.377 57.151L294.291 116.519C294.1 117.119 263.591 212.033 261.609 218.172C261.189 219.204 260.397 220.041 259.39 220.518L312.66 54.785C312.7 54.6411 312.787 54.5146 312.907 54.4253C313.027 54.3361 313.173 54.2892 313.322 54.292C313.395 54.2938 313.466 54.3066 313.535 54.33C313.647 54.3691 313.747 54.4383 313.822 54.53C316.641 63.069 334.706 119.314 346.599 156.409L367.154 220.526ZM405.788 54.86C405.824 54.7067 405.909 54.5691 406.029 54.4675C406.15 54.3659 406.299 54.3058 406.456 54.296C406.505 54.2964 406.555 54.3021 406.603 54.313C406.696 54.3267 406.784 54.3607 406.862 54.4125C406.941 54.4643 407.008 54.5328 407.057 54.613C407.11 54.6879 407.147 54.7735 407.164 54.864C407.181 54.9545 407.179 55.0476 407.156 55.137L385.194 161.412L414.608 173.906C413.803 176.205 413.217 178.575 412.855 180.984C412.679 182.153 412.554 183.315 412.481 184.47L380.505 184.091L374.79 211.751C374.197 214.508 373.6 217.179 373.299 218.458C372.919 219.228 372.326 219.872 371.59 220.314L405.788 54.86ZM254.904 220.302C254.281 219.925 253.757 219.403 253.378 218.781C253.154 217.729 252.797 216.026 252.22 213.269L250.609 205.569L247.454 190.341C237.682 143.169 219.609 55.4 219.494 54.841C219.462 54.6598 219.501 54.4733 219.603 54.3199C219.704 54.1665 219.861 54.0581 220.04 54.017C220.091 54.0067 220.143 54.001 220.194 54C220.351 54.0086 220.501 54.0676 220.622 54.1684C220.743 54.2691 220.828 54.4061 220.864 54.559L254.904 220.302Z" stroke="black" stroke-miterlimit="10"/>
<path d="M465.368 207.999C462.144 206.454 441.088 196.522 437.494 193.655C435.435 192.014 433.794 187.455 434.627 181.932C434.927 179.978 436.305 173.441 441.655 171.347C452.631 167.059 464.079 178.68 464.516 179.13C467.656 182.497 472.002 184.483 476.604 184.655C481.205 184.826 485.687 183.169 489.069 180.045C492.452 176.921 494.46 172.585 494.654 167.985C494.849 163.385 493.214 158.894 490.107 155.496C479.96 144.42 455.667 128.462 428.963 138.907C420.613 142.202 413.455 147.948 408.435 155.389L428.734 57.1401C429.314 54.4667 429.358 51.705 428.864 49.0145C428.37 46.324 427.347 43.7581 425.855 41.4652C424.364 39.1722 422.432 37.1976 420.173 35.6556C417.913 34.1136 415.371 33.0347 412.692 32.4813C410.013 31.9279 407.251 31.911 404.565 32.4315C401.88 32.952 399.325 33.9996 397.047 35.5138C394.769 37.028 392.813 38.9787 391.293 41.2532C389.773 43.5277 388.719 46.0809 388.192 48.7651L367.632 148.251C367.632 148.251 334.573 45.1511 334.331 44.8261C332.678 40.9445 329.878 37.6611 326.306 35.4166C322.733 33.172 318.56 32.0736 314.346 32.2686C310.131 32.4636 306.077 33.9428 302.728 36.5076C299.378 39.0725 296.893 42.6004 295.605 46.6181L262.936 148.261L242.448 48.4891C241.333 43.1218 238.134 38.416 233.554 35.4042C228.973 32.3923 223.385 31.3204 218.016 32.4235C212.646 33.5267 207.933 36.7148 204.911 41.2885C201.889 45.8621 200.804 51.4478 201.896 56.8201C201.896 56.8201 219.922 144.375 229.862 192.353C226.688 189.865 222.771 188.513 218.738 188.514H157.139C154.159 188.513 151.225 189.247 148.598 190.652C145.97 192.057 143.73 194.089 142.076 196.567V96.4461C142.076 91.1005 139.953 85.9739 136.173 82.194C132.393 78.4141 127.266 76.2906 121.921 76.2906C116.575 76.2906 111.449 78.4141 107.669 82.194C103.889 85.9739 101.766 91.1005 101.766 96.4461V189.199L38.3125 86.1791C36.0116 82.4437 32.5549 79.5612 28.4668 77.9692C24.3787 76.3772 19.8822 76.1627 15.6611 77.3582C11.44 78.5538 7.72515 81.0941 5.0791 84.5934C2.43305 88.0928 1.0003 92.36 1 96.7471V257.673C1 263.018 3.12371 268.145 6.90332 271.924C10.6829 275.704 15.8091 277.827 21.1543 277.827C26.4995 277.827 31.6257 275.704 35.4053 271.924C39.1849 268.145 41.3086 263.018 41.3086 257.673V167.899L101.048 264.885C106.511 273.738 116.518 277.885 125.942 275.212C128.718 274.428 131.307 273.091 133.555 271.283C135.802 269.475 137.661 267.232 139.021 264.688V351.583C139.023 356.387 140.931 360.994 144.328 364.391C147.725 367.788 152.333 369.697 157.137 369.699H218.736C223.542 369.699 228.15 367.79 231.548 364.392C234.946 360.994 236.854 356.386 236.854 351.581C236.854 346.775 234.946 342.167 231.548 338.769C228.15 335.371 223.542 333.462 218.736 333.462H175.252V297.225H218.736C223.542 297.225 228.15 295.316 231.548 291.918C234.946 288.52 236.854 283.912 236.854 279.107C236.854 274.301 234.946 269.693 231.548 266.295C228.15 262.897 223.542 260.988 218.736 260.988H175.252V224.751H218.736C221.989 224.752 225.182 223.877 227.979 222.218C230.777 220.559 233.077 218.177 234.637 215.323C235.623 220.042 236.209 222.802 236.255 222.923C238.009 227.628 241.159 231.685 245.284 234.549C249.409 237.413 254.31 238.948 259.332 238.948H259.505C264.555 238.913 269.472 237.326 273.59 234.402C277.708 231.479 280.827 227.36 282.525 222.604C282.589 222.418 315.325 120.594 315.325 120.594C315.325 120.594 347.976 222.639 348.08 222.923C349.834 227.628 352.986 231.685 357.11 234.549C361.235 237.413 366.136 238.948 371.157 238.948H371.329C376.379 238.913 381.297 237.326 385.415 234.402C389.533 231.479 392.653 227.36 394.352 222.604C394.663 221.72 396.373 213.755 396.373 213.755L400.422 194.168C402.378 204.911 407.698 214.451 415.764 220.887C422.539 226.295 447.163 237.91 450.316 239.422C464.116 246.032 464.129 256.022 462.908 261.391C461.391 268.085 455.96 274.866 448.527 274.866C439.827 274.866 431.195 269.93 425.428 261.666C422.784 257.876 418.743 255.292 414.194 254.481C409.645 253.67 404.962 254.7 401.172 257.343C397.382 259.986 394.797 264.027 393.986 268.576C393.176 273.125 394.205 277.809 396.849 281.599C409.131 299.199 428.448 309.705 448.521 309.705C471.562 309.705 491.447 293.011 496.876 269.105C502.607 243.899 490.238 219.918 465.368 207.999Z" stroke="black" stroke-miterlimit="10"/>
<path d="M155.14 358.761C152.987 358.759 150.923 357.902 149.401 356.38C147.879 354.858 147.023 352.795 147.021 350.642V263.747L128.242 258.958C127.519 260.335 126.522 261.549 125.313 262.528C124.105 263.507 122.709 264.229 121.212 264.651C120.23 264.93 119.214 265.073 118.192 265.074C116.021 265.01 113.903 264.39 112.041 263.272C110.179 262.155 108.635 260.578 107.557 258.692L29.3086 131.655V256.735C29.3086 259.428 28.2382 262.011 26.334 263.915C24.4297 265.819 21.8473 266.889 19.1543 266.889C16.4613 266.889 13.8789 265.819 11.9746 263.915C10.0704 262.011 9 259.428 9 256.735V95.808C8.99974 94.4748 9.26243 93.1547 9.77246 91.9229C10.2825 90.6912 11.03 89.572 11.9727 88.6292C12.9153 87.6865 14.0349 86.9387 15.2666 86.4285C16.4983 85.9184 17.8182 85.6558 19.1514 85.656C20.8862 85.6498 22.5929 86.091 24.1074 86.9371C25.6219 87.7832 26.8936 89.0055 27.7979 90.486L109.765 223.564V95.508C109.765 92.8146 110.835 90.2315 112.739 88.327C114.644 86.4224 117.227 85.3525 119.92 85.3525C122.613 85.3525 125.196 86.4224 127.101 88.327C129.005 90.2315 130.075 92.8146 130.075 95.508V228.53L148.385 201.193C149.126 200.081 150.129 199.169 151.308 198.538C152.486 197.907 153.802 197.576 155.139 197.576H216.738C218.542 197.576 220.294 198.183 221.711 199.299L227.166 203.557L223.866 209.581C223.167 210.861 222.136 211.929 220.882 212.674C219.628 213.418 218.197 213.812 216.738 213.813H163.254V270.05H216.738C218.891 270.05 220.957 270.905 222.479 272.428C224.002 273.95 224.856 276.015 224.856 278.168C224.856 280.322 224.002 282.387 222.479 283.909C220.957 285.432 218.891 286.287 216.738 286.287H163.254V342.524H216.738C218.891 342.524 220.957 343.379 222.479 344.902C224.002 346.424 224.856 348.489 224.856 350.642C224.856 352.796 224.002 354.861 222.479 356.383C220.957 357.906 218.891 358.761 216.738 358.761H155.14ZM446.528 298.768C429.718 298.768 413.467 289.86 403.056 274.939C402.495 274.14 402.097 273.238 401.886 272.286C401.674 271.333 401.652 270.348 401.822 269.387C401.992 268.426 402.35 267.508 402.875 266.685C403.4 265.862 404.083 265.152 404.884 264.593C405.684 264.035 406.587 263.64 407.54 263.431C408.493 263.222 409.479 263.203 410.439 263.375C411.4 263.548 412.317 263.908 413.138 264.435C413.959 264.963 414.668 265.647 415.225 266.449C422.866 277.396 434.567 283.931 446.53 283.931C459.21 283.931 468.268 273.231 470.663 262.666C473.818 248.801 467.082 236.387 452.64 229.466L451.91 229.118C427.41 217.435 421.296 213.165 420.005 212.134C413.988 207.334 409.819 199.984 408.264 191.434L388.632 191.202L384.584 210.789C383.945 213.76 383.118 217.477 382.836 218.578C381.791 221.337 379.936 223.714 377.513 225.397C375.09 227.08 372.214 227.99 369.264 228.006H369.163C366.215 228.007 363.336 227.117 360.902 225.453C358.469 223.789 356.596 221.428 355.528 218.68C354.241 214.686 333.736 150.61 322.855 116.605L313.355 86.905L303.812 116.589C303.495 117.582 272.298 214.623 271.062 218.453C270.036 221.243 268.182 223.652 265.748 225.359C263.314 227.066 260.418 227.988 257.445 228.003H257.346C254.464 228.003 251.647 227.153 249.247 225.559C246.847 223.964 244.971 221.697 243.854 219.041C243.689 218.279 243.309 216.495 242.438 212.327L240.827 204.627L237.667 189.373C227.843 141.949 209.883 54.727 209.703 53.851C209.137 51.0719 209.696 48.1817 211.258 45.8141C212.819 43.4466 215.256 41.7948 218.033 41.221C218.746 41.0749 219.472 41.0008 220.199 41C222.659 41.0089 225.042 41.863 226.947 43.4193C228.853 44.9755 230.165 47.1392 230.665 49.548L258.819 186.632L303.144 48.732C303.801 46.6757 305.066 44.8667 306.771 43.5435C308.477 42.2204 310.544 41.4452 312.699 41.32C314.854 41.1948 316.996 41.7256 318.844 42.8424C320.691 43.9592 322.158 45.6096 323.049 47.576C324.77 52.665 343.618 111.353 356.124 150.358L367.739 186.586L396.001 49.843C396.429 47.7708 397.462 45.8721 398.97 44.387C400.477 42.9019 402.391 41.897 404.47 41.4995C406.548 41.102 408.697 41.3297 410.646 42.1537C412.595 42.9777 414.256 44.3611 415.419 46.129C416.194 47.3008 416.729 48.6149 416.993 49.995C417.257 51.3751 417.244 52.7938 416.956 54.169L396.656 152.419L414.705 160.086C418.597 154.308 424.145 149.841 430.621 147.273C435.133 145.491 439.938 144.572 444.789 144.563C460.01 144.563 473.673 153.582 480.749 161.305C482.084 162.75 482.791 164.667 482.713 166.633C482.635 168.599 481.778 170.454 480.333 171.789C478.888 173.124 476.971 173.83 475.005 173.752C473.039 173.674 471.185 172.818 469.85 171.373L469.691 171.206C467.779 169.244 457.591 159.453 444.771 159.453C441.78 159.446 438.814 160.001 436.027 161.087C429.044 163.819 424.082 170.698 422.751 179.487C421.451 188.075 424.012 196.333 429.272 200.526C431.454 202.267 436.445 205.294 457.989 215.558L459.061 216.069C479.872 226.039 489.861 245.149 485.141 265.94C480.744 285.275 464.869 298.768 446.528 298.768Z" stroke="black" stroke-miterlimit="10"/>
</svg>
