<svg xmlns="http://www.w3.org/2000/svg" xmlns:xlink="http://www.w3.org/1999/xlink" width="47.058" height="47.185" viewBox="0 0 47.058 47.185"><defs><style>.a{fill:none;}.b{clip-path:url(#a);}.c{fill:#fff;}.d{fill:#f7e143;}</style><clipPath id="a"><rect class="a" width="47.059" height="47.185"/></clipPath></defs><g class="b" transform="translate(0 0)"><path class="c" d="M40.022,28.953a6.179,6.179,0,0,0-9.188.5,2.369,2.369,0,0,1-3.291.407,53.3,53.3,0,0,1-5.454-4.771A54.1,54.1,0,0,1,17.2,19.481a1.964,1.964,0,0,1,.412-2.776,6.189,6.189,0,0,0,.773-9.4l-5.5-5.484A6.185,6.185,0,0,0,3.22,3.007L1.263,6.259a8.828,8.828,0,0,0-.8,7.367A48.54,48.54,0,0,0,5.579,24.22a57.022,57.022,0,0,0,7.753,9.62,57.1,57.1,0,0,0,9.62,7.753,48.842,48.842,0,0,0,10.313,5.024,8.918,8.918,0,0,0,7.858-1.047l3.058-2.078a6.184,6.184,0,0,0,.893-9.483Zm2.629,9.609a1.918,1.918,0,0,1-.843,1.428l-3.058,2.079a4.648,4.648,0,0,1-4.105.539,44.183,44.183,0,0,1-9.413-4.591,52.457,52.457,0,0,1-8.9-7.177,52.641,52.641,0,0,1-7.178-8.9,44.353,44.353,0,0,1-4.676-9.668A4.628,4.628,0,0,1,4.9,8.428L6.85,5.175a1.955,1.955,0,0,1,1.438-.931,1.851,1.851,0,0,1,.241-.016A1.946,1.946,0,0,1,9.906,4.8l5.487,5.49a1.95,1.95,0,0,1-.241,2.967,6.182,6.182,0,0,0-1.323,8.758,57.133,57.133,0,0,0,5.272,6.05,58.273,58.273,0,0,0,5.882,5.146,6.6,6.6,0,0,0,9.152-1.121,1.957,1.957,0,0,1,2.907-.153L42.1,36.992a1.974,1.974,0,0,1,.556,1.57ZM27.92,4.213A17.4,17.4,0,0,1,42.832,19.126a2.117,2.117,0,0,0,2.094,1.835,1.751,1.751,0,0,0,.287-.021,2.111,2.111,0,0,0,1.813-2.38A21.643,21.643,0,0,0,35.078,2.012a21.641,21.641,0,0,0-6.6-1.994,2.116,2.116,0,0,0-.562,4.194Zm0,0" transform="translate(-0.007 0.029)"/></g><path class="d" d="M1.967,4.23A10.885,10.885,0,0,1,8.911,7.393a10.854,10.854,0,0,1,3.164,6.944,2.114,2.114,0,0,0,2.11,1.967,1.433,1.433,0,0,0,.146-.005,2.112,2.112,0,0,0,1.963-2.258A15.131,15.131,0,0,0,2.265,0a2.118,2.118,0,0,0-.3,4.226Zm0,0" transform="translate(24.374 6.389)"/><path class="c" d="M.045,2.542c0,.011,0,.021,0,.032a.286.286,0,0,1,.015.069c.008.01.008.026.013.037l.015.063A.135.135,0,0,1,.1,2.78a.177.177,0,0,0,.022.058c0,.01.009.026.015.037s.015.037.02.058.012.026.019.037a.12.12,0,0,0,.027.058c0,.011.008.021.012.037a.317.317,0,0,1,.027.058l.017.032c.01.021.022.037.031.058a.08.08,0,0,0,.019.026A.716.716,0,0,0,.347,3.3a.215.215,0,0,1,.015.021c.018.021.032.048.05.069,0,.005,0,.011.009.011a2.831,2.831,0,0,0,.2.232l.07.069A.023.023,0,0,0,.7,3.716a.746.746,0,0,0,.058.053l.013.016c.022.016.039.032.062.048a.114.114,0,0,0,.02.016.3.3,0,0,0,.061.042c0,.005.012.01.02.016s.041.027.059.042c0,.005.015.01.021.015s.042.027.062.037.017.01.02.016a.385.385,0,0,1,.065.037c0,.005.015.005.021.011s.046.021.068.032c0,.005.011.005.018.01.024.011.051.021.083.037,0,0,0,0,.012.005a1.225,1.225,0,0,0,.188.064s.013.005.017.005c.027.005.055.015.079.021s.023.005.033.005a.254.254,0,0,0,.064.011c.007,0,.025.005.036.005s.043.005.058.011.027.005.042.005.037.005.059.005a.141.141,0,0,1,.047.005.24.24,0,0,1,.061.005h.095a.505.505,0,0,0,.088-.005h.036c.044-.005.089-.005.129-.01a4.355,4.355,0,0,1,3.67,1.248A4.347,4.347,0,0,1,7.311,9.2a2.118,2.118,0,0,0,1.825,2.37,2.509,2.509,0,0,0,.275.016A2.114,2.114,0,0,0,11.5,9.735,8.535,8.535,0,0,0,9.051,2.526,8.575,8.575,0,0,0,1.844.072,2.111,2.111,0,0,0,.019,2.442c.01.031.015.063.026.1Zm0,0" transform="translate(22.615 12.869)"/></svg>